<svg width="33" height="39" viewBox="0 0 33 39" fill="none" xmlns="http://www.w3.org/2000/svg">
<path d="M1.66003 0.640015C1.20657 0.640015 0.840027 1.00737 0.840027 1.46001V37.54C0.840027 37.8336 0.996608 38.1051 1.25163 38.2511C1.50665 38.3971 1.81985 38.3955 2.07323 38.2479L11.5 32.7497L20.9268 38.2479C21.0539 38.3225 21.1973 38.36 21.34 38.36C21.4811 38.36 21.6221 38.3241 21.7484 38.2511C22.0034 38.1052 22.16 37.8336 22.16 37.54V28.3727C21.595 28.2776 21.0481 28.1344 20.52 27.9483V36.113L11.9132 31.0921C11.7861 31.0175 11.6427 30.98 11.5 30.98C11.3573 30.98 11.2139 31.0175 11.0868 31.0921L2.48003 36.113V2.28001H20.52V9.41177C21.0481 9.22481 21.595 9.08248 22.16 8.98736V1.46001C22.16 1.00737 21.7935 0.640015 21.34 0.640015H1.66003ZM23.8096 10.4704C19.2996 10.4704 15.6096 14.1604 15.6096 18.6704C15.6096 23.1804 19.2996 26.8704 23.8096 26.8704C28.3196 26.8704 32.0096 23.1804 32.0096 18.6704C32.0096 14.1604 28.3196 10.4704 23.8096 10.4704ZM23.8096 12.1104C27.4176 12.1104 30.3696 15.0624 30.3696 18.6704C30.3696 22.2784 27.4176 25.2304 23.8096 25.2304C20.2016 25.2304 17.2496 22.2784 17.2496 18.6704C17.2496 15.0624 20.2016 12.1104 23.8096 12.1104ZM23.8096 13.8321C23.3176 13.8321 22.9896 14.1601 22.9896 14.6521V17.8504H19.7913C19.2993 17.8504 18.9713 18.1784 18.9713 18.6704C18.9713 19.1624 19.2993 19.4904 19.7913 19.4904H22.9896V22.6887C22.9896 23.1807 23.3176 23.5087 23.8096 23.5087C24.3016 23.5087 24.6296 23.1807 24.6296 22.6887V19.4904H27.828C28.32 19.4904 28.648 19.1624 28.648 18.6704C28.648 18.1784 28.32 17.8504 27.828 17.8504H24.6296V14.6521C24.6296 14.1601 24.3016 13.8321 23.8096 13.8321Z" fill="white"/>
</svg>
