<svg width="35" height="34" viewBox="0 0 35 34" fill="none" xmlns="http://www.w3.org/2000/svg">
<path d="M5.99788 13.7011C5.65928 13.7011 5.31309 13.8243 5.06798 14.0786C4.82287 14.3328 4.7041 14.6919 4.7041 15.0431V31.976C4.7041 32.3272 4.82287 32.6863 5.06798 32.9405C5.13376 33.0087 5.20682 33.0675 5.28506 33.117C5.49836 33.252 5.7502 33.3179 5.99793 33.3179H12.905L12.9147 33.318C13.4996 33.318 13.7678 33.0857 13.9882 32.8103C14.2085 32.535 14.2085 32.3859 14.2085 31.976V27.9686L14.2086 27.9502L14.2089 25.2619H21.0012L21.0009 27.9502L21.0009 27.9686V31.976C21.0009 32.1754 21.0009 32.4813 21.3177 32.8103C21.5939 33.0972 22.1965 33.3099 22.1965 33.3099H22.2947L29.286 33.3179C29.5294 33.3179 29.7767 33.2543 29.9875 33.1241C30.07 33.0731 30.147 33.012 30.2159 32.9405C30.461 32.6863 30.5798 32.3272 30.5798 31.976V15.0431C30.5798 14.6919 30.461 14.3328 30.2159 14.0786C29.9708 13.8243 29.6246 13.7011 29.286 13.7011V18.5428L29.286 18.5612V31.976L22.2947 31.976V31.9268L22.295 25.2619C22.295 24.9107 22.1762 24.5517 21.9311 24.2974C21.8654 24.2292 21.7923 24.1704 21.7141 24.1209C21.5008 23.986 21.2489 23.92 21.0012 23.92H14.2088C13.9655 23.92 13.7182 23.9837 13.5073 24.1138C13.4248 24.1648 13.3478 24.2259 13.2789 24.2974C13.0338 24.5517 12.915 24.9107 12.915 25.2619L12.9147 31.976L5.99793 31.976V18.5612L5.99788 18.5428V13.7011Z" fill="#000000"/>
<path d="M12.9147 33.318C13.4996 33.318 13.7678 33.0857 13.9882 32.8103C14.2085 32.535 14.2085 32.3859 14.2085 31.976V27.9686L14.2086 27.9502L14.2089 25.2619H21.0012L21.0009 27.9502L21.0009 27.9686V31.976C21.0009 32.1754 21.0009 32.4813 21.3177 32.8103C21.5939 33.0972 22.1965 33.3099 22.1965 33.3099H22.2947L29.286 33.3179C29.5294 33.3179 29.7767 33.2543 29.9875 33.1241C30.07 33.0731 30.147 33.012 30.2159 32.9405C30.461 32.6863 30.5798 32.3272 30.5798 31.976V15.0431C30.5798 14.6919 30.461 14.3328 30.2159 14.0786C29.9708 13.8243 29.6246 13.7011 29.286 13.7011V18.5428L29.286 18.5612V31.976L22.2947 31.976V31.9268L22.295 25.2619C22.295 24.9107 22.1762 24.5517 21.9311 24.2974C21.8654 24.2292 21.7923 24.1704 21.7141 24.1209C21.5008 23.986 21.2489 23.92 21.0012 23.92H14.2088C13.9655 23.92 13.7182 23.9837 13.5073 24.1138C13.4248 24.1648 13.3478 24.2259 13.2789 24.2974C13.0338 24.5517 12.915 24.9107 12.915 25.2619L12.9147 31.976L5.99793 31.976V18.5612L5.99788 18.5428V13.7011C5.65928 13.7011 5.31309 13.8243 5.06798 14.0786C4.82287 14.3328 4.7041 14.6919 4.7041 15.0431V31.976C4.7041 32.3272 4.82287 32.6863 5.06798 32.9405C5.13376 33.0087 5.20682 33.0675 5.28506 33.117C5.49836 33.252 5.7502 33.3179 5.99793 33.3179H12.905M12.9147 33.318C12.9116 33.3179 12.9083 33.3179 12.905 33.3179M12.9147 33.318L12.905 33.3179" stroke="#000000" stroke-width="0.6"/>
<path d="M1.21245 17.8319C0.983741 18.1173 1.02305 18.5436 1.29822 18.7808C1.57338 19.018 1.98435 18.9772 2.21306 18.6918L11.5651 9.13398L16.9927 3.5044L17.6503 2.95514L18.3078 3.5044L23.6513 9.04677L32.9971 18.6919C33.1597 18.8642 33.3992 18.9347 33.6261 18.8735C33.8512 18.8105 34.0263 18.6289 34.0871 18.3954C34.146 18.16 34.0782 17.9116 33.912 17.743L24.6018 8.13482L17.6503 0.924622L10.6028 8.23435L1.29822 17.743L1.25533 17.7874L1.21245 17.8319Z" fill="#000000"/>
<path d="M1.21245 17.8319C0.983741 18.1173 1.02305 18.5436 1.29822 18.7808C1.57338 19.018 1.98435 18.9772 2.21306 18.6918L11.5651 9.13398L16.9927 3.5044L17.6503 2.95514L18.3078 3.5044L23.6513 9.04677L32.9971 18.6919C33.1597 18.8642 33.3992 18.9347 33.6261 18.8735C33.8512 18.8105 34.0263 18.6289 34.0871 18.3954C34.146 18.16 34.0782 17.9116 33.912 17.743L24.6018 8.13482L17.6503 0.924622L10.6028 8.23435L1.29822 17.743M1.21245 17.8319C1.22675 17.8171 1.24104 17.8023 1.25533 17.7874M1.21245 17.8319L1.25533 17.7874M1.29822 17.743C1.28392 17.7578 1.26963 17.7726 1.25533 17.7874M1.29822 17.743L1.25533 17.7874" stroke="#000000" stroke-width="0.6"/>
</svg>
