<svg width="39" height="35" viewBox="0 0 39 35" fill="none" xmlns="http://www.w3.org/2000/svg">
<path fill-rule="evenodd" clip-rule="evenodd" d="M4.06017 4.29184C2.64932 5.81089 1.85714 7.94491 1.85714 10.3633C1.85714 11.8533 2.44341 13.4309 3.20742 14.8157C3.966 16.1906 4.85136 17.2883 5.34013 17.7969C5.34067 17.7974 5.3412 17.798 5.34173 17.7986L19.5 32.3612L33.6583 17.7986C33.6588 17.798 33.6594 17.7974 33.6599 17.7968C34.1487 17.2882 35.034 16.1905 35.7926 14.8157C36.5566 13.4309 37.1429 11.8533 37.1429 10.3633C37.1429 7.94491 36.3507 5.81089 34.9398 4.29184C33.539 2.78354 31.4732 1.82057 28.7857 1.82057C25.0979 1.82057 21.9261 3.63536 20.2925 6.25771L19.5 7.52986L18.7075 6.25771C17.0739 3.63536 13.9021 1.82057 10.2143 1.82057C7.52684 1.82057 5.46104 2.78354 4.06017 4.29184ZM2.68695 3.06616C4.4637 1.15316 7.04075 0 10.2143 0C14.0002 0 17.3872 1.64016 19.5 4.2067C21.6128 1.64016 24.9998 0 28.7857 0C31.9592 0 34.5363 1.15316 36.313 3.06616C38.0798 4.96841 39 7.56088 39 10.3633C39 12.2824 38.2597 14.1708 37.4261 15.6818C36.5879 17.2011 35.6056 18.4278 35.0095 19.0475L35.0061 19.051L19.5 35L3.99393 19.051L3.99048 19.0475C3.39445 18.4278 2.41214 17.2011 1.5739 15.6818C0.740261 14.1708 0 12.2824 0 10.3633C0 7.56088 0.92019 4.96841 2.68695 3.06616Z" fill="white"/>
</svg>
