<svg width="36" height="36" viewBox="0 0 36 36" fill="none" xmlns="http://www.w3.org/2000/svg">
<path d="M16.8119 14.095C16.8819 13.9248 16.9863 13.7701 17.1189 13.6404C17.3144 13.4492 17.5641 13.3197 17.8356 13.2686C18.1071 13.2175 18.388 13.2472 18.6421 13.3538C18.8962 13.4604 19.1118 13.6391 19.2612 13.8667C19.4105 14.0943 19.4866 14.3605 19.4798 14.6309L19.4808 18.6781C19.4809 18.6847 19.4809 18.6914 19.4809 18.6981L19.4809 19.4286C19.4809 19.4353 19.4809 19.442 19.4808 19.4486L19.4798 27.5699C19.4866 27.8403 19.4105 28.1065 19.2612 28.3341C19.1118 28.5618 18.8962 28.7404 18.6421 28.847C18.388 28.9536 18.1071 28.9833 17.8356 28.9322C17.5641 28.8811 17.3144 28.7516 17.1189 28.5604C16.9863 28.4307 16.8819 28.2761 16.8119 28.1058C16.742 27.9356 16.708 27.7533 16.712 27.5699L16.7164 19.0633L16.712 14.6309C16.708 14.4475 16.742 14.2652 16.8119 14.095Z" fill="white"/>
<ellipse cx="18.0963" cy="9.45155" rx="1.62544" ry="1.66154" transform="rotate(90 18.0963 9.45155)" fill="white"/>
<path fill-rule="evenodd" clip-rule="evenodd" d="M36 18C36 27.9411 27.9411 36 18 36C8.05888 36 0 27.9411 0 18C0 8.05888 8.05888 0 18 0C27.9411 0 36 8.05888 36 18ZM18 34.4348C27.0767 34.4348 34.4348 27.0767 34.4348 18C34.4348 8.92332 27.0767 1.56522 18 1.56522C8.92332 1.56522 1.56522 8.92332 1.56522 18C1.56522 27.0767 8.92332 34.4348 18 34.4348Z" fill="white"/>
</svg>
