<svg width="32" height="32" viewBox="0 0 32 32" fill="none" xmlns="http://www.w3.org/2000/svg">
<path d="M13.12 0.159973C6.36719 0.159973 0.880005 5.64716 0.880005 12.4C0.880005 19.1528 6.36719 24.64 13.12 24.64C15.7919 24.64 18.2613 23.7793 20.275 22.3225L29.7475 31.7725L31.7725 29.7475L22.4125 20.365C24.2519 18.2218 25.36 15.4403 25.36 12.4C25.36 5.64716 19.8728 0.159973 13.12 0.159973ZM13.12 1.59997C19.0938 1.59997 23.92 6.42622 23.92 12.4C23.92 18.3737 19.0938 23.2 13.12 23.2C7.14626 23.2 2.32 18.3737 2.32 12.4C2.32 6.42622 7.14626 1.59997 13.12 1.59997Z" fill="white"/>
</svg>
