<?xml version="1.0" encoding="utf-8"?><!DOCTYPE svg PUBLIC "-//W3C//DTD SVG 1.1//EN" "http://www.w3.org/Graphics/SVG/1.1/DTD/svg11.dtd"><svg version="1.1" id="Contours" xmlns="http://www.w3.org/2000/svg" xmlns:xlink="http://www.w3.org/1999/xlink" x="0px" y="0px" width="1095.665283px" height="1095.665283px" viewBox="0.000009 0.000007 1095.665283 1472.368774" enable-background="new 0 0 1095.665283 1095.665283" xml:space="preserve" stroke="black" fill="none" stroke-linecap='round' stroke-linejoin='round'><path class="selected"  fill="#000000" opacity="1.000000" stroke="none" 
 	d="
M754.439511 256.458128 C744.349578 253.919782 737.064078 243.145925 738.466086 232.836496 C740.227336 219.885418 752.818560 211.648034 764.168390 205.166230 C799.937077 184.738997 835.705759 164.311764 871.474441 143.884532 C879.306047 139.411959 887.784506 134.788881 896.766121 135.606530 C910.731096 136.877843 920.717217 153.841279 915.051920 166.668640 C911.271959 175.227223 902.660209 180.439244 894.552020 185.107725 C858.145117 206.069859 821.738214 227.031993 785.331310 247.994127 C775.831373 253.463940 765.070367 259.132554 754.439511 256.458128 z"/><path class="selected"  fill="#000000" opacity="1.000000" stroke="none" 
 	d="
M952.040300 268.347045 C959.106068 272.418702 963.570720 280.628255 963.148277 288.772272 C962.725834 296.916288 957.435745 304.619848 949.986625 307.938595 C944.287691 310.477597 937.833223 310.511061 931.594294 310.501116 C884.883088 310.426658 838.171883 310.352200 791.460677 310.277742 C783.955641 310.265780 776.100122 310.169663 769.489311 306.616793 C761.708712 302.435244 756.800455 293.431971 757.501129 284.626739 C758.201803 275.821506 764.472142 267.707767 772.816127 264.809324 C777.755536 263.093524 783.105118 263.117239 788.333873 263.159826 C835.481464 263.543827 882.629055 263.927827 929.776646 264.311827 C937.407973 264.373982 945.428011 264.536710 952.040298 268.347048 z"/><path class="selected"  fill="#000000" opacity="1.000000" stroke="none" 
 	d="
M917.366257 408.850827 C921.603337 421.111811 912.321103 436.093983 899.455978 437.759263 C890.114399 438.968450 881.162474 434.163406 872.967663 429.518813 C836.623191 408.919773 800.278720 388.320732 763.934248 367.721692 C756.691571 363.616744 749.079080 359.143545 745.138754 351.810005 C738.141635 338.787315 748.461304 320.126967 763.211153 319.130928 C771.785833 318.551890 779.832177 322.903396 787.320649 327.120409 C823.116953 347.278522 858.913257 367.436634 894.709561 387.594746 C903.946921 392.796616 913.903632 398.830922 917.366254 408.850829 z"/><path class="selected"  fill="#000000" opacity="1.000000" stroke="none" 
 	d="
M1000.870765 1472.262140 C994.261454 1472.269871 987.412974 1472.228124 981.404486 1469.474740 C973.502325 1465.853582 968.048916 1457.428232 967.981181 1448.736146 C967.913447 1440.044061 973.234891 1431.534746 981.079659 1427.790878 C987.430787 1424.759839 994.755945 1424.794784 1001.792635 1424.889693 C1016.010161 1425.081458 1030.227687 1425.273222 1044.445212 1425.464986 C1047.619066 1425.507794 1048.629409 1421.236084 1048.614538 1418.061976 C1048.542581 1402.703342 1048.470623 1387.344708 1048.398666 1371.986074 C1048.363906 1364.566843 1048.406108 1356.811945 1051.822328 1350.225926 C1055.972931 1342.224112 1065.166221 1337.139095 1074.150306 1337.875815 C1083.134391 1338.612535 1091.376466 1345.127302 1094.168044 1353.698394 C1095.682141 1358.347184 1095.679391 1363.334096 1095.662054 1368.223211 C1095.579939 1391.379568 1095.497824 1414.535925 1095.415709 1437.692282 C1095.373351 1449.637277 1094.005317 1463.919642 1083.470460 1469.550049 C1078.678182 1472.111301 1072.992510 1472.177788 1067.558737 1472.184144 C1045.329413 1472.210141 1023.100089 1472.236141 1000.870765 1472.262140 z"/><path class="selected"  fill="#000000" opacity="1.000000" stroke="none" 
 	d="
M977.380340 42.295903 C965.861293 34.047456 965.735243 14.212796 977.148525 5.818612 C984.897229 0.119633 995.261578 -0.051461 1004.880170 0.007106 C1025.183764 0.130733 1045.487358 0.254360 1065.790952 0.377987 C1073.001580 0.421892 1080.793885 0.657304 1086.484515 5.085827 C1094.228965 11.112662 1095.058311 22.309272 1095.199462 32.121474 C1095.547044 56.284111 1095.692750 80.449652 1095.636559 104.614724 C1095.625100 109.543190 1095.589110 114.573181 1094.006001 119.240479 C1091.224587 127.440603 1083.424676 133.700761 1074.816929 134.641504 C1066.209183 135.582247 1057.241205 131.154656 1052.754219 123.748898 C1048.406307 116.572682 1048.321641 107.695179 1048.364794 99.304677 C1048.443922 83.919685 1048.523049 68.534693 1048.602176 53.149701 C1048.610926 51.448566 1048.550624 49.563586 1047.378274 48.330893 C1046.105466 46.992571 1044.025707 46.938726 1042.179168 46.976706 C1029.874096 47.229797 1017.569025 47.482888 1005.263953 47.735979 C995.620685 47.934322 985.222426 47.911385 977.380341 42.295901 z"/><path class="selected"  fill="#000000" opacity="1.000000" stroke="none" 
 	d="
M114.450591 1469.600466 C108.568453 1472.241850 101.897592 1472.294551 95.449615 1472.301710 C75.367614 1472.324008 55.285612 1472.346306 35.203610 1472.368604 C23.937265 1472.381113 10.730193 1471.400146 4.596834 1461.949612 C1.120491 1456.593120 0.938623 1449.819636 0.868324 1443.434339 C0.610625 1420.027375 0.352925 1396.620411 0.095225 1373.213447 C0.004226 1364.947996 0.030318 1356.217162 4.207479 1349.084330 C8.341430 1342.025275 16.488517 1337.512772 24.665439 1337.753086 C32.842361 1337.993399 40.710377 1342.976574 44.422633 1350.266222 C47.735781 1356.772151 47.759864 1364.396129 47.711407 1371.696929 C47.608738 1387.165435 47.506069 1402.633940 47.403400 1418.102446 C47.382220 1421.293530 48.402281 1425.596004 51.592870 1425.535931 C65.115664 1425.281317 78.638459 1425.026704 92.161254 1424.772090 C100.526019 1424.614595 109.371818 1424.575447 116.601408 1428.785807 C123.855529 1433.010452 128.424673 1441.466577 127.982912 1449.849579 C127.541152 1458.232582 122.108555 1466.161644 114.450592 1469.600465 z"/><path class="selected"  fill="#000000" opacity="1.000000" stroke="none" 
 	d="
M93.086805 0.159265 C101.355226 0.164035 110.097307 0.295223 117.158704 4.596792 C123.700035 8.581554 127.959482 16.066565 128.044188 23.725557 C128.128894 31.384549 124.036032 38.961934 117.584431 43.090394 C110.083930 47.890059 100.589954 47.875384 91.686889 47.702948 C78.476465 47.447085 65.266041 47.191223 52.055618 46.935361 C48.553906 46.867539 47.427143 51.585659 47.442660 55.087993 C47.508281 69.898134 47.573900 84.708276 47.639520 99.518417 C47.677657 108.125835 47.565843 117.276745 42.919017 124.522165 C35.224912 136.518958 15.203214 137.499920 6.373211 126.312725 C0.059040 118.312976 -0.101921 107.234628 0.023143 97.043991 C0.291421 75.184000 0.559696 53.324012 0.827970 31.464025 C0.928938 23.236834 1.310124 14.241906 6.745029 8.064637 C13.256785 0.663427 24.400106 0.119634 34.258141 0.125321 C53.867695 0.136636 73.477250 0.147950 93.086805 0.159264 z"/><path class="selected"  fill="#000000" opacity="1.000000" stroke="none" 
 	d="
M1005.872747 310.188267 C1000.924695 310.152588 995.872220 310.099722 991.198570 308.474457 C983.429581 305.772784 977.431703 298.532065 976.223201 290.395988 C975.014699 282.259912 978.649042 273.588458 985.297349 268.745295 C992.305532 263.639967 1001.513886 262.971646 1010.181258 262.735707 C1019.813709 262.473497 1030.201769 262.750187 1037.939364 268.493224 C1044.265411 273.188570 1047.846875 281.340022 1047.026358 289.175320 C1046.205842 297.010619 1041.013348 304.243258 1033.851814 307.526180 C1027.813302 310.294297 1020.923287 310.296789 1014.280713 310.248892 C1011.478058 310.228684 1008.675402 310.208475 1005.872747 310.188267 z"/><path class="selected"  fill="#000000" opacity="1.000000" stroke="none" 
 	d="
M942.897569 421.093965 C953.390020 419.617198 963.268247 425.698473 972.375844 431.113641 C977.493397 434.156421 982.829716 437.182491 986.484529 441.882512 C991.707340 448.598949 992.588617 458.403790 988.647212 465.943923 C984.705807 473.484056 976.152102 478.357010 967.656130 477.902317 C963.190328 477.663314 958.904186 476.092843 954.821661 474.267055 C948.448235 471.416729 942.373213 467.899700 936.727775 463.791910 C933.361432 461.342461 930.100262 458.632444 927.765124 455.185823 C923.601515 449.040414 922.860706 440.725970 925.872253 433.941261 C928.883799 427.156552 935.546965 422.128530 942.897567 421.093965 z"/><path class="selected"  fill="#000000" opacity="1.000000" stroke="none" 
 	d="
M947.211182 151.274049 C938.586580 152.676754 929.312589 148.512688 924.630357 141.135151 C919.948125 133.757615 920.128441 123.593273 925.069399 116.386452 C927.803596 112.398384 931.740456 109.404281 935.751962 106.704590 C940.836291 103.282903 946.158107 100.214167 951.666433 97.527776 C955.022738 95.890919 958.494596 94.381758 962.180093 93.780759 C970.347002 92.448969 979.124729 96.078395 983.966284 102.788940 C988.807839 109.499486 989.484295 118.973853 985.645238 126.304182 C982.740193 131.851103 977.664696 135.922986 972.446223 139.383501 C967.371553 142.748655 962.022121 145.699336 956.468686 148.196512 C953.494145 149.534057 950.430313 150.750489 947.211182 151.274048 z"/><path class="selected"  fill="#000000" opacity="1.000000" stroke="none" 
 	d="
M642.565795 180.207516 C650.943994 185.360573 653.929172 195.895432 656.235329 205.457327 C666.210491 246.816824 676.185653 288.176321 686.160815 329.535817 C691.981958 353.671721 712.804831 370.669498 731.489176 387.019508 C766.697518 417.829056 799.497971 454.614563 811.273507 499.893612 C817.327016 523.170469 817.498864 547.516260 817.633908 571.567013 C819.057979 825.186299 820.482050 1078.805584 821.906120 1332.424870 C821.943594 1339.098791 821.680276 1346.543220 816.949050 1351.250463 C812.344310 1355.831856 805.139808 1356.182008 798.644569 1356.250330 C635.553487 1357.965790 472.462406 1359.681255 309.371325 1361.396719 C299.746501 1361.497957 288.627671 1360.905302 282.834333 1353.218644 C278.874641 1347.964883 278.669167 1340.879398 278.626535 1334.300694 C276.892931 1066.784102 275.159328 799.267509 273.425724 531.750917 C273.346415 519.512496 273.428561 506.624073 279.493273 495.993715 C307.806689 446.365358 344.862724 401.740933 388.443862 364.790863 C398.289796 356.443032 401.285756 342.737901 403.705600 330.058270 C411.845684 287.405371 419.985771 244.752472 428.125858 202.099573 C431.483167 184.507752 454.350149 180.202253 472.255378 179.819537 C522.033060 178.755597 571.810738 177.691643 621.588417 176.627689 C628.784731 176.473874 636.434694 176.436550 642.565795 180.207516 M770.376068 527.582530 C620.303667 527.030653 470.223176 528.679485 320.199124 532.528320 C321.743444 790.404694 323.287764 1048.281069 324.832084 1306.157444 C324.847098 1308.664675 324.947133 1311.408339 326.597458 1313.295893 C328.599181 1315.585337 332.050591 1315.722803 335.091504 1315.686909 C481.875738 1313.954105 628.659970 1312.221309 775.444203 1310.488512 C773.754824 1049.519851 772.065446 788.551191 770.376068 527.582530 M345.845737 485.229158 C474.289525 483.877574 602.733313 482.525990 731.177102 481.174407 C736.766639 481.115589 742.357383 481.056740 747.941970 480.814319 C710.672206 406.903174 628.771443 358.215285 546.005734 359.530303 C463.240025 360.845320 383.431058 411.477984 345.845737 485.229157 M470.229426 234.099457 C463.980214 266.164526 457.731003 298.229596 451.481791 330.294665 C510.428747 307.476226 577.396554 306.047260 637.263217 326.330442 C629.352163 294.404170 621.441110 262.477899 613.530057 230.551627 C612.952562 228.221059 612.206827 225.653049 610.151498 224.411811 C608.669801 223.517004 606.832787 223.528806 605.102293 223.567465 C562.972819 224.508673 520.843345 225.449878 478.713870 226.391082 C476.879357 226.432067 474.930037 226.508034 473.412072 227.539005 C471.345837 228.942352 470.707224 231.647841 470.229423 234.099456 z"/><path class="selected"  fill="#000000" opacity="1.000000" stroke="none" 
 	d="
M549.299822 1083.967208 C515.211386 1022.073703 481.122950 960.180198 447.034514 898.286692 C442.516980 890.084321 437.989072 881.860456 434.424415 873.201343 C417.092068 831.098356 425.321111 779.598385 454.910500 744.992897 C479.569869 716.153185 517.998130 699.641007 555.891044 701.626058 C593.783958 703.611109 630.285221 724.056705 651.751960 755.345561 C673.218699 786.634416 679.156355 828.060154 667.320066 864.111723 C662.505323 878.776726 655.005063 892.389843 647.548289 905.904302 C614.798796 965.258602 582.049309 1024.612905 549.299822 1083.967208 M611.734022 807.159845 C603.920470 781.556029 578.879509 762.214721 552.132214 761.124196 C525.384920 760.033671 498.852545 777.272260 488.980583 802.155013 C479.108622 827.037766 486.606176 857.777359 506.826054 875.320549 C527.045933 892.863738 558.535747 895.950401 581.777246 882.667338 C607.164601 868.157869 620.268990 835.127628 611.734023 807.159845 z"/></svg>