<svg width="35" height="33" viewBox="0 0 35 33" fill="none" xmlns="http://www.w3.org/2000/svg">
<path fill-rule="evenodd" clip-rule="evenodd" d="M9.59859 4.38594C9.31541 4.52873 8.98129 4.52873 8.69811 4.38594L1.45024 0.731269C0.785147 0.395902 0 0.879315 0 1.62418V27.7713C0 28.1489 0.212641 28.4943 0.54976 28.6642L8.69811 32.773C8.98129 32.9158 9.31541 32.9158 9.59859 32.773L17.0498 29.0158C17.3329 28.873 17.6671 28.873 17.9502 29.0158L25.4014 32.773C25.6846 32.9158 26.0187 32.9158 26.3019 32.773L34.4502 28.6642C34.7874 28.4943 35 28.1489 35 27.7713V1.62418C35 0.879314 34.2149 0.395903 33.5498 0.731269L26.3019 4.38594C26.0187 4.52873 25.6846 4.52873 25.4014 4.38594L17.9502 0.628759C17.6671 0.485969 17.3329 0.485969 17.0498 0.628758L9.59859 4.38594ZM2.14317 27.669C1.80605 27.499 1.59341 27.1536 1.59341 26.7761V4.22636C1.59341 3.48149 2.37855 2.99808 3.04365 3.33345L7.80189 5.73275C8.13901 5.90274 8.35165 6.2481 8.35165 6.62565V29.1754C8.35165 29.9202 7.5665 30.4036 6.90141 30.0683L2.14317 27.669ZM11.3953 30.0683C10.7302 30.4036 9.94506 29.9202 9.94506 29.1754V6.62565C9.94506 6.2481 10.1577 5.90274 10.4948 5.73275L15.2531 3.33345C15.9181 2.99808 16.7033 3.48149 16.7033 4.22636V26.7761C16.7033 27.1536 16.4907 27.499 16.1535 27.669L11.3953 30.0683ZM18.8465 27.669C18.5093 27.499 18.2967 27.1536 18.2967 26.7761V4.22636C18.2967 3.48149 19.0819 2.99808 19.7469 3.33345L24.5052 5.73275C24.8423 5.90274 25.0549 6.2481 25.0549 6.62565V29.1754C25.0549 29.9202 24.2698 30.4036 23.6047 30.0683L18.8465 27.669ZM28.0986 30.0683C27.4335 30.4036 26.6483 29.9202 26.6483 29.1754V6.62565C26.6483 6.2481 26.861 5.90274 27.1981 5.73275L31.9564 3.33345C32.6214 2.99808 33.4066 3.48149 33.4066 4.22636V26.7761C33.4066 27.1536 33.194 27.499 32.8568 27.669L28.0986 30.0683Z" fill="#8B8B8D"/>
</svg>
