<?xml version="1.0" encoding="utf-8"?><!DOCTYPE svg PUBLIC "-//W3C//DTD SVG 1.1//EN" "http://www.w3.org/Graphics/SVG/1.1/DTD/svg11.dtd"><svg version="1.1" id="Contours" xmlns="http://www.w3.org/2000/svg" xmlns:xlink="http://www.w3.org/1999/xlink" x="0px" y="0px" width="1095.968506px" height="1095.968506px" viewBox="-0.000007 -0.000006 1095.968506 1472.402344" enable-background="new 0 0 1095.968506 1095.968506" xml:space="preserve" stroke="black" fill="none" stroke-linecap='round' stroke-linejoin='round'><path class="selected"  fill="#000000" opacity="1.000000" stroke="none" 
 	d="
M745.231937 352.465447 C737.825554 339.398210 748.178196 320.205009 763.165888 319.216938 C771.778208 318.649165 779.851425 323.034269 787.364137 327.283218 C823.644190 347.802057 859.924243 368.320894 896.204296 388.839732 C904.264240 393.398179 912.824664 398.487789 916.643680 406.923265 C922.290917 419.396917 913.018566 436.056549 899.441502 437.830422 C890.055065 439.056781 881.054634 434.232498 872.816776 429.569155 C836.377160 408.941173 799.937545 388.313191 763.497930 367.685209 C756.510916 363.729953 749.190914 359.450354 745.231937 352.465447 z"/><path class="selected"  fill="#000000" opacity="1.000000" stroke="none" 
 	d="
M952.486742 268.657712 C959.339033 272.758508 963.626818 280.806245 963.208255 288.780907 C962.789692 296.755569 957.682991 304.310221 950.439059 307.671154 C944.626151 310.368142 937.981946 310.414404 931.573858 310.411182 C885.581760 310.388058 839.589662 310.364933 793.597565 310.341809 C784.252563 310.337111 774.218731 310.121142 766.637469 304.657302 C754.379810 295.823174 755.750401 273.946304 769.014802 266.711133 C775.701300 263.063930 783.698316 263.043803 791.314504 263.114024 C837.457852 263.539463 883.601200 263.964901 929.744548 264.390340 C937.554342 264.462346 945.785052 264.647049 952.486740 268.657715 z"/><path class="selected"  fill="#000000" opacity="1.000000" stroke="none" 
 	d="
M898.662741 135.902271 C911.246115 138.128614 919.860795 153.032433 915.509212 165.047492 C912.011925 174.703770 902.461773 180.583950 893.563726 185.712249 C857.527502 206.481363 821.491278 227.250477 785.455054 248.019592 C776.875443 252.964364 767.467321 258.085498 757.654571 256.754928 C742.369355 254.682319 733.340186 234.002137 742.210778 221.382861 C745.978750 216.022554 751.839042 212.585306 757.515375 209.312741 C794.971035 187.718507 832.426693 166.124273 869.882352 144.530039 C878.749485 139.417889 888.584034 134.119074 898.662741 135.902273 z"/><path class="selected"  fill="#000000" opacity="1.000000" stroke="none" 
 	d="
M119.072126 1466.402380 C111.318358 1472.210087 100.869045 1472.425269 91.181434 1472.400844 C71.495704 1472.351212 51.809973 1472.301580 32.124242 1472.251948 C23.156109 1472.229338 13.103275 1471.759786 6.973083 1465.213896 C1.411296 1459.274955 0.995266 1450.318046 0.892856 1442.182076 C0.603865 1419.222758 0.314872 1396.263441 0.025880 1373.304124 C-0.078364 1365.022344 -0.065850 1356.273637 4.110225 1349.121075 C8.287415 1341.966599 16.581483 1337.423305 24.859487 1337.755118 C33.137490 1338.086930 41.041309 1343.279494 44.632466 1350.745353 C47.645468 1357.009251 47.665238 1364.238830 47.625437 1371.189585 C47.537183 1386.602363 47.448929 1402.015140 47.360675 1417.427918 C47.340680 1420.919874 48.460660 1425.626715 51.952013 1425.558786 C65.202811 1425.300970 78.453609 1425.043155 91.704407 1424.785339 C100.749826 1424.609346 110.423325 1424.605505 117.974668 1429.588254 C129.973761 1437.505846 130.578271 1457.784075 119.072127 1466.402379 z"/><path class="selected"  fill="#000000" opacity="1.000000" stroke="none" 
 	d="
M1066.251295 1472.235977 C1044.862769 1472.227805 1023.474243 1472.219633 1002.085716 1472.211462 C994.244661 1472.208466 985.992646 1472.101046 979.196527 1468.190174 C966.402203 1460.827595 965.003808 1439.763639 976.712562 1430.774348 C984.770541 1424.587905 995.803781 1424.532325 1005.960374 1424.748495 C1018.159694 1425.008142 1030.359013 1425.267789 1042.558333 1425.527435 C1044.349273 1425.565553 1046.387714 1425.500605 1047.566924 1424.152130 C1048.545251 1423.033373 1048.587242 1421.401940 1048.578031 1419.915786 C1048.482533 1404.507815 1048.387034 1389.099844 1048.291536 1373.691874 C1048.236456 1364.805171 1048.346030 1355.332102 1053.229390 1347.907190 C1061.497521 1335.335900 1083.168713 1335.476170 1091.273419 1348.153435 C1096.001983 1355.549784 1096.050315 1364.894605 1095.945104 1373.672659 C1095.679628 1395.821965 1095.414154 1417.971269 1095.148680 1440.120574 C1095.025751 1450.376958 1094.117102 1462.221457 1085.762380 1468.171847 C1080.257983 1472.092181 1073.009061 1472.238559 1066.251295 1472.235978 z"/><path class="selected"  fill="#000000" opacity="1.000000" stroke="none" 
 	d="
M976.168826 41.312985 C965.233179 32.282502 966.460441 12.471604 978.427052 4.859889 C985.631081 0.277554 994.694450 0.139407 1003.232353 0.146305 C1023.228813 0.162460 1043.225273 0.178615 1063.221734 0.194770 C1072.272806 0.202082 1082.375162 0.629779 1088.693283 7.110775 C1094.764586 13.338590 1095.186112 22.973261 1095.242693 31.670570 C1095.398939 55.687607 1095.555184 79.704644 1095.711430 103.721681 C1095.745369 108.938557 1095.760818 114.273736 1094.056708 119.204554 C1091.071342 127.842666 1082.522295 134.257224 1073.393991 134.708292 C1064.265687 135.159360 1055.125891 129.618884 1051.303456 121.317174 C1048.518622 115.268966 1048.478109 108.367132 1048.488103 101.708603 C1048.512759 85.279848 1048.537416 68.851093 1048.562073 52.422338 C1048.568900 47.873123 1042.380383 46.570476 1037.834134 46.734865 C1027.733302 47.100113 1017.632471 47.465357 1007.531640 47.830601 C996.606922 48.225637 984.598124 48.273765 976.168826 41.312985 z"/><path class="selected"  fill="#000000" opacity="1.000000" stroke="none" 
 	d="
M31.619243 0.316679 C51.254282 0.212891 70.889321 0.109104 90.524360 0.005316 C100.671852 -0.048322 111.691958 0.184180 119.637502 6.496295 C130.757913 15.330593 129.811544 35.234361 117.903102 42.973701 C110.440375 47.823756 100.941853 47.834186 92.042862 47.681644 C78.533482 47.450072 65.024102 47.218500 51.514723 46.986928 C48.396401 46.933475 47.395240 51.131962 47.407064 54.250719 C47.465999 69.795493 47.524935 85.340267 47.583870 100.885042 C47.611835 108.261296 47.562757 115.971850 44.157321 122.515008 C40.401775 129.730864 32.549232 134.626931 24.416938 134.823153 C16.284645 135.019375 8.205105 130.507729 4.105913 123.481398 C-0.043854 116.368384 -0.062011 107.671544 0.035569 99.437103 C0.308604 76.396764 0.581636 53.356426 0.854668 30.316089 C0.951801 22.119340 1.378671 13.071568 7.045979 7.148921 C13.095010 0.827358 22.869913 0.362926 31.619243 0.316677 z"/><path class="selected"  fill="#000000" opacity="1.000000" stroke="none" 
 	d="
M992.762047 308.860553 C983.773806 306.398020 976.776126 297.912143 976.070662 288.619411 C975.365198 279.326680 981.001645 269.881675 989.515130 266.090487 C994.362520 263.931869 999.781666 263.533374 1005.075170 263.165078 C1017.249972 262.318016 1030.930849 261.965828 1039.916258 270.224505 C1045.254054 275.130584 1047.981802 282.727902 1046.983732 289.908816 C1045.985662 297.089730 1041.289439 303.655195 1034.816029 306.919644 C1030.148535 309.273395 1024.822712 309.931247 1019.604773 310.245498 C1012.926727 310.647685 1006.218416 310.546383 999.555560 309.942737 C997.268772 309.735559 994.976592 309.467277 992.762047 308.860552 z"/><path class="selected"  fill="#000000" opacity="1.000000" stroke="none" 
 	d="
M942.843888 151.503747 C934.052379 151.228045 925.698951 145.288147 922.551827 137.074605 C919.404702 128.861064 921.650167 118.860063 928.006488 112.780274 C929.979612 110.892989 932.276169 109.383127 934.558512 107.884475 C936.264472 106.764292 937.970432 105.644110 939.676391 104.523927 C949.040103 98.375442 959.698809 91.948081 970.690920 94.105969 C982.127283 96.351069 990.318794 109.109509 987.600310 120.442678 C984.983907 131.350294 974.651873 138.390817 964.924544 143.976575 C958.089872 147.901273 950.721383 151.750783 942.843888 151.503744 z"/><path class="selected"  fill="#000000" opacity="1.000000" stroke="none" 
 	d="
M942.046401 421.179634 C951.540574 419.611150 960.803745 424.420699 969.196952 429.127452 C976.945010 433.472417 985.115467 438.331897 988.966254 446.337055 C992.027427 452.700734 991.770413 460.553497 988.299681 466.703392 C984.828949 472.853287 978.239362 477.132223 971.209424 477.800920 C963.484059 478.535768 956.002761 475.189273 949.089329 471.664260 C938.300641 466.163337 926.794459 458.649593 924.392602 446.780010 C922.097714 435.439069 930.630334 423.065624 942.046399 421.179634 z"/><path class="selected"  fill="#000000" opacity="1.000000" stroke="none" 
 	d="
M434.116879 872.526254 C418.411983 833.719325 424.059133 787.016694 448.561016 753.071456 C473.062899 719.126217 515.610800 699.058776 557.388951 701.743466 C599.167103 704.428157 638.796565 729.776367 658.752179 766.578472 C678.707793 803.380577 678.330900 850.421879 657.788170 886.899512 C620.926799 952.354091 584.872877 1018.263395 549.637378 1084.607367 C515.546269 1022.738675 481.455160 960.869983 447.364052 899.001291 C442.598633 890.352992 437.821117 881.679446 434.116883 872.526253 M613.864765 816.863475 C610.022434 790.256463 588.036947 767.260980 561.629214 762.228265 C535.221481 757.195549 506.319381 770.493011 492.960410 793.821845 C479.285560 817.702298 483.020227 850.285625 501.743748 870.452611 C520.467269 890.619597 552.684095 896.759394 577.512561 884.892430 C602.341027 873.025466 617.797949 844.099621 613.864765 816.863475 z"/><path class="selected"  fill="#000000" opacity="1.000000" stroke="none" 
 	d="
M616.370435 180.000639 C627.272821 180.017069 639.288480 180.446626 647.304956 187.835698 C654.080919 194.081348 656.236211 203.749639 658.048205 212.785041 C663.856093 241.745759 669.663982 270.706477 675.471872 299.667194 C680.859392 326.531772 688.284520 356.436928 711.665059 370.722633 C775.851795 409.941264 817.454902 483.671165 817.841133 558.890105 C819.158528 815.454446 820.475924 1072.018786 821.793319 1328.583127 C821.839982 1337.670814 821.078287 1348.342643 813.446669 1353.276876 C809.156417 1356.050737 803.738681 1356.193735 798.630101 1356.248213 C634.904542 1357.994150 471.178983 1359.740090 307.453425 1361.486030 C301.699563 1361.547389 295.659531 1361.541508 290.599866 1358.800982 C279.941822 1353.028140 278.543521 1338.569274 278.467515 1326.448472 C276.806747 1061.589909 275.145973 796.731347 273.485199 531.872786 C273.406618 519.340750 273.498697 506.129801 279.770417 495.279750 C308.069980 446.321617 344.660767 402.169884 387.513720 365.272886 C397.935958 356.299192 401.342650 341.834672 404.175680 328.376433 C412.624879 288.238613 421.074086 248.100796 429.523292 207.962979 C431.123441 200.361500 432.988966 192.267790 438.616444 186.912936 C445.731644 180.142432 456.604783 179.759878 466.426472 179.774679 C516.407793 179.849999 566.389114 179.925319 616.370435 180.000639 M321.752486 534.221530 C320.207110 536.239345 320.156066 538.989314 320.171331 541.530875 C321.441124 752.953205 322.710916 964.375535 323.980709 1175.797865 C335.718453 1160.896975 359.011467 1156.714827 375.199740 1166.601737 C391.388012 1176.488647 398.304235 1199.120941 390.407828 1216.367910 C399.481766 1203.584242 421.504977 1208.958391 429.632402 1222.363743 C437.759826 1235.769096 436.130481 1252.702150 433.928980 1268.223487 C431.727479 1283.744823 429.390972 1300.410910 436.442406 1314.412188 C534.821875 1313.361862 633.201344 1312.311537 731.580814 1311.261211 C734.457665 1311.230496 738.304588 1310.278296 738.263717 1307.401571 C738.017180 1290.049444 760.004776 1276.833344 775.212634 1285.192658 C773.630542 1036.846421 772.048450 788.500184 770.466358 540.153947 C770.440358 536.072751 770.325084 531.701153 767.955738 528.378046 C763.058450 521.509395 751.357329 523.927801 746.444982 530.785691 C741.532636 537.643581 741.441995 546.721059 741.542820 555.156202 C742.019756 595.057367 742.496693 634.958532 742.973630 674.859697 C743.208501 694.509281 741.481033 717.866461 724.575868 727.885278 C710.304124 736.343403 690.482512 729.942318 680.560644 716.646488 C670.638777 703.350657 669.252628 685.232847 672.789894 669.024507 C668.552919 682.750796 646.841001 682.477276 637.623862 671.458777 C628.406722 660.440279 628.214697 644.701441 628.481604 630.338582 C629.061973 599.107697 629.642342 567.876811 630.222710 536.645926 C630.346972 529.959152 621.312492 527.847366 614.624992 527.923093 C520.204301 528.992358 425.783614 530.061614 331.362926 531.130870 C327.872425 531.170398 323.874956 531.450198 321.752486 534.221530 M748.719179 480.934914 C710.481863 407.461300 629.051141 358.628445 546.227846 359.503722 C463.404550 360.378998 383.024030 410.921873 346.348019 485.187172 C480.472409 483.833417 614.596853 482.479661 748.719179 480.934915 M616.251673 231.752863 C615.683955 229.162905 614.953006 226.321996 612.761922 224.828899 C611.031697 223.649856 608.795731 223.607009 606.701975 223.605842 C563.305261 223.581675 519.908547 223.557505 476.511834 223.533335 C472.466756 223.531082 470.536429 228.417113 469.685562 232.371691 C462.582836 265.383163 455.480106 298.394632 448.377377 331.406101 C507.979169 307.576301 576.089836 305.729417 636.895430 326.294261 C630.039526 294.774934 623.158271 263.261121 616.251672 231.752863 z"/></svg>