<?xml version="1.0" encoding="utf-8"?>
<!-- Generator: Adobe Illustrator 16.0.0, SVG Export Plug-In . SVG Version: 6.00 Build 0)  -->
<!DOCTYPE svg PUBLIC "-//W3C//DTD SVG 1.1//EN" "http://www.w3.org/Graphics/SVG/1.1/DTD/svg11.dtd">
<svg version="1.1" id="Contours" xmlns="http://www.w3.org/2000/svg" xmlns:xlink="http://www.w3.org/1999/xlink" x="0px" y="0px"
	 width="1095.969px" height="1095.969px" viewBox="0 0 1095.969 1095.969" enable-background="new 0 0 1095.969 1095.969"
	 xml:space="preserve">
<path fill="#FFFFFF" d="M694.803,262.354c-5.513-9.727,2.193-24.013,13.35-24.749c6.41-0.422,12.42,2.841,18.012,6.004
	c27.005,15.273,54.009,30.546,81.014,45.819c6,3.393,12.371,7.181,15.214,13.46c4.204,9.284-2.698,21.685-12.804,23.005
	c-6.987,0.913-13.687-2.678-19.818-6.149c-27.123-15.354-54.247-30.708-81.37-46.063
	C703.199,270.739,697.751,267.553,694.803,262.354z"/>
<path fill="#FFFFFF" d="M849.072,199.973c5.101,3.053,8.292,9.043,7.98,14.979c-0.312,5.936-4.112,11.559-9.505,14.061
	c-4.326,2.007-9.272,2.042-14.042,2.04c-34.233-0.018-68.468-0.035-102.701-0.052c-6.956-0.003-14.425-0.164-20.067-4.231
	c-9.124-6.575-8.104-22.859,1.77-28.245c4.977-2.715,10.93-2.73,16.599-2.678c34.346,0.317,68.692,0.633,103.039,0.95
	C837.957,196.85,844.084,196.987,849.072,199.973z"/>
<path fill="#FFFFFF" d="M809.009,101.158c9.366,1.657,15.778,12.75,12.54,21.694c-2.604,7.188-9.712,11.564-16.335,15.381
	c-26.823,15.459-53.646,30.919-80.47,46.378c-6.387,3.681-13.39,7.493-20.693,6.502c-11.377-1.543-18.099-16.936-11.495-26.329
	c2.805-3.99,7.166-6.548,11.392-8.984c27.88-16.073,55.76-32.147,83.64-48.22C794.186,103.774,801.507,99.83,809.009,101.158z"/>
<path fill="#FFFFFF" d="M228.727,1091.503c-5.771,4.322-13.549,4.482-20.76,4.465c-14.653-0.037-29.306-0.074-43.959-0.111
	c-6.675-0.017-14.158-0.366-18.721-5.238c-4.14-4.421-4.449-11.088-4.525-17.144c-0.216-17.09-0.431-34.18-0.646-51.269
	c-0.078-6.165-0.068-12.677,3.04-18.001c3.109-5.325,9.283-8.707,15.444-8.46c6.162,0.247,12.045,4.112,14.718,9.669
	c2.243,4.663,2.258,10.044,2.228,15.218c-0.065,11.473-0.131,22.944-0.196,34.417c-0.016,2.6,0.818,6.103,3.417,6.052
	c9.863-0.191,19.727-0.384,29.59-0.575c6.732-0.131,13.933-0.134,19.554,3.575C236.843,1069.993,237.292,1085.088,228.727,1091.503z
	"/>
<path fill="#FFFFFF" d="M933.752,1095.845c-15.921-0.006-31.841-0.013-47.761-0.019c-5.837-0.002-11.979-0.082-17.038-2.993
	c-9.523-5.48-10.563-21.159-1.849-27.85c5.998-4.605,14.21-4.646,21.771-4.485c9.08,0.193,18.161,0.387,27.241,0.579
	c1.333,0.029,2.851-0.02,3.729-1.023c0.728-0.833,0.759-2.047,0.752-3.153c-0.071-11.469-0.142-22.938-0.213-34.406
	c-0.041-6.614,0.04-13.666,3.676-19.192c6.154-9.357,22.284-9.253,28.317,0.184c3.52,5.505,3.556,12.461,3.478,18.994
	c-0.198,16.487-0.396,32.974-0.593,49.46c-0.092,7.635-0.769,16.451-6.987,20.88
	C944.177,1095.737,938.782,1095.847,933.752,1095.845z"/>
<path fill="#FFFFFF" d="M866.7,30.751c-8.141-6.722-7.227-21.468,1.681-27.134c5.362-3.411,12.108-3.514,18.464-3.508
	c14.884,0.012,29.768,0.024,44.652,0.036c6.736,0.005,14.256,0.324,18.959,5.148c4.52,4.636,4.833,11.807,4.875,18.281
	c0.116,17.877,0.232,35.753,0.35,53.63c0.024,3.883,0.036,7.854-1.232,11.524c-2.222,6.43-8.585,11.205-15.38,11.54
	c-6.795,0.336-13.598-3.788-16.442-9.967c-2.073-4.502-2.104-9.639-2.096-14.595c0.018-12.229,0.036-24.458,0.055-36.686
	c0.005-3.386-4.602-4.356-7.985-4.233c-7.519,0.272-15.037,0.544-22.556,0.815C881.913,35.896,872.973,35.932,866.7,30.751z"/>
<path fill="#FFFFFF" d="M163.633,0.236c14.615-0.078,29.23-0.155,43.846-0.232c7.554-0.04,15.756,0.133,21.67,4.832
	c8.277,6.576,7.573,21.391-1.291,27.152c-5.555,3.61-12.625,3.618-19.248,3.504c-10.056-0.172-20.111-0.345-30.167-0.517
	c-2.321-0.04-3.066,3.085-3.058,5.407c0.044,11.571,0.088,23.142,0.132,34.712c0.021,5.49-0.016,11.229-2.551,16.1
	c-2.796,5.371-8.641,9.015-14.693,9.162c-6.054,0.146-12.067-3.212-15.118-8.442c-3.089-5.294-3.103-11.768-3.03-17.897
	c0.203-17.15,0.406-34.3,0.609-51.45c0.073-6.101,0.391-12.836,4.609-17.244C149.844,0.616,157.121,0.27,163.633,0.236z"/>
<path fill="#FFFFFF" d="M879.051,229.897c-6.69-1.833-11.899-8.149-12.424-15.066c-0.525-6.917,3.67-13.947,10.007-16.769
	c3.608-1.607,7.642-1.903,11.582-2.178c9.063-0.63,19.246-0.893,25.934,5.255c3.974,3.652,6.004,9.307,5.261,14.652
	c-0.743,5.345-4.238,10.232-9.057,12.662c-3.475,1.752-7.438,2.242-11.322,2.476c-4.971,0.299-9.964,0.224-14.924-0.225
	C882.405,230.549,880.699,230.349,879.051,229.897z"/>
<path fill="#FFFFFF" d="M841.894,112.771c-6.544-0.206-12.762-4.626-15.104-10.74c-2.342-6.114-0.671-13.558,4.061-18.083
	c1.469-1.405,3.178-2.528,4.877-3.644c1.27-0.834,2.54-1.667,3.81-2.501c6.97-4.577,14.903-9.361,23.085-7.754
	c8.513,1.671,14.61,11.168,12.587,19.604c-1.948,8.119-9.639,13.359-16.879,17.517C853.243,110.089,847.758,112.954,841.894,112.771
	L841.894,112.771z"/>
<path fill="#FFFFFF" d="M841.301,313.501c7.067-1.167,13.962,2.413,20.21,5.916c5.767,3.234,11.849,6.851,14.715,12.81
	c2.278,4.737,2.087,10.582-0.496,15.16c-2.584,4.578-7.488,7.763-12.721,8.26c-5.751,0.547-11.319-1.944-16.465-4.568
	c-8.031-4.094-16.596-9.687-18.383-18.522C826.452,324.115,832.803,314.905,841.301,313.501z"/>
<path fill="#FFFFFF" d="M463.228,649.456c-11.689-28.885-7.486-63.647,10.751-88.914c18.238-25.268,49.908-40.204,81.006-38.206
	c31.097,1.998,60.595,20.866,75.448,48.26c14.854,27.393,14.573,62.407-0.718,89.56c-27.438,48.721-54.273,97.779-80.501,147.162
	c-25.375-46.052-50.75-92.104-76.126-138.154C469.542,662.726,465.985,656.27,463.228,649.456 M597.022,608.024
	c-2.86-19.805-19.225-36.921-38.881-40.667s-41.17,6.151-51.113,23.517c-10.179,17.774-7.398,42.028,6.538,57.039
	s37.917,19.581,56.397,10.748S599.95,628.298,597.022,608.024z"/>
<path fill="#FFFFFF" d="M598.887,133.982c8.115,0.012,17.059,0.332,23.025,5.832c5.044,4.649,6.648,11.846,7.997,18.571
	c4.322,21.557,8.646,43.113,12.969,64.67c4.01,19.997,9.537,42.256,26.94,52.89c47.776,29.192,78.743,84.072,79.031,140.061
	c0.98,190.971,1.961,381.943,2.941,572.914c0.034,6.765-0.532,14.708-6.213,18.381c-3.193,2.064-7.226,2.171-11.028,2.212
	c-121.868,1.299-243.735,2.599-365.603,3.898c-4.283,0.046-8.779,0.041-12.545-1.999c-7.934-4.297-8.975-15.059-9.031-24.081
	c-1.235-197.145-2.472-394.29-3.708-591.435c-0.059-9.328,0.01-19.162,4.679-27.238c21.064-36.441,48.3-69.306,80.197-96.77
	c7.758-6.679,10.293-17.446,12.402-27.463c6.289-29.876,12.578-59.752,18.867-89.628c1.191-5.658,2.579-11.683,6.769-15.668
	c5.296-5.04,13.39-5.324,20.7-5.313C524.481,133.87,561.684,133.926,598.887,133.982 M379.591,397.643
	c-1.149,1.502-1.188,3.549-1.177,5.441c0.945,157.37,1.891,314.74,2.836,472.11c8.736-11.091,26.074-14.204,38.124-6.845
	s17.198,24.205,11.32,37.043c6.754-9.516,23.146-5.515,29.196,4.463c6.05,9.979,4.837,22.582,3.198,34.136
	c-1.639,11.553-3.378,23.958,1.871,34.38c73.228-0.782,146.455-1.563,219.684-2.346c2.141-0.022,5.004-0.731,4.974-2.873
	c-0.184-12.915,16.183-22.753,27.503-16.53c-1.178-184.854-2.355-369.709-3.533-554.563c-0.02-3.038-0.104-6.292-1.868-8.766
	c-3.646-5.112-12.355-3.313-16.012,1.792c-3.656,5.104-3.724,11.861-3.648,18.14c0.354,29.7,0.71,59.4,1.064,89.1
	c0.175,14.626-1.11,32.012-13.694,39.469c-10.623,6.296-25.377,1.531-32.762-8.365c-7.386-9.896-8.417-23.382-5.784-35.446
	c-3.154,10.217-19.315,10.013-26.176,1.812s-7.004-19.917-6.805-30.607c0.432-23.246,0.864-46.493,1.296-69.739
	c0.093-4.977-6.633-6.549-11.61-6.493c-70.281,0.796-140.563,1.592-210.843,2.388C384.146,395.372,381.171,395.58,379.591,397.643
	 M697.399,357.979c-28.461-54.689-89.073-91.038-150.722-90.386c-61.649,0.651-121.479,38.272-148.779,93.551
	C497.733,360.137,597.567,359.129,697.399,357.979 M598.799,172.503c-0.423-1.928-0.967-4.042-2.598-5.154
	c-1.288-0.877-2.952-0.91-4.511-0.91c-32.302-0.018-64.604-0.036-96.905-0.054c-3.011-0.001-4.448,3.635-5.081,6.579
	c-5.287,24.571-10.574,49.144-15.86,73.715c44.363-17.737,95.062-19.112,140.321-3.805
	C609.061,219.413,603.939,195.956,598.799,172.503z"/>
</svg>
