<svg width="178" height="250" viewBox="0 0 178 250" fill="none" xmlns="http://www.w3.org/2000/svg">
<path d="M19.0945 249.464C18.1131 249.904 17.0002 249.913 15.9244 249.914C12.574 249.918 9.22361 249.921 5.8732 249.925C3.99357 249.927 1.79015 249.764 0.766885 248.188C0.186905 247.295 0.156563 246.166 0.144834 245.102C0.101841 241.2 0.0588472 237.298 0.0158535 233.396C0.000671591 232.018 0.00502466 230.562 0.701927 229.373C1.39162 228.197 2.75085 227.444 4.11506 227.484C5.47926 227.525 6.79193 228.355 7.41127 229.57C7.96403 230.655 7.96804 231.926 7.95996 233.143C7.94283 235.722 7.9257 238.3 7.90857 240.879C7.90504 241.411 8.07522 242.128 8.60753 242.118C10.8636 242.075 13.1197 242.033 15.3758 241.991C16.7714 241.964 18.2472 241.958 19.4533 242.66C20.6636 243.364 21.4259 244.774 21.3522 246.171C21.2785 247.569 20.3721 248.89 19.0945 249.464Z" fill="white"/>
<path d="M15.5303 0.027089C16.9097 0.0278842 18.3682 0.0497534 19.5463 0.766828C20.6377 1.43109 21.3483 2.67885 21.3624 3.9556C21.3766 5.23236 20.6937 6.49552 19.6174 7.18373C18.366 7.98384 16.7821 7.98139 15.2967 7.95265C13.0927 7.91 10.8887 7.86734 8.68477 7.82469C8.10055 7.81339 7.91257 8.5999 7.91516 9.18374C7.92611 11.6526 7.93705 14.1215 7.948 16.5903C7.95436 18.0252 7.93571 19.5506 7.16045 20.7585C5.87679 22.7583 2.53645 22.9219 1.06328 21.0569C0.00985003 19.7234 -0.0170041 17.8766 0.00386109 16.1778C0.0486196 12.5338 0.0933776 8.88968 0.138135 5.24561C0.154981 3.87413 0.218576 2.37467 1.12532 1.34492C2.21171 0.111133 4.07082 0.0204825 5.7155 0.0214306C8.98709 0.0233168 12.2587 0.0252028 15.5303 0.0270889V0.027089Z" fill="white"/>
<path d="M89.7703 34.521C91.1681 35.38 91.6661 37.1362 92.0509 38.7302C93.7151 45.6248 95.3793 52.5195 97.0435 59.4141C98.0147 63.4376 101.489 66.2711 104.606 68.9967C110.48 74.1327 115.952 80.2648 117.917 87.8129C118.927 91.6931 118.955 95.7516 118.978 99.7609C119.216 142.039 119.453 184.318 119.691 226.596C119.697 227.709 119.653 228.95 118.864 229.735C118.095 230.498 116.894 230.557 115.81 230.568C88.6004 230.854 61.3909 231.14 34.1814 231.426C32.5756 231.443 30.7206 231.344 29.754 230.063C29.0934 229.187 29.0591 228.006 29.052 226.909C28.7628 182.314 28.4736 137.719 28.1843 93.1235C28.1711 91.0833 28.1848 88.9348 29.1966 87.1627C33.9203 78.8897 40.1026 71.4508 47.3735 65.2912C49.0162 63.8996 49.516 61.6149 49.9197 59.5012C51.2778 52.3909 52.6359 45.2807 53.9939 38.1704C54.5541 35.2379 58.3691 34.5201 61.3563 34.4563C69.6611 34.279 77.9658 34.1016 86.2705 33.9242C87.4711 33.8986 88.7474 33.8924 89.7703 34.521ZM111.094 92.4286C86.0561 92.3366 61.0173 92.6115 35.9878 93.2531C36.2455 136.241 36.5031 179.229 36.7608 222.218C36.7633 222.635 36.78 223.093 37.0553 223.408C37.3893 223.789 37.9651 223.812 38.4724 223.806C62.9614 223.517 87.4503 223.228 111.939 222.94C111.657 179.436 111.376 135.932 111.094 92.4286ZM40.2666 85.3683C61.6957 85.143 83.1248 84.9177 104.554 84.6924C105.486 84.6826 106.419 84.6727 107.351 84.6323C101.133 72.3113 87.4689 64.195 73.6606 64.4142C59.8522 64.6334 46.5372 73.0739 40.2666 85.3683ZM61.0183 43.5048C59.9757 48.8501 58.9331 54.1954 57.8905 59.5406C67.725 55.7368 78.8977 55.4986 88.8856 58.8798C87.5658 53.5577 86.2459 48.2355 84.9261 42.9134C84.8297 42.5249 84.7053 42.0968 84.3624 41.8899C84.1152 41.7407 83.8087 41.7427 83.52 41.7491C76.4913 41.906 69.4626 42.0629 62.4338 42.2198C62.1278 42.2267 61.8026 42.2393 61.5493 42.4112C61.2046 42.6451 61.098 43.0961 61.0183 43.5048Z" fill="white"/>
<path d="M73.7324 180.556C67.2476 171.147 62.358 164.543 56.6708 154.225C55.9171 152.858 55.1617 151.487 54.567 150.043C51.6753 143.025 53.0483 134.44 57.9848 128.671C62.0989 123.863 68.5101 121.111 74.832 121.442C81.1539 121.773 87.2437 125.181 90.8251 130.397C94.4065 135.613 95.3971 142.518 93.4224 148.528C92.6192 150.973 91.3678 153.242 90.1238 155.495C84.66 165.389 80.0268 171.035 73.7324 180.556ZM84.1487 139.034C82.8451 134.766 78.6673 131.542 74.2049 131.36C69.7425 131.178 65.316 134.052 63.669 138.2C62.022 142.348 63.2728 147.472 66.6462 150.397C70.0196 153.321 75.2733 153.836 79.1508 151.621C83.3863 149.203 85.5726 143.697 84.1487 139.034Z" fill="white"/>
<path d="M127.3 45.763C128.139 46.4372 128.669 47.7965 128.619 49.1449C128.569 50.4933 127.938 51.6332 127.053 52.1826C126.376 52.603 125.609 52.6086 124.868 52.6069C119.32 52.5946 113.775 52.7179 108.226 52.7056C107.335 52.7036 106.402 52.6877 105.617 52.0994C104.692 51.4071 104.109 49.9164 104.193 48.4585C104.276 47.0006 105.021 45.6572 106.012 45.1773C106.598 44.8932 107.234 44.8971 107.855 44.9042C113.455 44.9678 119.055 45.0314 124.655 45.0949C125.562 45.1052 126.514 45.1322 127.3 45.763Z" fill="white"/>
<path d="M136.787 52.7306C135.992 52.7246 135.18 52.7156 134.429 52.4402C133.18 51.9824 132.216 50.7553 132.022 49.3766C131.828 47.9978 132.412 46.5283 133.48 45.7076C134.607 44.8424 136.086 44.7292 137.479 44.6892C139.027 44.6448 140.697 44.6916 141.94 45.6649C142.957 46.4606 143.532 47.8419 143.401 49.1697C143.269 50.4975 142.434 51.7232 141.283 52.2795C140.313 52.7486 139.206 52.749 138.138 52.7409C137.688 52.7375 137.237 52.7341 136.787 52.7306Z" fill="white"/>
<path d="M150.172 52.7306C149.61 52.7246 149.037 52.7156 148.507 52.4402C147.626 51.9824 146.945 50.7553 146.808 49.3766C146.671 47.9978 147.083 46.5283 147.838 45.7076C148.633 44.8424 149.677 44.7292 150.66 44.6892C151.753 44.6448 152.931 44.6916 153.809 45.6649C154.527 46.4606 154.933 47.8419 154.84 49.1697C154.747 50.4975 154.158 51.7232 153.346 52.2795C152.661 52.7486 151.879 52.749 151.125 52.7409C150.807 52.7375 150.49 52.7341 150.172 52.7306Z" fill="white"/>
<path d="M128.404 65.8999C128.913 66.8482 128.869 68.3068 128.296 69.5289C127.722 70.7509 126.695 71.5542 125.666 71.7148C124.878 71.8377 124.17 71.5435 123.489 71.2528C118.387 69.0758 113.234 67.0249 108.132 64.8479C107.313 64.4982 106.46 64.1193 105.967 63.2712C105.388 62.2729 105.434 60.6728 106.081 59.3628C106.728 58.0529 107.939 57.1066 109.039 57.0515C109.69 57.0189 110.274 57.2705 110.843 57.5194C115.972 59.7638 121.102 62.0082 126.232 64.2525C127.062 64.6158 127.928 65.0124 128.404 65.8999Z" fill="white"/>
<path d="M134.412 76.0204C133.683 75.7045 132.939 75.3794 132.355 74.8327C131.385 73.9239 130.978 72.418 131.339 71.0728C131.7 69.7276 132.812 68.6025 134.117 68.2639C135.492 67.9069 136.898 68.3801 138.196 68.8869C139.638 69.4502 141.156 70.1449 141.92 71.5262C142.544 72.6556 142.533 74.152 141.893 75.323C141.252 76.4941 140.004 77.2969 138.727 77.3599C137.651 77.4131 136.631 76.9813 135.652 76.5573C135.239 76.3783 134.826 76.1994 134.412 76.0204Z" fill="white"/>
<path d="M146.733 81.2459C146.219 81.0213 145.695 80.7893 145.315 80.3289C144.683 79.5634 144.536 78.1682 144.95 76.8453C145.363 75.5225 146.317 74.3305 147.332 73.8692C148.403 73.3829 149.408 73.6863 150.329 74.0332C151.352 74.4187 152.418 74.9218 152.845 76.1603C153.194 77.1729 153.028 78.6033 152.423 79.7894C151.818 80.9755 150.796 81.8741 149.831 82.0692C149.017 82.2338 148.297 81.9291 147.607 81.6276C147.316 81.5003 147.024 81.3731 146.733 81.2459Z" fill="white"/>
<path d="M126.098 26.093C127.134 26.3862 128.154 27.4308 128.635 28.692C129.117 29.9532 128.982 31.2492 128.382 32.1005C127.924 32.7518 127.22 33.0561 126.538 33.3439C121.426 35.4981 116.37 37.7761 111.258 39.9304C110.437 40.2765 109.572 40.626 108.619 40.3908C107.498 40.114 106.378 38.969 105.884 37.5941C105.39 36.2191 105.55 34.6914 106.275 33.8627C106.703 33.3721 107.29 33.1277 107.864 32.8918C113.044 30.7645 118.223 28.6373 123.403 26.51C124.241 26.1657 125.128 25.8187 126.098 26.093Z" fill="white"/>
<path d="M137.558 28.8033C136.824 29.1081 136.073 29.4167 135.274 29.4563C133.946 29.522 132.578 28.7685 131.86 27.5748C131.142 26.3812 131.105 24.8003 131.767 23.6277C132.465 22.3916 133.783 21.7098 135.049 21.1293C136.457 20.4843 138.011 19.8759 139.537 20.2867C140.784 20.6225 141.854 21.6697 142.252 22.9437C142.65 24.2176 142.361 25.6718 141.52 26.6332C140.81 27.4438 139.791 27.8763 138.806 28.2855C138.39 28.4581 137.974 28.6307 137.558 28.8033Z" fill="white"/>
<path d="M149.879 23.5776C149.36 23.7911 148.829 24.0065 148.233 23.9598C147.243 23.8823 146.136 23.0181 145.471 21.8022C144.805 20.5864 144.61 19.0726 144.983 18.0226C145.376 16.9158 146.293 16.4039 147.183 15.9834C148.171 15.516 149.274 15.0993 150.462 15.6528C151.434 16.1053 152.348 17.2185 152.782 18.4773C153.216 19.7361 153.153 21.0944 152.623 21.9236C152.176 22.6228 151.457 22.9282 150.76 23.2148C150.466 23.3357 150.173 23.4566 149.879 23.5776Z" fill="white"/>
<path d="M161.674 249.907C160.571 249.908 159.428 249.901 158.426 249.442C157.108 248.839 156.198 247.434 156.186 245.985C156.175 244.536 157.063 243.118 158.372 242.494C159.431 241.989 160.653 241.994 161.827 242.01C164.199 242.042 166.571 242.074 168.943 242.106C169.473 242.113 169.641 241.401 169.639 240.872C169.627 238.312 169.615 235.751 169.603 233.191C169.597 231.954 169.604 230.662 170.174 229.564C170.867 228.23 172.4 227.382 173.899 227.505C175.398 227.628 176.773 228.714 177.239 230.143C177.492 230.918 177.491 231.749 177.488 232.564C177.475 236.424 177.461 240.284 177.447 244.144C177.44 246.136 177.212 248.516 175.454 249.455C174.655 249.882 173.706 249.893 172.8 249.894C169.091 249.898 165.382 249.903 161.674 249.907Z" fill="white"/>
<path d="M157.755 7.05075C155.833 5.67573 155.812 2.36928 157.716 0.969966C159.009 0.0199429 160.738 -0.00857858 162.342 0.00118458C165.73 0.0217933 169.117 0.042402 172.505 0.0630107C173.708 0.0703297 175.008 0.109573 175.957 0.84781C177.249 1.85249 177.387 3.71897 177.411 5.35467C177.469 9.3826 177.493 13.411 177.484 17.4393C177.482 18.2609 177.476 19.0994 177.212 19.8775C176.748 21.2444 175.447 22.288 174.01 22.4448C172.574 22.6016 171.078 21.8636 170.33 20.629C169.604 19.4327 169.59 17.9529 169.597 16.5541C169.61 13.9895 169.624 11.4248 169.637 8.86009C169.638 8.57651 169.628 8.26228 169.433 8.05679C169.22 7.83369 168.873 7.82471 168.565 7.83104C166.512 7.87324 164.459 7.91542 162.407 7.95762C160.798 7.99068 159.063 7.98686 157.755 7.05075H157.755Z" fill="white"/>
</svg>
