<svg width="45" height="44" viewBox="0 0 45 44" fill="none" xmlns="http://www.w3.org/2000/svg">
<path d="M17.4587 5.28C15.3177 5.28 13.472 6.75812 13.0501 8.81031L12.6845 10.56H8.1001C5.61455 10.56 3.6001 12.5297 3.6001 14.96V33.44C3.6001 35.8703 5.61455 37.84 8.1001 37.84H36.9001C39.3856 37.84 41.4001 35.8703 41.4001 33.44V14.96C41.4001 12.5297 39.3856 10.56 36.9001 10.56H32.3157L31.9501 8.81031C31.5282 6.75469 29.6825 5.28 27.5415 5.28H17.4587ZM17.4587 7.04H27.5415C28.8212 7.04 29.9356 7.93031 30.1888 9.1575L30.5474 10.9072C30.7196 11.7287 31.4579 12.32 32.3157 12.32H36.9001C38.3872 12.32 39.6001 13.5059 39.6001 14.96V33.44C39.6001 34.8941 38.3872 36.08 36.9001 36.08H8.1001C6.61299 36.08 5.4001 34.8941 5.4001 33.44V14.96C5.4001 13.5059 6.61299 12.32 8.1001 12.32H12.6845C13.5423 12.32 14.2806 11.7287 14.4528 10.9072L14.8114 9.1575C15.0646 7.93031 16.179 7.04 17.4587 7.04ZM22.5001 14.96C17.529 14.96 13.5001 18.8994 13.5001 23.76C13.5001 28.6206 17.529 32.56 22.5001 32.56C27.4712 32.56 31.5001 28.6206 31.5001 23.76C31.5001 18.8994 27.4712 14.96 22.5001 14.96ZM22.5001 16.72C26.4692 16.72 29.7001 19.8791 29.7001 23.76C29.7001 27.6409 26.4692 30.8 22.5001 30.8C18.531 30.8 15.3001 27.6409 15.3001 23.76C15.3001 19.8791 18.531 16.72 22.5001 16.72Z" fill="#8B8B8D"/>
</svg>
