<svg width="39" height="37" viewBox="0 0 39 37" fill="none" xmlns="http://www.w3.org/2000/svg">
<path fill-rule="evenodd" clip-rule="evenodd" d="M10.6402 4.86105C10.3591 5.00119 10.0286 5.00119 9.7476 4.86105L1.44628 0.721246C0.781437 0.389696 0 0.873216 0 1.61614V30.6644C0 31.0436 0.214425 31.3901 0.553724 31.5593L9.7476 36.1442C10.0286 36.2844 10.3591 36.2844 10.6402 36.1442L19.0537 31.9485C19.3347 31.8083 19.6653 31.8083 19.9463 31.9485L28.3598 36.1442C28.6409 36.2844 28.9714 36.2844 29.2524 36.1442L38.4463 31.5593C38.7856 31.3901 39 31.0436 39 30.6644V1.61614C39 0.873216 38.2186 0.389696 37.5537 0.721245L29.2524 4.86104C28.9714 5.00118 28.6409 5.00118 28.3598 4.86104L19.9463 0.66527C19.6653 0.52513 19.3347 0.525131 19.0537 0.665271L10.6402 4.86105ZM2.32923 30.4625C1.98993 30.2933 1.77551 29.9468 1.77551 29.5676V4.48381C1.77551 3.74088 2.55695 3.25736 3.22179 3.58891L8.7524 6.34698C9.0917 6.51619 9.30612 6.86273 9.30612 7.24188V32.3257C9.30612 33.0686 8.52468 33.5522 7.85984 33.2206L2.32923 30.4625ZM12.5279 33.2206C11.8631 33.5522 11.0816 33.0686 11.0816 32.3257V7.24188C11.0816 6.86273 11.2961 6.51619 11.6354 6.34698L17.166 3.58891C17.8308 3.25736 18.6122 3.74088 18.6122 4.48381V29.5676C18.6122 29.9468 18.3978 30.2933 18.0585 30.4625L12.5279 33.2206ZM20.9415 30.4625C20.6022 30.2933 20.3878 29.9468 20.3878 29.5676V4.48381C20.3878 3.74088 21.1692 3.25736 21.834 3.58891L27.3646 6.34698C27.7039 6.51619 27.9184 6.86273 27.9184 7.24188V32.3257C27.9184 33.0686 27.1369 33.5522 26.4721 33.2206L20.9415 30.4625ZM31.1402 33.2206C30.4753 33.5522 29.6939 33.0686 29.6939 32.3257V7.24188C29.6939 6.86273 29.9083 6.51619 30.2476 6.34698L35.7782 3.58891C36.4431 3.25736 37.2245 3.74088 37.2245 4.48381V29.5676C37.2245 29.9468 37.0101 30.2933 36.6708 30.4625L31.1402 33.2206Z" fill="white"/>
</svg>
