<svg width="50" height="50" viewBox="0 0 50 50" fill="none" xmlns="http://www.w3.org/2000/svg">
<path d="M19.3984 6C17.0195 6 14.9688 7.67969 14.5 10.0117L14.0938 12H9C6.23828 12 4 14.2383 4 17V38C4 40.7617 6.23828 43 9 43H41C43.7617 43 46 40.7617 46 38V17C46 14.2383 43.7617 12 41 12H35.9062L35.5 10.0117C35.0312 7.67578 32.9805 6 30.6016 6H19.3984ZM19.3984 8H30.6016C32.0234 8 33.2617 9.01172 33.543 10.4062L33.9414 12.3945C34.1328 13.3281 34.9531 14 35.9062 14H41C42.6523 14 44 15.3477 44 17V38C44 39.6523 42.6523 41 41 41H9C7.34766 41 6 39.6523 6 38V17C6 15.3477 7.34766 14 9 14H14.0938C15.0469 14 15.8672 13.3281 16.0586 12.3945L16.457 10.4062C16.7383 9.01172 17.9766 8 19.3984 8ZM25 17C19.4766 17 15 21.4766 15 27C15 32.5234 19.4766 37 25 37C30.5234 37 35 32.5234 35 27C35 21.4766 30.5234 17 25 17ZM25 19C29.4102 19 33 22.5898 33 27C33 31.4102 29.4102 35 25 35C20.5898 35 17 31.4102 17 27C17 22.5898 20.5898 19 25 19Z" fill="white"/>
</svg>
