<svg width="32" height="23" viewBox="0 0 32 23" fill="none" xmlns="http://www.w3.org/2000/svg">
<path d="M2.01027 3.7641C1.79276 3.67475 1.59518 3.54133 1.42943 3.37188C1.1851 3.12201 1.01963 2.80303 0.954349 2.4561C0.889067 2.10918 0.926979 1.75022 1.06319 1.42553C1.19941 1.10085 1.42768 0.825335 1.71855 0.634542C2.00942 0.443747 2.34954 0.346428 2.69505 0.355132L18.8665 0.353877C18.8749 0.353812 18.8834 0.35377 18.892 0.35376H19.8254C19.834 0.35377 19.8425 0.353812 19.851 0.353877L30.2282 0.355132C30.5737 0.346428 30.9138 0.443747 31.2047 0.634542C31.4956 0.825335 31.7239 1.10085 31.8601 1.42553C31.9963 1.75022 32.0342 2.10918 31.9689 2.45611C31.9036 2.80303 31.7382 3.12201 31.4938 3.37188C31.3281 3.54133 31.1305 3.67475 30.913 3.7641C30.6955 3.85346 30.4625 3.8969 30.2282 3.89182L19.3587 3.88616L2.69509 3.89182C2.46073 3.8969 2.22778 3.85346 2.01027 3.7641Z" fill="white"/>
<path d="M2.01027 12.9641C1.79276 12.8747 1.59518 12.7413 1.42943 12.5718C1.1851 12.322 1.01963 12.003 0.954349 11.6561C0.889067 11.3091 0.926979 10.9502 1.06319 10.6255C1.19941 10.3008 1.42768 10.0253 1.71855 9.83449C2.00942 9.6437 2.34954 9.54638 2.69505 9.55508L18.8665 9.55383C18.8749 9.55376 18.8834 9.55372 18.892 9.55371H19.8254C19.834 9.55372 19.8425 9.55376 19.851 9.55383L30.2282 9.55508C30.5737 9.54638 30.9138 9.6437 31.2047 9.83449C31.4956 10.0253 31.7239 10.3008 31.8601 10.6255C31.9963 10.9502 32.0342 11.3091 31.9689 11.6561C31.9036 12.003 31.7382 12.322 31.4938 12.5718C31.3281 12.7413 31.1305 12.8747 30.913 12.9641C30.6955 13.0534 30.4625 13.0969 30.2282 13.0918L19.3587 13.0861L2.69509 13.0918C2.46073 13.0969 2.22778 13.0534 2.01027 12.9641Z" fill="white"/>
<path d="M2.01027 22.518C1.79276 22.4287 1.59518 22.2952 1.42943 22.1258C1.1851 21.8759 1.01963 21.5569 0.954349 21.21C0.889067 20.8631 0.926979 20.5041 1.06319 20.1794C1.19941 19.8548 1.42768 19.5792 1.71855 19.3884C2.00942 19.1977 2.34954 19.1003 2.69505 19.109L18.8665 19.1078C18.8749 19.1077 18.8834 19.1077 18.892 19.1077H19.8254C19.834 19.1077 19.8425 19.1077 19.851 19.1078L30.2282 19.109C30.5737 19.1003 30.9138 19.1977 31.2047 19.3884C31.4956 19.5792 31.7239 19.8548 31.8601 20.1794C31.9963 20.5041 32.0342 20.8631 31.9689 21.21C31.9036 21.5569 31.7382 21.8759 31.4938 22.1258C31.3281 22.2952 31.1305 22.4287 30.913 22.518C30.6955 22.6074 30.4625 22.6508 30.2282 22.6457L19.3587 22.6401L2.69509 22.6457C2.46073 22.6508 2.22778 22.6074 2.01027 22.518Z" fill="white"/>
</svg>
