<svg width="27" height="40" viewBox="0 0 27 40" fill="none" xmlns="http://www.w3.org/2000/svg">
<path d="M0.372339 13.9369C0.62315 13.6865 0.977389 13.5652 1.32387 13.5652L7.69241 13.5678C7.9303 13.5652 8.15267 13.6891 8.27419 13.8956C8.39314 14.1021 8.39314 14.3551 8.27419 14.5617C8.15267 14.7682 7.9303 14.8921 7.69241 14.8895L1.32387 14.8869V18.834C1.32397 18.84 1.32399 18.8461 1.32392 18.8521V38.6782H25.1535V18.8521C25.1535 18.8461 25.1535 18.8401 25.1536 18.834V14.8869L18.7851 14.8895C18.5472 14.8921 18.3248 14.7682 18.2033 14.5617C18.0843 14.3551 18.0843 14.1021 18.2033 13.8956C18.3248 13.6891 18.5472 13.5652 18.7851 13.5678L25.1536 13.5652C25.5001 13.5652 25.8543 13.6865 26.1051 13.9369C26.3559 14.1873 26.4775 14.541 26.4775 14.8869V38.6782C26.4775 39.0242 26.3559 39.3778 26.1051 39.6282C26.0346 39.6987 25.9558 39.7589 25.8714 39.8091C25.6556 39.9373 25.4026 40 25.1536 40C25.1536 40 25.1536 40 25.1536 40H1.32392C1.32394 40 1.3239 40 1.32392 40C1.07042 40 0.812727 39.935 0.594469 39.8021C0.514409 39.7533 0.439649 39.6954 0.372339 39.6282C0.121527 39.3778 0 39.0242 0 38.6782V14.8869C0 14.541 0.121527 14.1873 0.372339 13.9369Z" fill="white"/>
<path d="M5.52936 7.75439C5.29533 8.0355 5.33555 8.45535 5.61712 8.689C5.89869 8.92265 6.31921 8.88249 6.55324 8.60138L12.6234 2.54101L12.638 22.0656C12.6124 22.3175 12.7294 22.5621 12.9452 22.6972C13.1591 22.8305 13.4333 22.8305 13.6473 22.6972C13.863 22.5621 13.98 22.3175 13.9544 22.0656L13.9691 2.54101L20.0392 8.60138C20.2056 8.77114 20.4506 8.84051 20.6828 8.78027C20.9131 8.71821 21.0923 8.53932 21.1545 8.30931C21.2148 8.07749 21.1453 7.83288 20.9753 7.66677L13.2962 3.95336e-05L5.61712 7.66677C5.6025 7.68137 5.58787 7.69597 5.57324 7.71058C5.55861 7.72518 5.54399 7.73978 5.52936 7.75439Z" fill="white"/>
</svg>
