<svg width="35" height="34" viewBox="0 0 35 34" fill="none" xmlns="http://www.w3.org/2000/svg">
<path d="M22.2547 8.73842C22.6407 8.35093 23.1641 8.13338 23.7097 8.13338C24.2553 8.13338 24.7787 8.35093 25.1647 8.73842C25.5508 9.12594 25.7678 9.65168 25.7678 10.2C25.7678 10.7484 25.5508 11.2741 25.1647 11.6617C24.7787 12.0492 24.2553 12.2667 23.7097 12.2667C23.1641 12.2667 22.6407 12.0492 22.2547 11.6617C21.8687 11.2741 21.6517 10.7484 21.6517 10.2C21.6517 9.65168 21.8687 9.12594 22.2547 8.73842Z" fill="#8B8B8D"/>
<path fill-rule="evenodd" clip-rule="evenodd" d="M32.5171 0.200043C27.2672 0.200043 21.785 2.10261 16.2878 7.62075L16.2787 7.62991C15.4292 8.48265 14.682 9.23262 13.8472 10.1652C13.7137 10.3143 13.5229 10.3993 13.3242 10.401C8.85848 10.4409 5.58028 11.6819 2.3998 14.8745L1.27938 16C1.00003 16.2793 1.08129 16.8 1.46489 16.8H9.46846C9.94591 16.8 10.2833 17.2675 10.1328 17.7206L9.31917 20.1708C9.28347 20.2783 9.31139 20.3968 9.39135 20.4771L13.4713 24.5726C13.5517 24.6533 13.6709 24.6815 13.779 24.6453L16.2134 23.8308C16.6668 23.6791 17.1355 24.0165 17.1355 24.4946L17.1355 32.5C17.1355 32.6272 17.208 32.7409 17.3261 32.8191C17.5478 32.9658 17.8263 32.8225 18.014 32.6341L19.0519 31.5922C22.2282 28.4038 23.4657 25.1172 23.5086 20.643C23.5106 20.429 23.6091 20.2266 23.7757 20.0927C24.6899 19.3583 25.4288 18.61 26.2701 17.6599L26.2779 17.6511C32.0671 11.8399 34.1188 5.83613 33.7115 0.464997C33.7003 0.316759 33.5746 0.200043 33.4193 0.200043H32.5171ZM31.8672 2.83631C31.895 2.42389 31.5523 2.0863 31.1418 2.11581C26.2503 2.4675 21.8077 4.71938 17.6009 8.94328L17.5158 9.02869C16.6668 9.88085 15.9203 10.6301 15.0855 11.5729L14.5622 12.1653C14.5052 12.2298 14.4233 12.2667 14.3373 12.2667H13.5484C10.9275 12.2667 8.82077 12.7109 6.92565 13.7344C6.62605 13.8962 6.52806 14.2008 6.60625 14.4651C6.68331 14.7255 6.92659 14.9334 7.25921 14.9334H12.6021C12.8067 14.9334 12.9513 15.1337 12.8869 15.3279L11.5241 19.4315C11.4407 19.6824 11.5058 19.959 11.6925 20.1463L13.7987 22.2605C13.9864 22.449 14.2647 22.5147 14.5169 22.4302L18.5985 21.0645C18.7928 20.9995 18.9936 21.1441 18.9936 21.349V26.7095C18.9936 27.0427 19.2019 27.2861 19.4628 27.3628C19.7276 27.4406 20.0322 27.3415 20.1931 27.0408C21.2102 25.1404 21.6517 23.0278 21.6517 20.4V19.5351C21.6517 19.4427 21.6943 19.3555 21.7671 19.2986L22.4458 18.7691C23.2763 18.1206 23.9599 17.4602 24.8797 16.4207L24.8805 16.4198L24.9198 16.3764L24.965 16.331C29.1943 12.0856 31.5552 7.46919 31.8672 2.83631Z" fill="#8B8B8D"/>
<path d="M7.82128 22.8678C7.71135 22.7574 7.54317 22.7525 7.43659 22.8464C7.33682 22.9344 7.24209 23.0228 7.15409 23.1111C5.50104 24.7705 4.71815 26.4152 4.71666 28.5C4.71666 29 5.13537 29.26 5.50004 29.26C7.57182 29.26 9.16929 28.5677 10.8223 26.9084C10.9278 26.8025 11.033 26.6852 11.1381 26.5603C11.2303 26.4507 11.2236 26.283 11.115 26.1741L10.7831 25.8409C10.6877 25.7451 10.5301 25.7213 10.3921 25.7911C9.61645 26.1831 8.91289 26.2772 8.30664 26.258C7.96837 26.2474 7.69318 25.9757 7.69045 25.6317C7.68571 25.034 7.81409 24.3489 8.20684 23.5972C8.27793 23.4611 8.25534 23.3035 8.1595 23.2073L7.82128 22.8678Z" fill="#8B8B8D"/>
</svg>
