<svg width="22" height="39" viewBox="0 0 22 39" fill="none" xmlns="http://www.w3.org/2000/svg">
<path d="M0.762505 0.640015C0.362193 0.713687 0.0734426 1.05962 0.0800046 1.46001V37.54C0.0767236 37.8347 0.237504 38.107 0.496723 38.2543C0.755942 38.4049 1.0775 38.4049 1.34 38.2575L11 32.7481L20.66 38.2575C20.9225 38.4049 21.2441 38.4049 21.5033 38.2543C21.7625 38.107 21.9233 37.8347 21.92 37.54V1.46001C21.92 1.00837 21.5427 0.640015 21.08 0.640015H0.920005C0.893755 0.640015 0.867505 0.640015 0.841255 0.640015C0.815005 0.640015 0.788755 0.640015 0.762505 0.640015ZM1.76 2.28001H20.24V36.105L11.42 31.0825C11.1608 30.9352 10.8392 30.9352 10.58 31.0825L1.76 36.105V2.28001Z" fill="white"/>
</svg>
