<svg width="44" height="41" viewBox="0 0 44 41" fill="none" xmlns="http://www.w3.org/2000/svg">
<path d="M7.54078 16.522C7.1151 16.522 6.67989 16.6705 6.37175 16.9771C6.06361 17.2837 5.91431 17.7167 5.91431 18.1402V38.5593C5.91431 38.9828 6.06361 39.4158 6.37175 39.7224C6.45445 39.8046 6.54629 39.8755 6.64465 39.9352C6.9128 40.098 7.2294 40.1775 7.54084 40.1775H16.224L16.2362 40.1775C16.9714 40.1775 17.3087 39.8975 17.5857 39.5654C17.8627 39.2334 17.8627 39.0537 17.8627 38.5593V33.7269L17.8628 33.7047L17.8631 30.4629H26.4021L26.4017 33.7047L26.4018 33.7269V38.5593C26.4018 38.7997 26.4018 39.1686 26.8 39.5654C27.1472 39.9113 27.9047 40.1679 27.9047 40.1679H28.0282L36.8173 40.1775C37.1232 40.1775 37.4341 40.1007 37.6992 39.9438C37.8029 39.8823 37.8996 39.8086 37.9863 39.7224C38.2945 39.4158 38.4438 38.9828 38.4438 38.5593V18.1402C38.4438 17.7167 38.2945 17.2837 37.9863 16.9771C37.6782 16.6705 37.243 16.522 36.8173 16.522V22.3605L36.8172 22.3826V38.5593L28.0282 38.5593V38.5L28.0286 30.4629C28.0286 30.0394 27.8793 29.6064 27.5711 29.2999C27.4885 29.2176 27.3966 29.1467 27.2982 29.087C27.0301 28.9242 26.7135 28.8447 26.4021 28.8447H17.8631C17.5571 28.8447 17.2463 28.9215 16.9812 29.0785C16.8775 29.1399 16.7807 29.2136 16.6941 29.2999C16.3859 29.6064 16.2366 30.0394 16.2366 30.4629L16.2362 38.5593L7.54084 38.5593V22.3826L7.54078 22.3604V16.522Z" fill="white"/>
<path d="M16.2362 40.1775C16.9714 40.1775 17.3087 39.8975 17.5857 39.5654C17.8627 39.2334 17.8627 39.0537 17.8627 38.5593V33.7269L17.8628 33.7047L17.8631 30.4629H26.4021L26.4017 33.7047L26.4018 33.7269V38.5593C26.4018 38.7997 26.4018 39.1686 26.8 39.5654C27.1472 39.9113 27.9047 40.1679 27.9047 40.1679H28.0282L36.8173 40.1775C37.1232 40.1775 37.4341 40.1007 37.6992 39.9438C37.8029 39.8823 37.8996 39.8086 37.9863 39.7224C38.2945 39.4158 38.4438 38.9828 38.4438 38.5593V18.1402C38.4438 17.7167 38.2945 17.2837 37.9863 16.9771C37.6782 16.6705 37.243 16.522 36.8173 16.522V22.3605L36.8172 22.3826V38.5593L28.0282 38.5593V38.5L28.0286 30.4629C28.0286 30.0394 27.8793 29.6064 27.5711 29.2999C27.4885 29.2176 27.3966 29.1467 27.2982 29.087C27.0301 28.9242 26.7135 28.8447 26.4021 28.8447H17.8631C17.5571 28.8447 17.2463 28.9215 16.9812 29.0785C16.8775 29.1399 16.7807 29.2136 16.6941 29.2999C16.3859 29.6064 16.2366 30.0394 16.2366 30.4629L16.2362 38.5593L7.54084 38.5593V22.3826L7.54078 22.3604V16.522C7.1151 16.522 6.67989 16.6705 6.37175 16.9771C6.06361 17.2837 5.91431 17.7167 5.91431 18.1402V38.5593C5.91431 38.9828 6.06361 39.4158 6.37175 39.7224C6.45445 39.8046 6.54629 39.8755 6.64465 39.9352C6.9128 40.098 7.2294 40.1775 7.54084 40.1775H16.224M16.2362 40.1775C16.2323 40.1775 16.2282 40.1775 16.224 40.1775M16.2362 40.1775L16.224 40.1775" stroke="white" stroke-width="0.6"/>
<path d="M1.52359 21.5032C1.23606 21.8474 1.28548 22.3614 1.6314 22.6474C1.97733 22.9335 2.49397 22.8843 2.78149 22.5402L14.5383 11.0145L21.3616 4.2259L22.1883 3.56356L23.0149 4.2259L29.7325 10.9094L41.4815 22.5402C41.6859 22.7481 41.9869 22.833 42.2722 22.7592C42.5552 22.6832 42.7753 22.4642 42.8517 22.1826C42.9258 21.8988 42.8405 21.5993 42.6316 21.396L30.9273 9.80964L22.1883 1.11499L13.3286 9.92966L1.63141 21.3959L1.5775 21.4496L1.52359 21.5032Z" fill="white"/>
<path d="M1.52359 21.5032C1.23606 21.8474 1.28548 22.3614 1.6314 22.6474C1.97733 22.9335 2.49397 22.8843 2.78149 22.5402L14.5383 11.0145L21.3616 4.2259L22.1883 3.56356L23.0149 4.2259L29.7325 10.9094L41.4815 22.5402C41.6859 22.7481 41.9869 22.833 42.2722 22.7592C42.5552 22.6832 42.7753 22.4642 42.8517 22.1826C42.9258 21.8988 42.8405 21.5993 42.6316 21.396L30.9273 9.80964L22.1883 1.11499L13.3286 9.92966L1.63141 21.3959M1.52359 21.5032C1.54156 21.4853 1.55953 21.4674 1.5775 21.4496M1.52359 21.5032L1.5775 21.4496M1.63141 21.3959C1.61344 21.4138 1.59547 21.4317 1.5775 21.4496M1.63141 21.3959L1.5775 21.4496" stroke="white" stroke-width="0.6"/>
</svg>
