<svg width="28" height="28" viewBox="0 0 28 28" fill="none" xmlns="http://www.w3.org/2000/svg">
<path fill-rule="evenodd" clip-rule="evenodd" d="M25.7308 4.03849C25.7308 2.93392 24.8353 2.03849 23.7308 2.03849H19.4231C18.3185 2.03849 17.4231 2.93392 17.4231 4.03849V8.34618C17.4231 9.45075 18.3185 10.3462 19.4231 10.3462H23.7308C24.8353 10.3462 25.7308 9.45075 25.7308 8.34618V4.03849ZM18.3846 1.00002C17.28 1.00002 16.3846 1.89545 16.3846 3.00002V9.38464C16.3846 10.4892 17.28 11.3846 18.3846 11.3846H24.7692C25.8738 11.3846 26.7692 10.4892 26.7692 9.38464V3.00002C26.7692 1.89545 25.8738 1.00002 24.7692 1.00002H18.3846Z" fill="white"/>
<path fill-rule="evenodd" clip-rule="evenodd" d="M16.0346 3.00002C16.0346 1.70216 17.0867 0.650024 18.3846 0.650024H24.7692C26.0671 0.650024 27.1192 1.70216 27.1192 3.00002V9.38464C27.1192 10.6825 26.0671 11.7346 24.7692 11.7346H18.3846C17.0867 11.7346 16.0346 10.6825 16.0346 9.38464V3.00002ZM18.3846 1.35002C17.4733 1.35002 16.7346 2.08875 16.7346 3.00002V9.38464C16.7346 10.2959 17.4733 11.0346 18.3846 11.0346H24.7692C25.6805 11.0346 26.4192 10.2959 26.4192 9.38464V3.00002C26.4192 2.08875 25.6805 1.35002 24.7692 1.35002H18.3846ZM17.0731 4.03849C17.0731 2.74062 18.1252 1.68849 19.4231 1.68849H23.7308C25.0286 1.68849 26.0808 2.74062 26.0808 4.03849V8.34618C26.0808 9.64405 25.0286 10.6962 23.7308 10.6962H19.4231C18.1252 10.6962 17.0731 9.64405 17.0731 8.34618V4.03849ZM19.4231 2.38849C18.5118 2.38849 17.7731 3.12722 17.7731 4.03849V8.34618C17.7731 9.25745 18.5118 9.99618 19.4231 9.99618H23.7308C24.642 9.99618 25.3808 9.25745 25.3808 8.34618V4.03849C25.3808 3.12722 24.642 2.38849 23.7308 2.38849H19.4231Z" fill="white"/>
<path fill-rule="evenodd" clip-rule="evenodd" d="M25.7308 19.4231C25.7308 18.3186 24.8353 17.4231 23.7308 17.4231H19.4231C18.3185 17.4231 17.4231 18.3186 17.4231 19.4231V23.7308C17.4231 24.8354 18.3185 25.7308 19.4231 25.7308H23.7308C24.8353 25.7308 25.7308 24.8354 25.7308 23.7308V19.4231ZM18.3846 16.3847C17.28 16.3847 16.3846 17.2801 16.3846 18.3847V24.7693C16.3846 25.8739 17.28 26.7693 18.3846 26.7693H24.7692C25.8738 26.7693 26.7692 25.8739 26.7692 24.7693V18.3847C26.7692 17.2801 25.8738 16.3847 24.7692 16.3847H18.3846Z" fill="white"/>
<path fill-rule="evenodd" clip-rule="evenodd" d="M16.0346 18.3847C16.0346 17.0868 17.0867 16.0347 18.3846 16.0347H24.7692C26.0671 16.0347 27.1192 17.0868 27.1192 18.3847V24.7693C27.1192 26.0672 26.0671 27.1193 24.7692 27.1193H18.3846C17.0867 27.1193 16.0346 26.0672 16.0346 24.7693V18.3847ZM18.3846 16.7347C17.4733 16.7347 16.7346 17.4734 16.7346 18.3847V24.7693C16.7346 25.6806 17.4733 26.4193 18.3846 26.4193H24.7692C25.6805 26.4193 26.4192 25.6806 26.4192 24.7693V18.3847C26.4192 17.4734 25.6805 16.7347 24.7692 16.7347H18.3846ZM17.0731 19.4231C17.0731 18.1253 18.1252 17.0731 19.4231 17.0731H23.7308C25.0286 17.0731 26.0808 18.1253 26.0808 19.4231V23.7308C26.0808 25.0287 25.0286 26.0808 23.7308 26.0808H19.4231C18.1252 26.0808 17.0731 25.0287 17.0731 23.7308V19.4231ZM19.4231 17.7731C18.5118 17.7731 17.7731 18.5119 17.7731 19.4231V23.7308C17.7731 24.6421 18.5118 25.3808 19.4231 25.3808H23.7308C24.642 25.3808 25.3808 24.6421 25.3808 23.7308V19.4231C25.3808 18.5119 24.642 17.7731 23.7308 17.7731H19.4231Z" fill="white"/>
<path fill-rule="evenodd" clip-rule="evenodd" d="M10.3461 4.03849C10.3461 2.93392 9.45072 2.03849 8.34615 2.03849H4.03846C2.93389 2.03849 2.03846 2.93392 2.03846 4.03849V8.34618C2.03846 9.45075 2.93389 10.3462 4.03846 10.3462H8.34615C9.45072 10.3462 10.3461 9.45075 10.3461 8.34618V4.03849ZM2.99999 1.00002C1.89542 1.00002 0.999994 1.89545 0.999994 3.00002V9.38464C0.999994 10.4892 1.89542 11.3846 2.99999 11.3846H9.38461C10.4892 11.3846 11.3846 10.4892 11.3846 9.38464V3.00002C11.3846 1.89545 10.4892 1.00002 9.38461 1.00002H2.99999Z" fill="white"/>
<path fill-rule="evenodd" clip-rule="evenodd" d="M0.649994 3.00002C0.649994 1.70216 1.70212 0.650024 2.99999 0.650024H9.38461C10.6825 0.650024 11.7346 1.70216 11.7346 3.00002V9.38464C11.7346 10.6825 10.6825 11.7346 9.38461 11.7346H2.99999C1.70212 11.7346 0.649994 10.6825 0.649994 9.38464V3.00002ZM2.99999 1.35002C2.08872 1.35002 1.34999 2.08875 1.34999 3.00002V9.38464C1.34999 10.2959 2.08872 11.0346 2.99999 11.0346H9.38461C10.2959 11.0346 11.0346 10.2959 11.0346 9.38464V3.00002C11.0346 2.08875 10.2959 1.35002 9.38461 1.35002H2.99999ZM1.68846 4.03849C1.68846 2.74062 2.74059 1.68849 4.03846 1.68849H8.34615C9.64402 1.68849 10.6961 2.74062 10.6961 4.03849V8.34618C10.6961 9.64405 9.64402 10.6962 8.34615 10.6962H4.03846C2.74059 10.6962 1.68846 9.64405 1.68846 8.34618V4.03849ZM4.03846 2.38849C3.12719 2.38849 2.38846 3.12722 2.38846 4.03849V8.34618C2.38846 9.25745 3.12719 9.99618 4.03846 9.99618H8.34615C9.25742 9.99618 9.99615 9.25745 9.99615 8.34618V4.03849C9.99615 3.12722 9.25742 2.38849 8.34615 2.38849H4.03846Z" fill="white"/>
<path fill-rule="evenodd" clip-rule="evenodd" d="M2.99999 16.0347C1.70212 16.0347 0.649994 17.0868 0.649994 18.3847V24.7693C0.649994 26.0672 1.70212 27.1193 2.99999 27.1193H9.38461C10.6825 27.1193 11.7346 26.0672 11.7346 24.7693V18.3847C11.7346 17.0868 10.6825 16.0347 9.38461 16.0347H2.99999ZM2.38846 19.4231C2.38846 18.5119 3.12719 17.7731 4.03846 17.7731H8.34615C9.25742 17.7731 9.99615 18.5119 9.99615 19.4231V23.7308C9.99615 24.6421 9.25742 25.3808 8.34615 25.3808H4.03846C3.12719 25.3808 2.38846 24.6421 2.38846 23.7308V19.4231Z" fill="white"/>
</svg>
