<svg width="40" height="37" viewBox="0 0 40 37" fill="none" xmlns="http://www.w3.org/2000/svg">
<path d="M34.6599 19.7968L34.6583 19.7986L29.5 25.1041L29.3956 25.2115L30.7084 26.5L36.0061 21.051L36.0095 21.0475C36.6056 20.4278 37.5879 19.2011 38.4261 17.6818C39.2597 16.1708 40 14.2824 40 12.3633C40 9.56087 39.0798 6.96841 37.313 5.06616C35.5363 3.15316 32.9592 2 29.7857 2C25.9998 2 22.6128 3.64016 20.5 6.2067C18.3872 3.64016 15.0002 2 11.2143 2C9.65808 2 8.24531 2.27729 7 2.78549L8.41947 4.21567C9.25952 3.95993 10.1919 3.82057 11.2143 3.82057C14.9021 3.82057 18.0739 5.63536 19.7075 8.25771L20.5 9.52986L21.2925 8.25771C22.9261 5.63536 26.0979 3.82057 29.7857 3.82057C32.4732 3.82057 34.539 4.78354 35.9398 6.29184C37.3507 7.81089 38.1429 9.94491 38.1429 12.3633C38.1429 13.8533 37.5566 15.4309 36.7926 16.8157C36.034 18.1905 35.1487 19.2882 34.6599 19.7968Z" fill="white"/>
<path d="M4.20742 16.8157C3.44341 15.4309 2.85714 13.8533 2.85714 12.3633C2.85714 10.7495 3.2099 9.26231 3.86385 8L2.5 6.65098C2.48266 6.67998 2.46547 6.70907 2.44843 6.73826C1.49241 8.37559 1 10.3133 1 12.3633C1 14.2824 1.74026 16.1708 2.5739 17.6818C3.41214 19.2011 4.39445 20.4278 4.99048 21.0475L4.99393 21.051L20.5 37L26.5 30.8286L26.5757 30.7508L25.269 29.456L25 29.7327L20.5 34.3612L6.34173 19.7986L6.34013 19.7969C5.85136 19.2883 4.966 18.1906 4.20742 16.8157Z" fill="white"/>
<path fill-rule="evenodd" clip-rule="evenodd" d="M35.9807 35.9807C35.6159 36.3455 35.0244 36.3455 34.6595 35.9807L0.66058 1.98176C0.295748 1.61693 0.295749 1.02542 0.66058 0.660587C1.02541 0.295755 1.61692 0.295756 1.98175 0.660587L35.9807 34.6595C36.3455 35.0244 36.3455 35.6159 35.9807 35.9807Z" fill="white"/>
</svg>
