<svg width="38" height="38" viewBox="0 0 38 38" fill="none" xmlns="http://www.w3.org/2000/svg">
<g clip-path="url(#clip0)">
<path d="M25.3888 0C24.9702 0.0385938 24.6614 0.412656 24.7 0.83125C24.7386 1.24984 25.1127 1.55859 25.5312 1.52H35.3875L19.5225 17.4088C19.2969 17.5928 19.193 17.8867 19.2583 18.1717C19.3236 18.4538 19.5462 18.6764 19.8283 18.7417C20.1133 18.807 20.4072 18.7031 20.5912 18.4775L36.48 2.6125V12.4688C36.477 12.7419 36.6195 12.9972 36.857 13.1367C37.0945 13.2733 37.3855 13.2733 37.623 13.1367C37.8605 12.9972 38.003 12.7419 38 12.4688V0H25.5312C25.5075 0 25.4837 0 25.46 0C25.4362 0 25.4125 0 25.3888 0ZM1.52 7.6C1.12219 7.6 0.715469 7.73953 0.4275 8.0275C0.139531 8.31547 0 8.72219 0 9.12V36.48C0 36.8778 0.139531 37.2845 0.4275 37.5725C0.715469 37.8605 1.12219 38 1.52 38H28.88C29.2778 38 29.6845 37.8605 29.9725 37.5725C30.2605 37.2845 30.4 36.8778 30.4 36.48V13.68C30.403 13.4069 30.2605 13.1516 30.023 13.012C29.7855 12.8755 29.4945 12.8755 29.257 13.012C29.0195 13.1516 28.877 13.4069 28.88 13.68V36.48H1.52V9.12H24.32C24.5931 9.12297 24.8484 8.98047 24.988 8.74297C25.1245 8.50547 25.1245 8.21453 24.988 7.97703C24.8484 7.73953 24.5931 7.59703 24.32 7.6H1.52Z" fill="white"/>
</g>
<defs>
<clipPath id="clip0">
<rect width="38" height="38" fill="white"/>
</clipPath>
</defs>
</svg>
