<svg width="27" height="39" viewBox="0 0 27 39" fill="none" xmlns="http://www.w3.org/2000/svg">
<path fill-rule="evenodd" clip-rule="evenodd" d="M13.5 1.78262C7.4519 1.78262 2.38236 7.30516 2.38236 14.3334C2.38236 16.0031 3.06824 18.2154 4.17484 20.6631C5.27147 23.0888 6.74038 25.659 8.21955 28.0165C9.69714 30.3715 11.1761 32.5001 12.2863 34.0407C12.7725 34.7155 13.1875 35.2768 13.5 35.694C13.8125 35.2768 14.2275 34.7155 14.7138 34.0407C15.824 32.5001 17.3029 30.3715 18.7805 28.0165C20.2596 25.659 21.7286 23.0888 22.8252 20.6631C23.9318 18.2154 24.6177 16.0031 24.6177 14.3334C24.6177 7.30516 19.5481 1.78262 13.5 1.78262ZM13.5 37C12.8699 37.4764 12.8697 37.476 12.8697 37.476L12.8692 37.4754L12.8604 37.4641L12.834 37.4299C12.8108 37.3999 12.7767 37.3557 12.7325 37.2979C12.6439 37.1824 12.5146 37.0126 12.3503 36.7943C12.0218 36.3577 11.5532 35.7268 10.9913 34.947C9.86807 33.3883 8.36906 31.2309 6.86871 28.8397C5.36994 26.451 3.86091 23.8148 2.72408 21.3001C1.59722 18.8075 0.794128 16.3455 0.794128 14.3334C0.794128 6.63395 6.39074 0.217407 13.5 0.217407C20.6093 0.217407 26.2059 6.63395 26.2059 14.3334C26.2059 16.3455 25.4028 18.8075 24.2759 21.3001C23.1391 23.8148 21.6301 26.451 20.1313 28.8397C18.631 31.2309 17.1319 33.3883 16.0087 34.947C15.4468 35.7268 14.9782 36.3577 14.6497 36.7943C14.4854 37.0126 14.3561 37.1824 14.2676 37.2979C14.2233 37.3557 14.1892 37.3999 14.1661 37.4299L14.1396 37.4641L14.1309 37.4754L14.1303 37.476C14.1303 37.476 14.1301 37.4764 13.5 37ZM13.5 37L14.1303 37.476L13.5 38.2858L12.8697 37.476L13.5 37Z" fill="white"/>
<path fill-rule="evenodd" clip-rule="evenodd" d="M13.5 17.4348C15.6929 17.4348 17.4706 15.6829 17.4706 13.5218C17.4706 11.3606 15.6929 9.60871 13.5 9.60871C11.3071 9.60871 9.52942 11.3606 9.52942 13.5218C9.52942 15.6829 11.3071 17.4348 13.5 17.4348ZM13.5 19C16.5701 19 19.0588 16.5473 19.0588 13.5218C19.0588 10.4962 16.5701 8.04349 13.5 8.04349C10.43 8.04349 7.94119 10.4962 7.94119 13.5218C7.94119 16.5473 10.43 19 13.5 19Z" fill="white"/>
</svg>
