<svg width="35" height="34" viewBox="0 0 35 34" fill="none" xmlns="http://www.w3.org/2000/svg">
<path d="M22.2547 8.73845C22.6407 8.35096 23.1641 8.13341 23.7097 8.13341C24.2553 8.13341 24.7787 8.35096 25.1647 8.73845C25.5507 9.12597 25.7678 9.65171 25.7678 10.2001C25.7678 10.7484 25.5507 11.2742 25.1647 11.6617C24.7787 12.0492 24.2553 12.2667 23.7097 12.2667C23.1641 12.2667 22.6407 12.0492 22.2547 11.6617C21.8686 11.2742 21.6516 10.7484 21.6516 10.2001C21.6516 9.65171 21.8686 9.12597 22.2547 8.73845Z" fill="white"/>
<path fill-rule="evenodd" clip-rule="evenodd" d="M32.517 0.200073C27.2672 0.200073 21.785 2.10264 16.2878 7.62078L16.2786 7.62994C15.4291 8.48268 14.682 9.23265 13.8472 10.1653C13.7137 10.3144 13.5229 10.3993 13.3242 10.4011C8.85845 10.4409 5.58025 11.682 2.39977 14.8746L1.27935 16C1 16.2793 1.08126 16.8001 1.46486 16.8001H9.46843C9.94588 16.8001 10.2832 17.2676 10.1328 17.7207L9.31914 20.1708C9.28343 20.2784 9.31135 20.3968 9.39132 20.4771L13.4713 24.5726C13.5517 24.6533 13.6709 24.6815 13.779 24.6454L16.2134 23.8308C16.6668 23.6791 17.1355 24.0165 17.1355 24.4946L17.1355 32.5C17.1355 32.6273 17.208 32.7409 17.3261 32.8191C17.5478 32.9658 17.8263 32.8225 18.0139 32.6342L19.0519 31.5923C22.2282 28.4038 23.4657 25.1173 23.5085 20.643C23.5106 20.429 23.609 20.2266 23.7757 20.0927C24.6898 19.3583 25.4287 18.6101 26.2701 17.6599L26.2779 17.6511C32.067 11.8399 34.1187 5.83616 33.7115 0.465027C33.7002 0.316789 33.5746 0.200073 33.4192 0.200073H32.517ZM31.8672 2.83634C31.8949 2.42392 31.5523 2.08633 31.1417 2.11584C26.2502 2.46753 21.8077 4.71941 17.6009 8.94331L17.5158 9.02872C16.6667 9.88088 15.9202 10.6302 15.0854 11.5729L14.5621 12.1653C14.5052 12.2298 14.4233 12.2667 14.3373 12.2667H13.5484C10.9274 12.2667 8.82074 12.7109 6.92562 13.7345C6.62602 13.8963 6.52803 14.2008 6.60622 14.4651C6.68327 14.7255 6.92656 14.9334 7.25918 14.9334H12.6021C12.8067 14.9334 12.9513 15.1337 12.8868 15.3279L11.5241 19.4315C11.4407 19.6824 11.5058 19.959 11.6924 20.1463L13.7986 22.2605C13.9864 22.449 14.2647 22.5147 14.5169 22.4303L18.5984 21.0645C18.7927 20.9995 18.9936 21.1441 18.9936 21.349V26.7096C18.9936 27.0427 19.2019 27.2862 19.4628 27.3628C19.7275 27.4406 20.0321 27.3415 20.1931 27.0409C21.2102 25.1404 21.6516 23.0278 21.6516 20.4001V19.5352C21.6516 19.4427 21.6942 19.3555 21.7671 19.2986L22.4458 18.7692C23.2763 18.1206 23.9599 17.4602 24.8797 16.4207L24.8805 16.4198L24.9198 16.3764L24.965 16.3311C29.1943 12.0856 31.5552 7.46922 31.8672 2.83634Z" fill="white"/>
<path d="M7.82125 22.8678C7.71132 22.7575 7.54314 22.7525 7.43656 22.8465C7.33679 22.9344 7.24206 23.0228 7.15406 23.1111C5.50101 24.7705 4.71812 26.4152 4.71663 28.5C4.71663 29 5.13534 29.26 5.50001 29.26C7.57179 29.26 9.16926 28.5677 10.8223 26.9084C10.9278 26.8025 11.0329 26.6852 11.1381 26.5603C11.2303 26.4508 11.2235 26.2831 11.115 26.1741L10.7831 25.8409C10.6876 25.7451 10.5301 25.7214 10.3921 25.7911C9.61642 26.1831 8.91286 26.2772 8.30661 26.2581C7.96834 26.2474 7.69315 25.9757 7.69042 25.6318C7.68568 25.034 7.81406 24.3489 8.20681 23.5972C8.2779 23.4611 8.25531 23.3035 8.15947 23.2073L7.82125 22.8678Z" fill="white"/>
</svg>
