<svg width="27" height="35" viewBox="0 0 27 35" fill="none" xmlns="http://www.w3.org/2000/svg">
<path d="M21.1737 35H5.82632C5.06939 34.9943 4.34231 34.7084 3.78946 34.199C3.23662 33.6897 2.89844 32.9941 2.84211 32.2504L1.42105 5.6H0V4.2H7.10526V2.8C7.11011 2.05887 7.4111 1.34944 7.94305 0.825373C8.475 0.301302 9.19509 0.004771 9.94737 0L17.0526 0C17.8064 0 18.5293 0.294999 19.0623 0.820101C19.5953 1.3452 19.8947 2.05739 19.8947 2.8V4.2H27V5.6H25.5789L24.1437 32.2504C24.0876 32.9917 23.7514 33.6853 23.2016 34.1943C22.6517 34.7034 21.9281 34.9908 21.1737 35ZM2.84211 5.6L4.27026 32.158C4.30677 32.5439 4.48503 32.9033 4.77155 33.1688C5.05808 33.4344 5.43315 33.5877 5.82632 33.6H21.1737C21.5682 33.5897 21.9452 33.4372 22.2332 33.1715C22.5213 32.9057 22.7005 32.5451 22.7368 32.158L24.1579 5.6H2.84211ZM9.94737 1.4C9.57048 1.4 9.20903 1.5475 8.94253 1.81005C8.67603 2.0726 8.52632 2.4287 8.52632 2.8V4.2H18.4737V2.8C18.4737 2.4287 18.324 2.0726 18.0575 1.81005C17.791 1.5475 17.4295 1.4 17.0526 1.4H9.94737ZM14.2105 30.8H12.7895V8.4H14.2105V30.8ZM18.4737 30.8H17.0526L18.4396 8.4H19.8947L18.4737 30.8ZM8.52632 30.8L7.10526 8.4H8.52632L9.94737 30.8H8.52632Z" fill="white"/>
</svg>
