<svg width="39" height="39" viewBox="0 0 39 39" fill="none" xmlns="http://www.w3.org/2000/svg">
<path d="M9.76132 2.39441C9.39825 2.46123 9.13636 2.77499 9.14231 3.13813V5.37219L10.666 6.88184V3.88185H27.427V23.6525L28.9507 25.1733V3.13813C28.9507 2.7285 28.6084 2.39441 28.1888 2.39441H9.90417H9.83275H9.76132Z" fill="white"/>
<path d="M9.14231 35.8618C9.13934 36.1291 9.28516 36.3761 9.52027 36.5097C9.75537 36.6462 10.047 36.6462 10.2851 36.5126L19.0465 31.5157L27.8079 36.5126C28.046 36.6462 28.3376 36.6462 28.5727 36.5097C28.8078 36.3761 28.9537 36.1291 28.9507 35.8618V32.727L27.427 31.2061V34.5603L19.4274 30.005C19.1923 29.8714 18.9007 29.8714 18.6656 30.005L10.666 34.5603V14.4361L9.14231 12.9085V35.8618Z" fill="white"/>
<path fill-rule="evenodd" clip-rule="evenodd" d="M35.5177 35.5178C35.1868 35.8487 34.6503 35.8487 34.3195 35.5178L3.32005 4.51836C2.98916 4.18746 2.98916 3.65098 3.32005 3.32008C3.65095 2.98919 4.18743 2.98919 4.51832 3.32008L35.5177 34.3195C35.8486 34.6504 35.8486 35.1869 35.5177 35.5178Z" fill="white"/>
</svg>
