<svg width="38" height="39" viewBox="0 0 38 39" fill="none" xmlns="http://www.w3.org/2000/svg">
<path fill-rule="evenodd" clip-rule="evenodd" d="M19 1.47521C13.6799 1.47521 9.22059 6.38106 9.22059 12.6244C9.22059 14.1077 9.82391 16.0729 10.7973 18.2474C11.7619 20.4022 13.054 22.6854 14.3552 24.7796C15.6549 26.8716 16.9558 28.7626 17.9323 30.1312C18.3601 30.7306 18.7251 31.2292 19 31.5998C19.2749 31.2292 19.6399 30.7306 20.0677 30.1312C21.0442 28.7626 22.3451 26.8716 23.6448 24.7796C24.946 22.6854 26.2381 20.4022 27.2027 18.2474C28.1761 16.0729 28.7794 14.1077 28.7794 12.6244C28.7794 6.38106 24.3201 1.47521 19 1.47521ZM19 33.9022L18.4455 33.1828L18.4374 33.1722L18.4141 33.1419C18.3938 33.1152 18.3638 33.0759 18.3248 33.0246C18.247 32.922 18.1332 32.7711 17.9887 32.5772C17.6997 32.1894 17.2876 31.6289 16.7933 30.9362C15.8052 29.5515 14.4867 27.6351 13.1669 25.5109C11.8485 23.3889 10.5212 21.0471 9.52117 18.8132C8.52995 16.599 7.82353 14.4119 7.82353 12.6244C7.82353 5.7848 12.7465 0.0847778 19 0.0847778C25.2535 0.0847778 30.1765 5.7848 30.1765 12.6244C30.1765 14.4119 29.47 16.599 28.4788 18.8132C27.4788 21.0471 26.1515 23.3889 24.8331 25.5109C23.5133 27.6351 22.1948 29.5515 21.2067 30.9362C20.7124 31.6289 20.3003 32.1894 20.0113 32.5772C19.8668 32.7711 19.753 32.922 19.6752 33.0246C19.6362 33.0759 19.6062 33.1152 19.5859 33.1419L19.5626 33.1722L19.5549 33.1822L19 33.9022Z" fill="white"/>
<path fill-rule="evenodd" clip-rule="evenodd" d="M19 15.3795C20.9289 15.3795 22.4926 13.8233 22.4926 11.9035C22.4926 9.98368 20.9289 8.42738 19 8.42738C17.0711 8.42738 15.5074 9.98368 15.5074 11.9035C15.5074 13.8233 17.0711 15.3795 19 15.3795ZM19 16.77C21.7005 16.77 23.8897 14.5912 23.8897 11.9035C23.8897 9.21576 21.7005 7.03695 19 7.03695C16.2995 7.03695 14.1103 9.21576 14.1103 11.9035C14.1103 14.5912 16.2995 16.77 19 16.77Z" fill="white"/>
<path d="M2.70593 30.7106C1.87268 31.3436 1.58333 31.9112 1.58333 32.37C1.58333 32.8288 1.87268 33.3964 2.70593 34.0294C3.52822 34.654 4.76771 35.2502 6.3702 35.765C9.56648 36.7919 14.0319 37.44 19 37.44C23.9681 37.44 28.4335 36.7919 31.6298 35.765C33.2323 35.2502 34.4718 34.654 35.2941 34.0294C36.1273 33.3964 36.4167 32.8288 36.4167 32.37C36.4167 31.9112 36.1273 31.3436 35.2941 30.7106C34.4718 30.086 33.2323 29.4898 31.6298 28.975C29.9695 28.4416 27.9669 28.0104 25.7292 27.7191L26.5208 26.2524C28.6119 26.5519 30.507 26.9734 32.1207 27.4919C33.8132 28.0357 35.2403 28.7 36.2608 29.4752C37.2703 30.242 38 31.2134 38 32.37C38 33.5266 37.2703 34.498 36.2608 35.2648C35.2403 36.04 33.8132 36.7043 32.1207 37.2481C28.7268 38.3385 24.0881 39 19 39C13.9119 39 9.27317 38.3385 5.87933 37.2481C4.18676 36.7043 2.7597 36.04 1.7392 35.2648C0.729672 34.498 0 33.5266 0 32.37C0 31.2134 0.729672 30.242 1.7392 29.4752C2.7597 28.7 4.18676 28.0357 5.87933 27.4919C7.49301 26.9734 9.38812 26.5519 11.4792 26.2524L12.2708 27.7191C10.0331 28.0104 8.03046 28.4416 6.3702 28.975C4.76771 29.4898 3.52822 30.086 2.70593 30.7106Z" fill="white"/>
</svg>
