<svg width="39" height="40" viewBox="0 0 39 40" fill="none" xmlns="http://www.w3.org/2000/svg">
<path d="M15.4 0.200012C6.95899 0.200012 0.100006 7.059 0.100006 15.5C0.100006 23.941 6.95899 30.8 15.4 30.8C18.7399 30.8 21.8266 29.7242 24.3438 27.9031L36.1844 39.7156L38.7156 37.1844L27.0156 25.4563C29.3149 22.7774 30.7 19.3004 30.7 15.5C30.7 7.059 23.841 0.200012 15.4 0.200012ZM15.4 2.00001C22.8672 2.00001 28.9 8.03282 28.9 15.5C28.9 22.9672 22.8672 29 15.4 29C7.93282 29 1.90001 22.9672 1.90001 15.5C1.90001 8.03282 7.93282 2.00001 15.4 2.00001Z" fill="white"/>
<path d="M14.2846 19.2417L14.3081 19.3087H14.379H16.2566H16.4082L16.3485 19.1693C16.2649 18.9742 16.1806 18.7362 16.0959 18.4546C16.0135 18.1734 15.9717 17.8606 15.9717 17.5156C15.9717 17.118 16.0684 16.7555 16.2612 16.4258C16.459 16.0877 16.7068 15.7638 17.005 15.4542C17.3142 15.1335 17.6468 14.8126 18.0028 14.4916C18.3641 14.1658 18.6979 13.8167 19.0043 13.4443C19.3209 13.0613 19.5821 12.643 19.7879 12.1897C19.9968 11.7294 20.1 11.2082 20.1 10.628C20.1 10.0165 19.9848 9.47477 19.7513 9.00558C19.5193 8.5393 19.1987 8.15112 18.79 7.84227C18.3905 7.52682 17.9243 7.29115 17.3927 7.13443C16.8619 6.97793 16.2964 6.9 15.6968 6.9C14.4014 6.9 13.1511 7.27475 11.9473 8.02069L11.9 8.05002V8.10569V10.1328V10.3844L12.0727 10.2014C13.0193 9.19868 14.1326 8.70095 15.4169 8.70095C15.7731 8.70095 16.1092 8.74958 16.4256 8.84631L16.4256 8.84633L16.4277 8.84692C16.7429 8.93587 17.0188 9.07245 17.2567 9.256C17.4933 9.43856 17.6779 9.66459 17.8112 9.93511L17.8111 9.93512L17.8122 9.93705C17.9514 10.2049 18.0224 10.515 18.0224 10.8699C18.0224 11.2835 17.9254 11.662 17.732 12.0074L17.7316 12.008C17.5413 12.3538 17.3011 12.6892 17.0104 13.0142C16.7173 13.3342 16.3969 13.6544 16.0493 13.9748C15.6965 14.2924 15.3709 14.6255 15.0727 14.9743C14.7722 15.3258 14.5189 15.7048 14.3131 16.1113L14.3128 16.112C14.1107 16.5191 14.0108 16.9761 14.0108 17.481C14.0108 17.8016 14.0385 18.1259 14.0938 18.4536L14.0939 18.454C14.1488 18.7718 14.2122 19.035 14.2846 19.2417ZM14.4498 23.7037L14.4509 23.7047C14.7326 23.9665 15.0597 24.1 15.4286 24.1C15.7974 24.1 16.1246 23.9665 16.4063 23.7047L16.4074 23.7037C16.6835 23.4392 16.823 23.1137 16.823 22.7331C16.823 22.3459 16.6843 22.0199 16.4074 21.7624C16.1329 21.4919 15.8051 21.3546 15.4286 21.3546C15.052 21.3546 14.7242 21.4919 14.4498 21.7624C14.1729 22.0199 14.0341 22.3459 14.0341 22.7331C14.0341 23.1137 14.1737 23.4392 14.4498 23.7037Z" fill="white" stroke="white" stroke-width="0.2"/>
</svg>
