<svg width="44" height="44" viewBox="0 0 44 44" fill="none" xmlns="http://www.w3.org/2000/svg">
<path fill-rule="evenodd" clip-rule="evenodd" d="M24.5882 14.4377L22 6.47211L19.4118 14.4377C18.8764 16.0858 17.3405 17.2016 15.6076 17.2016L7.23213 17.2016L14.008 22.1246C15.41 23.1432 15.9966 24.9486 15.4611 26.5967L12.873 34.5623L19.6489 29.6393C21.0508 28.6207 22.9492 28.6207 24.3512 29.6393L31.1271 34.5623L28.5389 26.5967C28.0034 24.9486 28.59 23.1432 29.992 22.1246L36.7679 17.2016H28.3924C26.6595 17.2016 25.1237 16.0858 24.5882 14.4377ZM23.9021 5.85408C23.3034 4.01145 20.6966 4.01145 20.0979 5.85407L17.5097 13.8196C17.242 14.6437 16.4741 15.2016 15.6076 15.2016H7.23214C5.29469 15.2016 4.48914 17.6808 6.05656 18.8196L12.8325 23.7426C13.5335 24.2519 13.8268 25.1546 13.559 25.9787L10.9709 33.9442C10.3721 35.7869 12.4811 37.3191 14.0485 36.1803L20.8244 31.2573C21.5254 30.748 22.4746 30.748 23.1756 31.2573L29.9515 36.1803C31.5189 37.3191 33.6279 35.7869 33.0292 33.9443L30.441 25.9787C30.1733 25.1546 30.4666 24.2519 31.1676 23.7426L37.9435 18.8196C39.5109 17.6808 38.7053 15.2016 36.7679 15.2016H28.3924C27.526 15.2016 26.758 14.6437 26.4903 13.8196L23.9021 5.85408Z" fill="white"/>
</svg>
