<svg width="38" height="39" viewBox="0 0 38 39" fill="none" xmlns="http://www.w3.org/2000/svg">
<path fill-rule="evenodd" clip-rule="evenodd" d="M19 1.47521C13.6799 1.47521 9.22059 6.38106 9.22059 12.6244C9.22059 14.1077 9.82391 16.0729 10.7973 18.2474C11.7619 20.4022 13.054 22.6854 14.3552 24.7796C15.6549 26.8716 16.9558 28.7626 17.9323 30.1312C18.3601 30.7306 18.7251 31.2292 19 31.5998C19.2749 31.2292 19.6399 30.7306 20.0677 30.1312C21.0442 28.7626 22.3451 26.8716 23.6448 24.7796C24.946 22.6854 26.2381 20.4022 27.2027 18.2474C28.1761 16.0729 28.7794 14.1077 28.7794 12.6244C28.7794 6.38106 24.3201 1.47521 19 1.47521ZM19 33.9022L18.4455 33.1828L18.4374 33.1722L18.4141 33.1419C18.3938 33.1152 18.3638 33.0759 18.3248 33.0246C18.247 32.922 18.1332 32.7711 17.9887 32.5772C17.6997 32.1894 17.2876 31.6289 16.7933 30.9362C15.8052 29.5515 14.4867 27.6351 13.1669 25.5109C11.8485 23.3889 10.5212 21.0471 9.52117 18.8132C8.52995 16.599 7.82353 14.4119 7.82353 12.6244C7.82353 5.7848 12.7465 0.0847778 19 0.0847778C25.2535 0.0847778 30.1765 5.7848 30.1765 12.6244C30.1765 14.4119 29.47 16.599 28.4788 18.8132C27.4788 21.0471 26.1515 23.3889 24.8331 25.5109C23.5133 27.6351 22.1948 29.5515 21.2067 30.9362C20.7124 31.6289 20.3003 32.1894 20.0113 32.5772C19.8668 32.7711 19.753 32.922 19.6752 33.0246C19.6362 33.0759 19.6062 33.1152 19.5859 33.1419L19.5626 33.1722L19.5549 33.1822L19 33.9022Z" fill="white"/>
<path d="M2.70593 30.7106C1.87268 31.3436 1.58333 31.9112 1.58333 32.37C1.58333 32.8288 1.87268 33.3964 2.70593 34.0294C3.52822 34.654 4.76771 35.2502 6.3702 35.765C9.56648 36.7919 14.0319 37.44 19 37.44C23.9681 37.44 28.4335 36.7919 31.6298 35.765C33.2323 35.2502 34.4718 34.654 35.2941 34.0294C36.1273 33.3964 36.4167 32.8288 36.4167 32.37C36.4167 31.9112 36.1273 31.3436 35.2941 30.7106C34.4718 30.086 33.2323 29.4898 31.6298 28.975C29.9695 28.4416 27.9669 28.0104 25.7292 27.7191L26.5208 26.2524C28.6119 26.5519 30.507 26.9734 32.1207 27.4919C33.8132 28.0357 35.2403 28.7 36.2608 29.4752C37.2703 30.242 38 31.2134 38 32.37C38 33.5266 37.2703 34.498 36.2608 35.2648C35.2403 36.04 33.8132 36.7043 32.1207 37.2481C28.7268 38.3385 24.0881 39 19 39C13.9119 39 9.27317 38.3385 5.87933 37.2481C4.18676 36.7043 2.7597 36.04 1.7392 35.2648C0.729672 34.498 0 33.5266 0 32.37C0 31.2134 0.729672 30.242 1.7392 29.4752C2.7597 28.7 4.18676 28.0357 5.87933 27.4919C7.49301 26.9734 9.38812 26.5519 11.4792 26.2524L12.2708 27.7191C10.0331 28.0104 8.03046 28.4416 6.3702 28.975C4.76771 29.4898 3.52822 30.086 2.70593 30.7106Z" fill="white"/>
<path d="M21.8223 17H15.6699V16.2412C15.6699 15.9313 15.7132 15.6419 15.7998 15.373C15.8864 15.0996 16.0026 14.8444 16.1484 14.6074C16.2943 14.3659 16.4652 14.1403 16.6611 13.9307C16.8571 13.7165 17.0667 13.5114 17.29 13.3154C17.5133 13.1149 17.7412 12.9235 17.9736 12.7412C18.2061 12.5544 18.4339 12.3675 18.6572 12.1807C18.8669 12.0029 19.0583 11.8298 19.2314 11.6611C19.4046 11.488 19.5527 11.3102 19.6758 11.1279C19.7988 10.9456 19.8945 10.7542 19.9629 10.5537C20.0312 10.3486 20.0654 10.1276 20.0654 9.89062C20.0654 9.63086 20.0244 9.40527 19.9424 9.21387C19.8649 9.0179 19.7533 8.85612 19.6074 8.72852C19.4661 8.59635 19.2975 8.49837 19.1016 8.43457C18.9056 8.36621 18.6914 8.33203 18.459 8.33203C18.0579 8.33203 17.6501 8.42546 17.2354 8.6123C16.8206 8.79915 16.4219 9.07943 16.0391 9.45312V7.92871C16.2396 7.77832 16.4424 7.64844 16.6475 7.53906C16.8525 7.42513 17.0645 7.33171 17.2832 7.25879C17.502 7.18132 17.7321 7.12435 17.9736 7.08789C18.2152 7.05143 18.4727 7.0332 18.7461 7.0332C19.1882 7.0332 19.5892 7.09245 19.9492 7.21094C20.3092 7.32487 20.6169 7.49577 20.8721 7.72363C21.1273 7.94694 21.3232 8.22721 21.46 8.56445C21.6012 8.90169 21.6719 9.28906 21.6719 9.72656C21.6719 10.123 21.6217 10.4808 21.5215 10.7998C21.4258 11.1143 21.2868 11.4082 21.1045 11.6816C20.9268 11.9551 20.7103 12.2148 20.4551 12.4609C20.1999 12.707 19.915 12.96 19.6006 13.2197C19.3363 13.4339 19.0719 13.6436 18.8076 13.8486C18.5479 14.0492 18.3132 14.2474 18.1035 14.4434C17.8939 14.6348 17.723 14.8285 17.5908 15.0244C17.4632 15.2158 17.3994 15.4095 17.3994 15.6055V15.6396H21.8223V17Z" fill="white"/>
</svg>
