<svg width="26" height="36" viewBox="0 0 26 36" fill="none" xmlns="http://www.w3.org/2000/svg">
<path fill-rule="evenodd" clip-rule="evenodd" d="M17.1799 1.34445C17.1798 1.34446 17.1799 1.34444 17.1799 1.34445L1.31239 20.1C1.1302 20.3155 1.29804 20.6177 1.54167 20.6177H10.9502L6.30391 34.3477C6.3039 34.3478 6.30393 34.3477 6.30391 34.3477C6.26955 34.4494 6.28135 34.5212 6.30336 34.5725C6.32822 34.6305 6.37709 34.686 6.44481 34.7243C6.51258 34.7626 6.58253 34.7742 6.63962 34.7664C6.68886 34.7596 6.7523 34.7358 6.82015 34.6556L22.6876 15.9C22.8698 15.6846 22.702 15.3823 22.4583 15.3823H13.0498L17.6961 1.65228C17.6961 1.65224 17.6961 1.65233 17.6961 1.65228C17.7304 1.55059 17.7187 1.47883 17.6966 1.42752C17.6718 1.36955 17.6229 1.31399 17.5552 1.27572C17.4874 1.23743 17.4175 1.22578 17.3604 1.23366C17.3111 1.24045 17.2477 1.26429 17.1799 1.34445ZM16.2305 0.563309C17.3587 -0.770116 19.3946 0.483858 18.869 2.03798L14.7659 14.163H22.4583C23.7849 14.163 24.4688 15.6976 23.6372 16.6809L7.76954 35.4367C6.64131 36.7701 4.60545 35.5162 5.13097 33.962L9.23415 21.837H1.54167C0.215106 21.837 -0.468768 20.3025 0.362819 19.3191L16.2305 0.563309Z" fill="white"/>
<path d="M21.6121 29.7956C21.5975 29.7482 21.5545 29.7158 21.5057 29.7158C21.4686 29.7158 21.4213 29.7518 21.4103 29.7876L20.9239 31.4277C20.822 31.7712 21.0419 32.1291 21.355 32.1291H21.6703C21.9834 32.1291 22.2033 31.7699 22.1007 31.4262L21.6121 29.7956Z" fill="white"/>
<path fill-rule="evenodd" clip-rule="evenodd" d="M21.5261 36C23.9968 36 26 33.9685 26 31.4624C26 28.9564 23.9968 26.9249 21.5261 26.9249C19.0554 26.9249 17.0522 28.9564 17.0522 31.4624C17.0522 33.9685 19.0554 36 21.5261 36ZM23.7347 33.7955C23.8424 34.1308 23.6291 34.4875 23.3211 34.4875C23.1332 34.4875 22.9664 34.3504 22.9046 34.1453L22.6468 33.3003C22.5827 33.0889 22.4109 32.9475 22.2179 32.9475H20.8176C20.6225 32.9475 20.4484 33.0918 20.3858 33.3064L20.1411 34.1428C20.0814 34.3489 19.9147 34.4875 19.7268 34.4875C19.4217 34.4875 19.2105 34.1333 19.3176 33.8011L20.9363 28.7809C21.0026 28.5743 21.173 28.4374 21.3623 28.4374H21.7038C21.8939 28.4374 22.0642 28.5748 22.1305 28.7821L23.7347 33.7955Z" fill="white"/>
</svg>
