<svg width="38" height="39" viewBox="0 0 38 39" fill="none" xmlns="http://www.w3.org/2000/svg">
<path d="M1.51994 7.99998C1.12213 7.99998 0.715408 8.13952 0.427439 8.42748C0.13947 8.71545 -6.10352e-05 9.12217 -6.10352e-05 9.51998V36.88C-6.10352e-05 37.2778 0.13947 37.6845 0.427439 37.9725C0.715408 38.2605 1.12213 38.4 1.51994 38.4H28.8799C29.2778 38.4 29.6845 38.2605 29.9724 37.9725C30.2604 37.6845 30.3999 37.2778 30.3999 36.88L30.397 16.2731C30.3999 15.9999 30.2574 15.7446 30.0199 15.6051C29.7824 15.4685 29.4915 15.4685 29.254 15.6051C29.0165 15.7446 28.874 15.9999 28.877 16.2731L28.8799 36.88H1.51994V9.51998L21.7268 9.52295C21.9999 9.52592 22.2553 9.38342 22.3948 9.14592C22.5313 8.90842 22.5313 8.61748 22.3948 8.37998C22.2553 8.14248 21.9999 7.99998 21.7268 8.00295L1.51994 7.99998Z" fill="white"/>
<path fill-rule="evenodd" clip-rule="evenodd" d="M33.2222 6.74976L31.269 4.7911L15.7103 20.3927L14.4081 23.6571L17.6636 22.3514L33.2222 6.74976ZM31.269 3.37494L14.8592 19.83L12.6155 25.4547L18.2247 23.2048L34.6345 6.74976L31.269 3.37494Z" fill="white"/>
<rect width="4.76615" height="3.17743" rx="1" transform="matrix(0.70613 0.708082 -0.70613 0.708082 34.6345 0.00012207)" fill="white"/>
</svg>
