<svg width="30" height="30" viewBox="0 0 30 30" fill="none" xmlns="http://www.w3.org/2000/svg">
<path fill-rule="evenodd" clip-rule="evenodd" d="M15.2829 17.5328L3.51526 29.3004C2.89399 29.9217 1.88671 29.9217 1.26543 29.3004C0.64416 28.6791 0.644159 27.6718 1.26543 27.0506L13.0331 15.2829L1.26539 3.51528C0.64412 2.89401 0.644121 1.88673 1.26539 1.26545C1.88667 0.64418 2.89395 0.644183 3.51522 1.26545L15.2829 13.0331L27.0505 1.26545C27.6718 0.644183 28.6791 0.64418 29.3004 1.26545C29.9216 1.88673 29.9216 2.89401 29.3004 3.51528L17.5327 15.2829L29.3003 27.0506C29.9216 27.6718 29.9216 28.6791 29.3003 29.3004C28.6791 29.9217 27.6718 29.9217 27.0505 29.3004L15.2829 17.5328Z" fill="white"/>
</svg>
