<svg width="38" height="23" viewBox="0 0 38 23" fill="none" xmlns="http://www.w3.org/2000/svg">
<path d="M8.01024 3.7641C7.79273 3.67475 7.59515 3.54133 7.4294 3.37188C7.18507 3.12201 7.0196 2.80303 6.95432 2.4561C6.88904 2.10918 6.92695 1.75022 7.06316 1.42553C7.19938 1.10085 7.42765 0.825335 7.71852 0.634542C8.00939 0.443747 8.34951 0.346428 8.69502 0.355132L24.8664 0.353877C24.8749 0.353812 24.8834 0.35377 24.8919 0.35376H25.8254C25.834 0.35377 25.8425 0.353812 25.8509 0.353877L36.2282 0.355132C36.5737 0.346428 36.9138 0.443747 37.2047 0.634542C37.4956 0.825335 37.7238 1.10085 37.86 1.42553C37.9963 1.75022 38.0342 2.10918 37.9689 2.45611C37.9036 2.80303 37.7381 3.12201 37.4938 3.37188C37.3281 3.54133 37.1305 3.67475 36.913 3.7641C36.6955 3.85346 36.4625 3.8969 36.2281 3.89182L25.3587 3.88616L8.69506 3.89182C8.4607 3.8969 8.22775 3.85346 8.01024 3.7641Z" fill="white"/>
<ellipse cx="2.07695" cy="2.12308" rx="2.07695" ry="2.12308" fill="white"/>
<path d="M8.01024 12.9641C7.79273 12.8747 7.59515 12.7413 7.4294 12.5718C7.18507 12.322 7.0196 12.003 6.95432 11.6561C6.88904 11.3091 6.92695 10.9502 7.06316 10.6255C7.19938 10.3008 7.42765 10.0253 7.71852 9.83449C8.00939 9.6437 8.34951 9.54638 8.69502 9.55508L24.8664 9.55383C24.8749 9.55376 24.8834 9.55372 24.8919 9.55371H25.8254C25.834 9.55372 25.8425 9.55376 25.8509 9.55383L36.2282 9.55508C36.5737 9.54638 36.9138 9.6437 37.2047 9.83449C37.4956 10.0253 37.7238 10.3008 37.86 10.6255C37.9963 10.9502 38.0342 11.3091 37.9689 11.6561C37.9036 12.003 37.7381 12.322 37.4938 12.5718C37.3281 12.7413 37.1305 12.8747 36.913 12.9641C36.6955 13.0534 36.4625 13.0969 36.2281 13.0918L25.3587 13.0861L8.69506 13.0918C8.4607 13.0969 8.22775 13.0534 8.01024 12.9641Z" fill="white"/>
<ellipse cx="2.07695" cy="11.323" rx="2.07695" ry="2.12308" fill="white"/>
<path d="M8.01024 22.518C7.79273 22.4287 7.59515 22.2952 7.4294 22.1258C7.18507 21.8759 7.0196 21.5569 6.95432 21.21C6.88904 20.8631 6.92695 20.5041 7.06316 20.1794C7.19938 19.8548 7.42765 19.5792 7.71852 19.3884C8.00939 19.1977 8.34951 19.1003 8.69502 19.109L24.8664 19.1078C24.8749 19.1077 24.8834 19.1077 24.8919 19.1077H25.8254C25.834 19.1077 25.8425 19.1077 25.8509 19.1078L36.2282 19.109C36.5737 19.1003 36.9138 19.1977 37.2047 19.3884C37.4956 19.5792 37.7238 19.8548 37.86 20.1794C37.9963 20.5041 38.0342 20.8631 37.9689 21.21C37.9036 21.5569 37.7381 21.8759 37.4938 22.1258C37.3281 22.2952 37.1305 22.4287 36.913 22.518C36.6955 22.6074 36.4625 22.6508 36.2281 22.6457L25.3587 22.6401L8.69506 22.6457C8.4607 22.6508 8.22775 22.6074 8.01024 22.518Z" fill="white"/>
<ellipse cx="2.07695" cy="20.8769" rx="2.07695" ry="2.12308" fill="white"/>
</svg>
