<svg width="249" height="152" viewBox="0 0 249 152" fill="none" xmlns="http://www.w3.org/2000/svg">
<path d="M11.5854 151.674C10.99 151.942 10.3147 151.947 9.662 151.948C7.62917 151.95 5.59634 151.952 3.56351 151.954C2.42305 151.956 1.08615 151.856 0.465291 150.898C0.113393 150.355 0.0949829 149.669 0.0878668 149.022C0.0617808 146.649 0.0356948 144.277 0.0096087 141.905C0.000397195 141.067 0.00303838 140.182 0.425878 139.459C0.844343 138.744 1.66904 138.286 2.49677 138.311C3.32449 138.335 4.12094 138.84 4.49672 139.579C4.83209 140.238 4.83453 141.011 4.82963 141.751C4.81923 143.319 4.80884 144.887 4.79845 146.454C4.79631 146.778 4.89956 147.214 5.22253 147.208C6.5914 147.182 7.96026 147.156 9.32913 147.13C10.1759 147.114 11.0713 147.11 11.8031 147.537C12.5374 147.965 12.9999 148.822 12.9552 149.672C12.9105 150.522 12.3606 151.325 11.5854 151.674V151.674Z" fill="white"/>
<path d="M9.42285 0.0165063C10.2598 0.0169897 11.1448 0.0302862 11.8596 0.466267C12.5217 0.870139 12.9529 1.62877 12.9615 2.40504C12.97 3.18131 12.5557 3.94931 11.9027 4.36775C11.1434 4.85421 10.1824 4.85272 9.28114 4.83525C7.9439 4.80931 6.60665 4.78338 5.26941 4.75745C4.91494 4.75057 4.80088 5.22878 4.80246 5.58375C4.8091 7.08482 4.81574 8.58588 4.82238 10.087C4.82624 10.9593 4.81492 11.8868 4.34454 12.6212C3.5657 13.8371 1.53897 13.9365 0.645138 12.8027C0.00597642 11.9919 -0.0103171 10.869 0.00234268 9.83616C0.0294995 7.62056 0.0566561 5.40496 0.0838125 3.18937C0.0940332 2.35551 0.132619 1.44384 0.682776 0.817747C1.34194 0.0676051 2.46994 0.0124895 3.46783 0.0130659C5.45284 0.0142127 7.43785 0.0153595 9.42285 0.0165062V0.0165063Z" fill="white"/>
<path d="M54.4673 20.9888C55.3154 21.5111 55.6176 22.5788 55.8511 23.5479C56.8608 27.7399 57.8706 31.9318 58.8803 36.1238C59.4696 38.5701 61.5774 40.2929 63.4687 41.95C67.0328 45.0727 70.353 48.801 71.545 53.3902C72.1578 55.7494 72.1752 58.217 72.1889 60.6546C72.333 86.3599 72.4772 112.065 72.6213 137.771C72.6251 138.447 72.5985 139.202 72.1195 139.679C71.6534 140.143 70.9241 140.178 70.2666 140.185C53.7575 140.359 37.2484 140.533 20.7392 140.707C19.7649 140.717 18.6394 140.657 18.053 139.878C17.6522 139.346 17.6314 138.627 17.627 137.961C17.4516 110.847 17.2761 83.733 17.1006 56.6191C17.0926 55.3787 17.1009 54.0724 17.7148 52.995C20.5809 47.9649 24.3319 43.4421 28.7435 39.697C29.7401 38.8509 30.0434 37.4619 30.2884 36.1767C31.1124 31.8537 31.9363 27.5307 32.7603 23.2076C33.1002 21.4246 35.4149 20.9882 37.2274 20.9495C42.2662 20.8416 47.3051 20.7338 52.3439 20.6259C53.0723 20.6104 53.8467 20.6066 54.4673 20.9888ZM67.4051 56.1966C52.2138 56.1407 37.0217 56.3078 21.8353 56.6979C21.9916 82.8347 22.1479 108.971 22.3043 135.108C22.3058 135.362 22.3159 135.64 22.483 135.832C22.6856 136.064 23.035 136.078 23.3428 136.074C38.2012 135.898 53.0597 135.723 67.9182 135.547C67.7471 109.097 67.5761 82.6468 67.4051 56.1966ZM24.4314 51.9039C37.4333 51.7669 50.4352 51.63 63.4372 51.493C64.003 51.487 64.5689 51.481 65.1342 51.4565C61.3615 43.9653 53.071 39.0306 44.6929 39.1638C36.3148 39.2971 28.236 44.429 24.4314 51.9039V51.9039ZM37.0223 26.4509C36.3897 29.7009 35.7572 32.9508 35.1246 36.2007C41.0916 33.888 47.8705 33.7431 53.9306 35.7989C53.1298 32.5631 52.329 29.3272 51.5281 26.0913C51.4697 25.8551 51.3942 25.5949 51.1862 25.4691C51.0362 25.3784 50.8502 25.3796 50.675 25.3835C46.4104 25.4789 42.1458 25.5743 37.8812 25.6697C37.6955 25.6738 37.4982 25.6815 37.3445 25.786C37.1353 25.9282 37.0707 26.2025 37.0223 26.4509V26.4509Z" fill="white"/>
<path d="M44.7365 109.778C40.802 104.057 37.8352 100.042 34.3846 93.7689C33.9273 92.9376 33.4689 92.1041 33.1081 91.2264C31.3536 86.9591 32.1866 81.7394 35.1818 78.232C37.678 75.309 41.568 73.6354 45.4037 73.8366C49.2395 74.0378 52.9344 76.11 55.1074 79.2813C57.2804 82.4525 57.8814 86.6512 56.6833 90.3052C56.1959 91.7915 55.4367 93.1713 54.6819 94.541C51.3668 100.557 48.5556 103.989 44.7365 109.778ZM51.0565 84.5329C50.2656 81.9378 47.7308 79.9775 45.0232 79.867C42.3157 79.7564 39.6299 81.5036 38.6306 84.0256C37.6313 86.5476 38.3903 89.6632 40.4371 91.4412C42.4838 93.2193 45.6714 93.5321 48.0241 92.1859C50.594 90.7153 51.9205 87.3675 51.0565 84.5329Z" fill="white"/>
<path d="M77.238 27.8239C77.7472 28.2338 78.0689 29.0603 78.0385 29.8801C78.008 30.6999 77.6251 31.393 77.0883 31.7271C76.6776 31.9826 76.2124 31.986 75.7628 31.985C72.3964 31.9775 69.0318 32.0525 65.6654 32.045C65.1245 32.0438 64.5584 32.0341 64.082 31.6764C63.5213 31.2555 63.1675 30.3492 63.218 29.4628C63.2685 28.5764 63.7204 27.7596 64.3217 27.4678C64.6777 27.2951 65.0632 27.2975 65.4401 27.3018C68.8379 27.3404 72.2357 27.3791 75.6335 27.4177C76.1834 27.424 76.7614 27.4404 77.238 27.8239Z" fill="white"/>
<path d="M82.9943 32.0602C82.5118 32.0565 82.0192 32.0511 81.5635 31.8836C80.806 31.6053 80.2211 30.8592 80.1033 30.0209C79.9854 29.1827 80.3398 28.2892 80.9881 27.7902C81.6714 27.2642 82.5693 27.1953 83.4144 27.171C84.3537 27.144 85.3666 27.1725 86.121 27.7642C86.7379 28.248 87.0871 29.0879 87.0071 29.8952C86.9271 30.7025 86.4208 31.4477 85.7225 31.7859C85.1337 32.0711 84.4618 32.0714 83.8141 32.0665C83.5409 32.0644 83.2676 32.0623 82.9943 32.0602Z" fill="white"/>
<path d="M91.1154 32.0602C90.7748 32.0565 90.4271 32.0511 90.1054 31.8836C89.5707 31.6053 89.1578 30.8592 89.0747 30.0209C88.9915 29.1827 89.2416 28.2892 89.6992 27.7902C90.1816 27.2642 90.8154 27.1953 91.4119 27.171C92.0749 27.144 92.7899 27.1725 93.3225 27.7642C93.7579 28.248 94.0044 29.0879 93.9479 29.8952C93.8914 30.7025 93.534 31.4477 93.0411 31.7859C92.6255 32.0711 92.1513 32.0714 91.6941 32.0665C91.5012 32.0644 91.3083 32.0623 91.1154 32.0602Z" fill="white"/>
<path d="M77.9084 40.0701C78.2173 40.6465 78.1913 41.5328 77.8436 42.2752C77.4959 43.0176 76.8731 43.5053 76.2486 43.6026C75.7708 43.677 75.3413 43.4981 74.9278 43.3212C71.8316 41.9968 68.7049 40.7489 65.6088 39.4245C65.1113 39.2118 64.5939 38.9813 64.2948 38.4658C63.9427 37.859 63.9705 36.8867 64.3626 36.091C64.7547 35.2952 65.4892 34.7206 66.1566 34.6875C66.5517 34.6679 66.9057 34.8209 67.2509 34.9724C70.3638 36.3377 73.4768 37.7031 76.5897 39.0685C77.0936 39.2895 77.6193 39.5307 77.9084 40.0701Z" fill="white"/>
<path d="M81.5545 46.219C81.1117 46.0268 80.6602 45.8289 80.306 45.4964C79.7171 44.9438 79.4696 44.0283 79.688 43.2108C79.9064 42.3933 80.5811 41.7099 81.3725 41.5044C82.2068 41.2879 83.0604 41.576 83.8479 41.8844C84.7232 42.2272 85.6447 42.6499 86.1085 43.4897C86.4878 44.1764 86.4818 45.0859 86.0933 45.7975C85.7048 46.509 84.948 46.9966 84.1732 47.0345C83.5199 47.0665 82.9012 46.8037 82.3068 46.5457C82.056 46.4368 81.8052 46.3279 81.5545 46.219Z" fill="white"/>
<path d="M89.0299 49.3963C88.7178 49.2596 88.3997 49.1185 88.1688 48.8385C87.7851 48.373 87.6959 47.5248 87.9463 46.7208C88.1966 45.9168 88.7754 45.1925 89.3913 44.9124C90.0406 44.6172 90.651 44.8019 91.2097 45.0131C91.8307 45.2477 92.4779 45.5539 92.7375 46.3069C92.9497 46.9225 92.8491 47.792 92.4823 48.5128C92.1155 49.2336 91.4958 49.7795 90.91 49.8978C90.4161 49.9976 89.9794 49.8122 89.5603 49.6286C89.3835 49.5512 89.2067 49.4738 89.0299 49.3963Z" fill="white"/>
<path d="M76.5109 15.8643C77.1395 16.0422 77.7579 16.6766 78.0496 17.4428C78.3413 18.209 78.259 18.9965 77.895 19.514C77.6166 19.9099 77.1897 20.095 76.7754 20.2701C73.6734 21.5807 70.6051 22.9665 67.5031 24.2771C67.0047 24.4876 66.4798 24.7003 65.9017 24.5577C65.2214 24.3898 64.5423 23.6944 64.2432 22.8591C63.944 22.0238 64.0415 21.0955 64.4813 20.5917C64.7417 20.2935 65.0975 20.1448 65.4461 20.0013C68.5892 18.707 71.7323 17.4128 74.8754 16.1186C75.3841 15.9091 75.9226 15.6979 76.5109 15.8643Z" fill="white"/>
<path d="M83.4609 17.5114C83.0152 17.6969 82.5595 17.8847 82.0747 17.909C81.2687 17.9494 80.4393 17.4918 80.0039 16.7665C79.5685 16.0413 79.5463 15.0804 79.9485 14.3674C80.3725 13.6159 81.1724 13.2011 81.941 12.8479C82.7952 12.4554 83.7389 12.0851 84.6643 12.3343C85.4208 12.538 86.0699 13.1742 86.311 13.9484C86.5522 14.7226 86.3767 15.6065 85.8657 16.1911C85.4348 16.684 84.8164 16.9473 84.2181 17.1962C83.9657 17.3013 83.7133 17.4064 83.4609 17.5114Z" fill="white"/>
<path d="M90.9365 14.3344C90.6214 14.4643 90.2991 14.5954 89.9376 14.5673C89.3367 14.5204 88.6657 13.9955 88.2621 13.2566C87.8586 12.5177 87.7405 11.5976 87.9672 10.9592C88.2062 10.2863 88.7629 9.97483 89.3027 9.71893C89.9026 9.43453 90.572 9.18088 91.2932 9.51694C91.8828 9.7917 92.4373 10.4681 92.7001 11.2331C92.963 11.9982 92.9245 12.8239 92.6026 13.3281C92.3312 13.7533 91.8946 13.9392 91.4717 14.1136C91.2933 14.1872 91.1149 14.2608 90.9365 14.3344Z" fill="white"/>
<path d="M98.0941 151.944C97.425 151.944 96.7318 151.94 96.1236 151.661C95.3237 151.294 94.7716 150.44 94.7648 149.559C94.7579 148.678 95.2966 147.816 96.0907 147.436C96.7336 147.129 97.4751 147.133 98.1874 147.142C99.6266 147.162 101.066 147.181 102.505 147.2C102.826 147.205 102.929 146.772 102.927 146.45C102.92 144.894 102.912 143.337 102.905 141.78C102.902 141.028 102.906 140.242 103.252 139.575C103.672 138.764 104.602 138.248 105.512 138.323C106.421 138.398 107.256 139.058 107.538 139.927C107.692 140.398 107.691 140.903 107.689 141.399C107.681 143.746 107.673 146.093 107.665 148.44C107.66 149.65 107.522 151.098 106.455 151.669C105.97 151.928 105.395 151.935 104.845 151.936C102.594 151.938 100.344 151.941 98.0941 151.944Z" fill="white"/>
<path d="M95.7162 4.28686C94.5502 3.45084 94.5374 1.44052 95.6928 0.589739C96.4771 0.0121253 97.5263 -0.00521577 98.4999 0.000720223C100.555 0.0132503 102.61 0.0257804 104.666 0.0383105C105.396 0.0427604 106.184 0.0666203 106.76 0.515469C107.544 1.12631 107.628 2.26113 107.643 3.25564C107.678 5.70462 107.693 8.15389 107.687 10.6031C107.686 11.1026 107.682 11.6124 107.522 12.0855C107.24 12.9166 106.451 13.5511 105.579 13.6464C104.708 13.7418 103.8 13.293 103.346 12.5424C102.906 11.8151 102.897 10.9153 102.902 10.0649C102.91 8.50559 102.918 6.94626 102.926 5.38693C102.927 5.21452 102.921 5.02347 102.802 4.89853C102.673 4.76288 102.462 4.75743 102.276 4.76128C101.03 4.78693 99.7844 4.81258 98.5388 4.83823C97.5626 4.85833 96.5101 4.85601 95.7162 4.28686H95.7162Z" fill="white"/>
<path d="M132.988 45.318C133.086 45.515 133.185 45.719 133.283 45.932C133.65 46.308 133.969 46.587 134.23 46.761C134.541 46.968 134.949 47.193 135.443 47.429L135.881 47.648C135.959 47.68 136.061 47.726 136.175 47.781C137.029 47.74 137.836 47.586 138.576 47.32C139.446 47.016 140.265 46.623 141.018 46.149C141.785 45.645 142.545 45.078 143.261 44.474C143.989 43.837 144.719 43.176 145.438 42.504L145.836 42.106L148.05 40.066L149.6 42.964C149.69 43.122 149.776 43.291 149.852 43.462C149.958 43.63 150.052 43.809 150.134 44.001C150.646 44.976 151.208 45.94 151.773 46.798C152.156 47.364 152.631 47.817 153.214 48.165C153.249 48.148 153.285 48.132 153.32 48.117C153.841 47.919 154.348 47.881 155.027 47.983C155.978 47.373 156.833 46.643 157.57 45.808C158.44 44.827 159.23 43.743 159.922 42.583C160.624 41.406 161.267 40.153 161.834 38.861C162.443 37.504 163.025 36.153 163.584 34.802C164.033 33.738 164.48 32.693 164.926 31.659C165.337 30.706 165.784 29.762 166.255 28.846C166.17 28.205 166.045 27.645 165.883 27.179C165.717 26.62 165.498 26.17 165.22 25.799C164.913 25.341 164.573 24.961 164.177 24.625C163.966 24.437 163.735 24.25 163.483 24.064C163.393 24.216 163.3 24.379 163.208 24.55C162.942 25.06 162.658 25.652 162.362 26.311C162.058 26.965 161.76 27.653 161.462 28.388C161.188 29.096 160.908 29.831 160.629 30.577C160.225 31.622 159.824 32.636 159.424 33.624C159.015 34.61 158.591 35.542 158.161 36.403C157.748 37.252 157.298 38.039 156.828 38.732C156.349 39.45 155.822 40.029 155.265 40.447L152.759 42.379L152.158 41.521C151.929 41.193 151.762 40.84 151.661 40.473L151.64 40.374C151.594 40.098 151.548 39.833 151.502 39.58C151.444 39.231 151.416 38.892 151.416 38.558L151.422 37.569C151.446 37.347 151.484 37.075 151.533 36.754C151.582 36.435 151.667 35.993 151.79 35.428C151.907 34.888 152.083 34.09 152.318 33.033C152.383 32.706 152.453 32.346 152.522 31.976C152.625 31.559 152.703 31.211 152.771 30.874C152.837 30.523 152.894 30.194 152.939 29.899C152.977 29.73 153.006 29.592 153.028 29.477C152.975 29.387 152.918 29.303 152.857 29.224C152.681 28.964 152.524 28.741 152.346 28.495C152.229 28.339 152.092 28.171 151.945 28.003L151.865 27.899C151.776 27.765 151.682 27.622 151.584 27.47C151.199 27.314 150.833 27.098 150.491 26.824C150.416 26.761 150.345 26.699 150.275 26.637C150.127 26.814 149.973 27.012 149.814 27.23C149.372 27.812 148.922 28.446 148.467 29.128C148.006 29.819 147.545 30.546 147.084 31.306C146.645 32.071 146.205 32.806 145.778 33.495C145.32 34.274 144.908 34.968 144.555 35.557C144.222 36.127 143.884 36.671 143.545 37.179C143.226 37.67 142.858 38.165 142.459 38.639C142.067 39.104 141.586 39.622 141.03 40.179C140.612 40.597 140.176 40.996 139.733 41.365C139.366 41.683 138.942 42.005 138.487 42.308C138.013 42.642 137.558 42.874 137.117 43L135.646 43.42L135.851 41.904C135.97 41.028 136.088 40.222 136.206 39.488C136.354 38.718 136.486 38.087 136.605 37.562C136.752 36.926 136.898 36.366 137.044 35.879C137.208 35.293 137.44 34.573 137.727 33.759C138.003 32.952 138.283 32.114 138.562 31.252C138.87 30.375 139.146 29.533 139.4 28.702C139.593 28.105 139.752 27.553 139.875 27.046C139.533 26.772 139.222 26.496 138.947 26.22C138.579 25.83 138.216 25.387 137.85 24.889C137.749 24.842 137.645 24.788 137.54 24.728L137.455 24.674C137.409 24.641 137.363 24.606 137.318 24.57C137.172 24.664 137.025 24.792 136.88 24.953C136.486 25.389 136.103 25.932 135.743 26.568C135.395 27.198 135.058 27.918 134.747 28.696C134.453 29.488 134.173 30.257 133.917 30.979C133.65 31.757 133.375 32.722 133.102 33.835C132.85 34.96 132.605 36.091 132.372 37.211C132.138 38.312 131.928 39.328 131.741 40.262L131.435 42C131.586 42.448 131.745 42.848 131.908 43.193C132.116 43.633 132.359 44.131 132.637 44.686C132.723 44.815 132.855 45.053 132.988 45.318Z" fill="white" stroke="white"/>
<path d="M184.679 35.938C184.656 35.24 184.623 34.553 184.579 33.876C184.56 33.287 184.526 32.728 184.479 32.192C184.183 31.909 183.925 31.593 183.709 31.248C183.459 30.781 183.244 30.364 183.03 29.935C182.818 29.436 182.633 29.009 182.448 28.593C182.405 28.49 182.36 28.391 182.314 28.295C182.136 28.496 181.987 28.753 181.875 29.06C181.776 29.376 181.708 29.764 181.689 30.168C181.688 30.184 181.602 31.798 181.374 32.255C181.335 32.333 181.291 32.408 181.244 32.479C181.333 33.393 181.287 34.297 181.107 35.173C180.925 36.058 180.776 36.956 180.662 37.841L180.596 38.358L180.134 38.6C179.593 38.883 178.996 39.13 178.358 39.335C177.753 39.512 177.149 39.669 176.52 39.814C175.899 39.957 175.277 40.088 174.656 40.208C174.065 40.322 173.497 40.447 172.952 40.583L171.104 41.045L171.627 39.649C171.564 39.544 171.511 39.425 171.482 39.281L171.439 39.068L171.489 38.856C171.579 38.476 171.668 38.017 171.758 37.479C171.879 36.894 171.981 36.325 172.072 35.734C172.191 35.111 172.281 34.537 172.349 33.974C172.402 33.532 172.441 33.132 172.466 32.773C172.298 32.481 172.118 32.213 171.928 31.975C171.659 31.611 171.406 31.291 171.141 30.982C170.822 30.551 170.561 30.168 170.314 29.771C170.25 29.657 170.188 29.54 170.13 29.421C170.064 29.508 170.006 29.605 169.954 29.712C169.667 30.286 169.462 30.969 169.338 31.754C169.202 32.592 169.099 33.497 169.031 34.447C168.984 35.425 168.884 36.343 168.736 37.156L168.554 38.157L168.48 38.142C168.473 38.382 168.439 38.659 168.379 38.944C168.29 39.329 168.161 39.702 167.993 40.068C167.901 40.31 167.783 40.537 167.639 40.738C167.602 41.186 167.534 41.674 167.433 42.193C167.32 42.757 167.113 43.294 166.815 43.799C166.836 43.969 166.823 44.119 166.799 44.239C166.764 44.414 166.712 44.59 166.642 44.766C166.601 44.866 166.561 44.977 166.521 45.098L167.091 47.662L167.802 48.567C167.901 48.593 167.965 48.598 167.998 48.598C168.195 48.598 168.368 48.566 168.527 48.499C168.798 48.406 168.996 48.311 169.183 48.191C169.356 48.096 169.526 48.013 169.697 47.941C169.796 47.721 169.94 47.547 170.024 47.446C170.072 47.388 170.125 47.326 170.167 47.266C170.304 47.07 170.431 46.854 170.549 46.619C170.663 46.37 170.77 46.115 170.855 45.881C170.889 45.778 170.918 45.687 170.936 45.62V45.137L171.412 44.844C171.727 44.65 172.128 44.419 172.614 44.152C173.135 43.879 173.661 43.616 174.211 43.352C174.822 43.072 175.44 42.833 176.061 42.634C176.715 42.425 177.356 42.292 177.967 42.239L179.053 42.144V43.235C179.053 43.268 179.033 43.47 178.967 43.836C178.95 44.038 178.894 44.346 178.813 44.673C178.78 44.887 178.731 45.156 178.683 45.4C178.68 45.482 178.669 45.593 178.666 45.636C178.652 45.99 178.728 46.296 178.9 46.568C179.13 46.913 179.379 47.324 179.635 47.781C179.809 47.865 179.969 47.965 180.116 48.082L180.211 48.142C180.457 48.052 180.707 47.957 180.961 47.858C181.275 47.736 181.557 47.569 181.797 47.363C182.019 47.173 182.189 46.948 182.317 46.677C182.411 46.477 182.455 46.193 182.445 45.849C182.225 45.367 182.158 44.929 182.241 44.516C182.268 44.409 182.278 44.341 182.238 44.22L182.043 43.634L182.48 43.197C182.579 43.098 182.662 42.987 182.735 42.856C182.819 42.686 182.913 42.477 182.997 42.267C183.083 42.029 183.181 41.773 183.278 41.529C183.371 41.298 183.488 41.08 183.629 40.879C183.729 40.001 183.881 39.162 184.082 38.382C184.303 37.58 184.502 36.764 184.679 35.938Z" fill="white" stroke="white"/>
<path d="M204.953 40.87C205.18 40.668 205.371 40.464 205.527 40.26C205.484 40.223 205.443 40.185 205.403 40.145C205.332 40.074 205.254 40.01 205.169 39.954L205.116 39.917C205.115 39.924 205.064 39.915 204.978 39.908L204.761 39.891L204.57 39.785C204.312 39.642 204.11 39.475 203.966 39.286C203.938 39.29 203.91 39.295 203.884 39.299C203.857 39.305 203.798 39.323 203.739 39.346L203.321 39.513L203.061 39.383C203.046 39.383 203.032 39.383 203.015 39.383H202.34L202.088 38.755C201.883 38.24 201.713 37.692 201.584 37.129C201.465 36.578 201.347 36.025 201.229 35.459C201.158 35.054 201.081 34.69 200.993 34.337C200.915 33.908 200.829 33.542 200.722 33.181L200.683 32.946C200.662 32.499 200.619 32.092 200.556 31.737C200.502 31.3 200.446 30.92 200.379 30.541C200.338 30.383 200.295 30.156 200.267 29.929C200.264 29.908 200.248 29.805 200.163 29.553C200.063 29.488 199.942 29.432 199.802 29.388C199.452 29.279 199.081 29.18 198.688 29.093C198.408 29.012 198.209 28.959 198.02 28.917L197.92 28.89C197.798 28.849 197.687 28.808 197.585 28.765C197.118 29.449 196.641 30.073 196.177 30.603C195.583 31.253 194.897 31.758 194.122 32.117L193.858 32.24L193.208 32.153L193.1 32.181C193.034 32.197 192.976 32.213 192.927 32.23L192.694 32.334C192.483 32.624 192.299 32.907 192.147 33.178C191.985 33.503 191.801 33.883 191.618 34.274L191.115 35.28C190.948 35.59 190.755 35.917 190.523 36.281L190.647 36.652L190.447 36.897L189.884 38.022C189.735 38.366 189.552 38.756 189.357 39.147L187.709 42.514C187.233 43.531 186.765 44.619 186.323 45.738L186.302 46.1L186.343 46.534C186.385 46.624 186.419 46.722 186.445 46.825L186.526 47.223C186.549 47.341 186.574 47.47 186.597 47.609C186.596 47.603 186.618 47.632 186.671 47.706C186.853 47.833 187.019 47.971 187.166 48.119L187.485 48.352C187.493 48.351 187.508 48.349 187.522 48.347C187.641 48.322 187.778 48.296 187.946 48.265L188.003 48.061L188.402 47.861C188.456 47.834 188.518 47.807 188.59 47.779L188.789 47.65L189.143 47.473C189.154 47.465 189.165 47.455 189.176 47.446L189.177 47.442C189.173 47.13 189.208 46.817 189.286 46.509C189.4 46.131 189.513 45.805 189.64 45.479C189.703 45.31 189.769 45.123 189.835 44.924C189.894 44.746 189.943 44.569 189.983 44.391L190.046 44.107L190.252 43.901C190.288 43.865 190.325 43.831 190.364 43.798L190.429 43.573C190.443 43.476 190.467 43.376 190.502 43.271C190.602 42.86 190.889 42.627 191.108 42.517L191.142 42.5C191.225 42.212 191.335 41.932 191.469 41.663L191.62 41.361L191.606 41.363L191.725 41.15L192.983 38.634L193.012 38.894C193.022 38.878 193.032 38.863 193.042 38.848L193.464 38.215C193.744 37.715 194.127 37.109 194.564 36.478C195.022 35.851 195.486 35.288 195.956 34.787L197.304 32.541L197.932 34.772C198.146 35.533 198.348 36.307 198.538 37.092C198.726 37.841 198.902 38.572 199.067 39.28L199.301 40.285L198.289 40.487C197.563 40.632 196.887 40.743 196.278 40.816C195.691 40.866 195.07 40.912 194.384 40.958C194.169 40.994 193.952 40.972 193.652 41.021L193.255 41.087L193.356 41.998C193.366 42.076 193.396 42.162 193.448 42.255L193.636 42.591L193.549 42.966C193.542 42.995 193.538 43.017 193.536 43.034C193.608 43.124 193.675 43.201 193.738 43.264L193.727 43.28C193.882 43.381 193.993 43.511 194.073 43.651L194.255 43.674H194.719C195.177 43.674 195.595 43.643 195.96 43.582C196.343 43.5 196.757 43.4 197.158 43.289C197.497 43.192 197.829 43.106 198.15 43.032C198.646 42.926 199.164 42.941 199.766 43.061L200.508 43.209L200.567 43.964C200.635 44.848 200.481 45.506 200.098 45.975C199.885 46.269 199.534 46.524 199.042 46.729C199.215 46.894 199.354 47.058 199.455 47.216C199.586 47.41 199.708 47.702 199.68 48.103C199.735 48.133 199.789 48.166 199.843 48.201C199.951 48.264 200.083 48.353 200.201 48.442C200.205 48.442 200.242 48.458 200.327 48.482C200.638 48.452 200.93 48.371 201.215 48.235C201.576 48.064 201.903 47.854 202.184 47.61C202.485 47.348 202.743 47.051 202.95 46.733C203.19 46.371 203.366 46.031 203.479 45.713L203.512 45.628C203.535 45.316 203.53 45.01 203.498 44.715C203.455 44.339 203.404 43.972 203.342 43.616C203.293 43.46 203.256 43.316 203.23 43.184L203.21 42.988C203.21 42.902 203.203 42.816 203.189 42.731L203.065 41.989L203.744 41.664C204.197 41.448 204.604 41.181 204.953 40.87Z" fill="white" stroke="white"/>
<path d="M215.471 36.187C215.655 35.714 215.84 35.283 216.037 34.864C216.224 34.489 216.39 34.124 216.544 33.749C216.699 33.373 216.854 32.942 217.008 32.456L217.215 31.807L217.895 31.762C218.233 31.739 218.606 31.705 219.011 31.66C219.448 31.614 219.891 31.557 220.344 31.489C221.02 31.392 221.7 31.309 222.393 31.237C223.266 31.115 224.175 31.017 224.869 31.126H225.208C225.233 31.121 225.258 31.115 225.282 31.11L225.46 31.021C225.672 30.933 225.83 30.882 225.98 30.848C226.152 30.789 226.334 30.754 226.521 30.744L226.656 30.565L226.758 30.515C226.764 30.144 226.681 29.992 226.639 29.94C226.391 29.63 226.143 29.36 225.901 29.139L225.514 28.818C225.35 28.657 225.227 28.511 225.128 28.366C224.963 28.342 224.787 28.323 224.602 28.309C223.664 28.237 222.598 28.284 221.487 28.411C220.701 28.5 219.913 28.604 219.126 28.72C218.599 28.812 218.046 28.896 217.492 28.969L215.44 29.155L215.109 28.824C215.066 28.781 214.982 28.709 214.831 28.615C214.809 28.666 214.785 28.718 214.762 28.77L214.524 29.307L211.029 29.64C210.197 29.711 209.401 29.782 208.629 29.852C207.81 29.902 207.021 29.926 206.254 29.926L205.539 29.973C205.498 30.035 205.449 30.104 205.393 30.181C205.393 30.381 205.414 30.598 205.456 30.782C205.54 31.01 205.624 31.228 205.707 31.437L205.739 31.534C205.782 31.683 205.825 31.822 205.868 31.95C205.897 32.024 205.929 32.12 205.956 32.229L206.026 32.323C206.199 32.454 206.366 32.639 206.558 32.883C206.606 32.904 206.651 32.921 206.693 32.934C206.811 32.947 206.922 32.954 207.028 32.954H207.071C207.177 32.931 207.28 32.919 207.38 32.919H208.353C208.656 32.822 209.033 32.76 209.402 32.849H209.806C209.949 32.849 210.202 32.806 210.419 32.773C210.681 32.734 210.908 32.708 211.001 32.708H211.256C211.355 32.689 211.462 32.67 211.575 32.651C211.698 32.626 211.845 32.609 211.993 32.604C212.143 32.58 212.304 32.567 212.477 32.567H213.954L213.406 33.939C213.356 34.062 213.295 34.21 213.22 34.383C213.196 34.47 213.127 34.648 213.044 34.84L212.684 35.633C212.606 35.833 212.473 36.147 212.303 36.534L212.239 36.682L211.971 36.98C211.836 37.446 211.683 37.906 211.513 38.353L210.945 39.775C210.631 40.606 210.317 41.501 210.018 42.42C209.768 43.189 209.653 44.151 209.673 45.283C209.743 45.429 209.801 45.584 209.846 45.748C209.924 45.963 209.99 46.19 210.043 46.429C210.092 46.697 210.145 46.927 210.207 47.156C210.24 47.238 210.318 47.379 210.418 47.509L210.629 47.78V47.886C210.649 47.922 210.669 47.96 210.69 47.997C210.788 48.057 210.899 48.125 211.008 48.193C211.182 48.302 211.353 48.41 211.432 48.452C211.557 48.5 211.799 48.653 212.016 48.81H212.09C212.381 48.81 212.901 48.772 213.098 48.522C213.206 48.39 213.254 48.207 213.244 47.967C213.14 47.91 213.053 47.857 212.976 47.808C212.863 47.754 212.738 47.682 212.589 47.583L212.244 47.353L212.171 47.024C212.133 46.966 212.085 46.9 212.027 46.823L211.874 46.618L211.837 46.365C211.795 46.069 211.824 45.725 211.927 45.313L211.988 45.008C211.993 44.976 212.019 44.865 212.054 44.733C212.086 44.609 212.134 44.451 212.145 44.337C212.144 44.229 212.165 44.085 212.208 43.907C212.233 43.778 212.286 43.602 212.355 43.427L212.406 43.32C212.499 43.149 212.721 42.599 212.76 42.487C212.795 42.338 212.899 42.151 213.07 41.945L213.143 41.724C213.2 41.486 213.317 41.121 213.472 40.705C213.619 40.287 213.838 39.875 214.121 39.488C214.221 39.11 214.343 38.764 214.484 38.457C214.656 38.111 214.848 37.768 215.07 37.406C215.205 36.969 215.338 36.563 215.471 36.187Z" fill="white" stroke="white"/>
<path d="M152.984 71.059C153.13 70.961 153.274 70.864 153.413 70.766C153.41 70.73 153.405 70.715 153.405 70.714C153.251 70.438 153.095 70.242 152.898 70.062L152.613 69.8L152.578 69.415C152.569 69.308 152.533 69.206 152.471 69.101C152.352 68.903 152.214 68.705 152.055 68.508L151.992 68.421L151.5 67.646C151.395 67.481 151.301 67.311 151.218 67.136C149.953 66.817 148.741 66.693 147.594 66.77C146.247 66.838 144.932 67.04 143.669 67.373C142.364 67.716 141.063 68.111 139.804 68.546L139.23 68.747C138.58 68.975 137.52 69.346 136.892 69.583V69.691L136.167 69.898C135.703 70.031 135.196 70.2 134.661 70.4C134.133 70.576 133.654 70.796 133.202 71.063C132.735 71.318 132.32 71.623 131.939 71.983C131.684 72.238 131.477 72.556 131.32 72.938C131.348 73.326 131.32 73.657 131.234 73.942C131.205 74.071 131.168 74.228 131.124 74.411C131.273 74.735 131.331 75.066 131.298 75.4C131.28 75.558 131.253 75.743 131.215 75.96C131.267 76.041 131.32 76.117 131.375 76.19C131.467 76.285 131.558 76.385 131.645 76.489C131.989 76.556 132.276 76.741 132.463 77.019C132.495 77.063 132.526 77.11 132.554 77.159C133.189 77.403 133.844 77.581 134.506 77.688C135.353 77.822 136.262 77.913 137.206 77.958L137.388 77.983C137.821 78.085 138.189 78.188 138.495 78.289L139 77.953L139.504 78.222C139.912 78.446 140.429 78.656 141.041 78.846C141.718 79.056 142.372 79.314 142.987 79.612C143.053 79.628 143.118 79.65 143.182 79.676L144.03 79.959V80.389C144.114 80.477 144.185 80.578 144.241 80.69C144.374 80.957 144.4 81.259 144.317 81.59C144.208 81.989 144.046 82.328 143.83 82.615C143.633 82.849 143.463 83.032 143.28 83.215C143.078 83.392 142.933 83.527 142.788 83.672C142.791 83.672 142.752 83.751 142.723 83.85L142.598 84.264L142.212 84.457C141.57 84.777 140.906 85.133 140.219 85.522C139.503 85.918 138.738 86.288 137.937 86.627C137.14 86.976 136.26 87.256 135.332 87.457C134.528 87.635 133.664 87.698 132.763 87.65C132.738 87.78 132.73 87.927 132.742 88.089L132.812 89.003C132.86 89.274 132.844 89.574 132.764 89.863C132.794 89.965 132.823 90.076 132.855 90.2C132.862 90.227 132.869 90.256 132.876 90.283L132.879 90.284L133.071 90.812C133.131 90.976 133.202 91.114 133.282 91.222C133.314 91.257 133.352 91.297 133.393 91.342C133.468 91.339 133.543 91.337 133.619 91.337C133.746 91.337 133.873 91.342 134 91.352C134.298 91.373 134.591 91.384 134.873 91.384C135.029 91.393 135.111 91.396 135.189 91.396C135.328 91.396 135.456 91.386 135.573 91.366C135.858 91.318 136.252 91.251 136.364 91.228C136.559 91.195 136.691 91.185 136.82 91.192C137.75 90.91 138.701 90.563 139.652 90.163C140.637 89.725 141.595 89.206 142.485 88.628C143.367 88.047 144.168 87.368 144.859 86.612C145.521 85.887 146.035 85.059 146.387 84.149C146.572 83.722 146.637 83.339 146.604 82.94C146.581 82.395 146.55 81.828 146.509 81.205C146.372 80.924 146.187 80.658 145.957 80.412C145.654 80.047 145.435 79.712 145.281 79.386C145.003 79.296 144.677 79.067 144.457 78.518L144.368 78.295L144.389 78.056C144.401 77.93 144.379 77.775 144.324 77.597C144.258 77.366 144.161 77.174 144.023 76.989C143.887 76.807 143.724 76.66 143.525 76.537C143.328 76.403 143.14 76.346 142.903 76.332L142.167 76.291L141.993 75.596C141.809 75.494 141.649 75.436 141.468 75.394L140.607 75.179C140.063 75.001 139.679 74.734 139.392 74.366L139.063 73.944L139.138 73.72C139.064 73.509 139.047 73.271 139.096 73.029L139.241 72.304L139.977 72.23C140.423 72.186 140.847 72.13 141.248 72.063C141.443 72.018 141.633 71.932 141.759 71.817L142.108 71.5L142.574 71.567C142.776 71.595 142.998 71.578 143.244 71.516C143.582 71.409 143.975 71.298 144.369 71.2C144.818 71.067 145.291 70.994 145.737 70.994C145.74 70.994 145.744 70.994 145.748 70.994C146.217 70.994 146.62 71.113 146.966 71.342C147.713 71.265 148.535 71.197 149.432 71.137C150.452 71.068 151.484 71.141 152.508 71.356C152.669 71.262 152.829 71.162 152.984 71.059Z" fill="white" stroke="white"/>
<path d="M161.466 79.187C161.65 78.714 161.834 78.283 162.031 77.864C162.218 77.489 162.384 77.124 162.538 76.749C162.693 76.373 162.847 75.942 163.002 75.456L163.209 74.807L163.889 74.762C164.227 74.739 164.599 74.705 165.005 74.66C165.442 74.614 165.884 74.557 166.338 74.489C167.014 74.392 167.694 74.309 168.387 74.237C169.259 74.115 170.168 74.016 170.862 74.126H171.2C171.225 74.121 171.25 74.115 171.274 74.11L171.452 74.021C171.664 73.933 171.822 73.882 171.972 73.848C172.144 73.789 172.325 73.754 172.514 73.744L172.648 73.565L172.749 73.515C172.756 73.144 172.672 72.992 172.631 72.94C172.383 72.63 172.134 72.36 171.892 72.139L171.506 71.818C171.341 71.657 171.218 71.511 171.12 71.366C170.954 71.342 170.779 71.323 170.593 71.309C169.655 71.236 168.59 71.284 167.479 71.411C166.695 71.503 165.907 71.607 165.12 71.723C164.593 71.815 164.04 71.899 163.487 71.972L161.435 72.159L161.104 71.828C161.061 71.785 160.978 71.713 160.826 71.619C160.803 71.67 160.78 71.722 160.756 71.774L160.518 72.311L157.024 72.644C156.191 72.715 155.396 72.786 154.624 72.856C153.804 72.906 153.015 72.93 152.249 72.93L151.534 72.977C151.493 73.039 151.444 73.108 151.388 73.185C151.388 73.385 151.41 73.602 151.451 73.786C151.534 74.014 151.618 74.232 151.701 74.441L151.734 74.538C151.776 74.687 151.819 74.826 151.862 74.954C151.892 75.028 151.924 75.124 151.951 75.233L152.021 75.327C152.193 75.458 152.361 75.643 152.553 75.887C152.6 75.908 152.645 75.925 152.688 75.938C152.806 75.951 152.917 75.958 153.023 75.958H153.066C153.172 75.935 153.274 75.923 153.374 75.923H154.347C154.649 75.826 155.026 75.764 155.396 75.853H155.8C155.962 75.853 156.102 75.825 156.23 75.767L156.587 75.604L156.958 75.728C156.911 75.712 156.95 75.713 156.995 75.712H157.25C157.349 75.693 157.456 75.674 157.569 75.655C157.693 75.63 157.839 75.613 157.987 75.608C158.137 75.584 158.298 75.571 158.471 75.571H159.948L159.4 76.938C159.35 77.061 159.289 77.209 159.214 77.382C159.189 77.469 159.121 77.647 159.038 77.839L158.678 78.632C158.599 78.832 158.467 79.146 158.297 79.533L158.233 79.681L157.965 79.979C157.831 80.445 157.677 80.906 157.507 81.352L156.939 82.773C156.625 83.604 156.311 84.5 156.012 85.419C155.762 86.188 155.646 87.149 155.667 88.282C155.737 88.428 155.795 88.583 155.84 88.747C155.918 88.961 155.984 89.188 156.037 89.428C156.087 89.696 156.139 89.925 156.202 90.156C156.235 90.238 156.313 90.379 156.413 90.508L156.623 90.779V90.941C156.753 91.003 156.914 91.079 157.097 91.163L157.353 91.281L157.478 91.468C157.57 91.504 157.678 91.545 157.803 91.592L158.265 91.805C158.556 91.789 158.932 91.727 159.093 91.522C159.201 91.391 159.248 91.208 159.239 90.967C159.136 90.911 159.047 90.858 158.972 90.808C158.858 90.754 158.733 90.682 158.585 90.583L158.24 90.354L158.167 90.025C158.129 89.967 158.081 89.901 158.023 89.824L157.869 89.62L157.833 89.366C157.791 89.07 157.82 88.725 157.923 88.314L157.983 88.008C157.988 87.977 158.014 87.865 158.049 87.733C158.082 87.61 158.13 87.452 158.14 87.337C158.139 87.229 158.16 87.084 158.204 86.907C158.229 86.777 158.281 86.602 158.351 86.427L158.402 86.32C158.495 86.148 158.717 85.598 158.757 85.487C158.791 85.338 158.895 85.15 159.066 84.945L159.14 84.724C159.197 84.486 159.313 84.121 159.469 83.704C159.616 83.287 159.836 82.874 160.118 82.488C160.218 82.11 160.34 81.763 160.482 81.457C160.654 81.111 160.846 80.768 161.068 80.406C161.2 79.969 161.333 79.563 161.466 79.187Z" fill="white" stroke="white"/>
<path d="M187.018 91.145C187.038 91.056 187.061 90.961 187.068 90.89C187.085 90.701 187.076 90.499 187.043 90.301C187.013 90.108 186.95 89.936 186.849 89.762C186.788 89.634 186.732 89.532 186.677 89.445C186.339 89.416 186.061 89.393 185.843 89.377L184.911 89.226C184.565 89.143 184.265 89.077 183.93 89.009C183.535 88.9 183.083 88.787 182.495 88.652C181.872 88.508 181.381 88.388 181.021 88.292C180.586 88.141 180.242 88 179.911 87.848C179.573 87.679 179.237 87.486 178.875 87.253C178.549 87.044 178.107 86.765 177.55 86.416L176.964 86.05L177.009 85.824C176.919 85.658 176.869 85.464 176.869 85.252V84.59L177.478 84.331C178.284 83.989 179.196 83.669 180.189 83.378C181.095 83.113 181.957 82.788 182.75 82.414C183.462 82.058 184.087 81.598 184.588 81.057C185.046 80.58 185.29 79.969 185.344 79.173L185.359 79.021L185.266 78.816C185.223 78.641 185.201 78.481 185.201 78.327C185.201 78.264 185.205 78.2 185.213 78.135C185.077 77.854 184.953 77.565 184.843 77.272C184.698 76.862 184.56 76.481 184.421 76.112C184.295 75.754 184.154 75.442 183.997 75.167C183.85 74.86 183.707 74.664 183.521 74.494L183.197 74.197V73.882C183.181 73.871 183.165 73.861 183.15 73.851L182.998 73.726C182.975 73.703 182.919 73.656 182.801 73.597L182.554 73.473L182.406 73.241C182.113 72.783 181.748 72.427 181.292 72.153C180.813 71.835 180.386 71.538 179.994 71.253C179.439 71.356 178.982 71.557 178.603 71.863C178.088 72.296 177.594 72.812 177.147 73.386C176.668 74.001 176.195 74.648 175.739 75.309C175.206 76.056 174.593 76.695 173.908 77.221L172.887 78.007L172.486 77.072C172.403 77.321 172.331 77.58 172.269 77.849C172.129 78.455 171.989 79.074 171.849 79.704C171.735 80.322 171.59 80.986 171.421 81.663C171.294 82.236 171.121 82.827 170.911 83.404C170.919 83.506 170.923 83.618 170.923 83.741C170.923 83.944 170.909 84.161 170.88 84.392C170.849 84.608 170.807 84.79 170.75 84.956C170.746 85.009 170.743 85.076 170.739 85.148C170.724 85.419 170.701 85.739 170.655 85.954C170.575 86.323 170.469 86.697 170.338 87.064C170.272 87.302 170.197 87.625 170.133 87.967C170.083 88.236 170.032 88.517 169.982 88.81C170.026 88.899 170.066 88.988 170.105 89.077C170.115 89.1 170.358 89.668 170.413 89.942C170.425 89.986 170.442 90.061 170.461 90.149C170.496 90.237 170.526 90.33 170.551 90.429C170.562 90.443 170.573 90.456 170.584 90.47C170.729 90.655 170.878 90.844 170.964 91.079C171.015 91.098 171.064 91.118 171.11 91.142C171.232 91.213 171.319 91.266 171.387 91.308C171.549 91.165 171.798 91.016 172.158 90.965C172.357 90.668 172.511 90.384 172.617 90.118C172.819 89.647 173.04 88.969 173.284 88.079L173.712 86.523L174.915 87.599C175.365 88.001 175.744 88.345 176.051 88.629C176.323 88.861 176.65 89.111 176.994 89.348C177.316 89.535 177.753 89.77 178.246 90.016C178.727 90.224 179.407 90.5 180.235 90.823C181.865 91.457 183.22 91.89 184.264 92.112C185.194 92.33 185.909 92.328 186.437 92.123L186.666 92.063C186.702 92.035 186.739 91.993 186.775 91.938L186.941 91.689C186.94 91.501 186.98 91.317 187.018 91.145ZM174.991 81.791L175.232 80.466C175.348 79.827 175.559 79.26 175.86 78.779C176.115 78.344 176.419 77.931 176.747 77.576C177.062 77.237 177.375 76.911 177.689 76.598C177.988 76.319 178.236 76.032 178.451 75.719L178.87 75.109L179.576 75.332C180.193 75.527 180.768 75.919 181.285 76.498C181.834 77.078 182.184 77.857 182.305 78.795L182.403 79.556L181.694 79.848C180.899 80.175 180.058 80.526 179.17 80.9C178.181 81.291 177.232 81.537 176.329 81.639L174.991 81.791Z" fill="white" stroke="white"/>
<path d="M206.086 72.823C205.819 72.682 205.565 72.529 205.324 72.364L205.131 72.212C204.918 72.042 204.664 71.835 204.488 71.703L204.367 71.705C204.263 71.705 204.041 71.705 203.792 71.632C202.915 71.794 202.113 71.919 201.405 72.005C200.645 72.097 199.908 72.201 199.194 72.316C198.494 72.41 197.789 72.535 197.069 72.692C196.382 72.847 195.572 73.075 194.668 73.369C194.057 73.512 193.556 73.619 193.079 73.715C192.658 73.799 192.267 73.905 191.915 74.029C191.597 74.141 191.293 74.294 191.012 74.481C190.901 74.553 190.799 74.634 190.707 74.726C190.77 75.008 190.819 75.29 190.853 75.571C190.897 75.919 190.952 76.274 191.018 76.629C191.076 76.914 191.167 77.229 191.289 77.552C191.367 77.713 191.54 77.94 191.771 78.155L192.258 78.609L192.029 79.234C191.852 79.712 191.661 80.16 191.458 80.566C191.298 80.909 191.114 81.277 190.919 81.644C190.782 81.941 190.62 82.296 190.46 82.664C190.362 82.889 190.146 83.264 189.955 83.584C189.871 83.727 189.794 83.854 189.749 83.938C189.663 84.25 189.445 84.935 189.116 85.331C189.026 85.452 188.948 85.631 188.907 85.836C188.852 86.088 188.837 86.364 188.854 86.671C188.893 86.996 188.95 87.39 189.018 87.796C189.086 88.181 189.155 88.565 189.225 88.936C189.252 89.057 189.426 89.454 189.518 89.666C189.662 89.993 189.748 90.197 189.797 90.37C189.807 90.392 189.83 90.429 189.885 90.476C190.247 90.835 190.655 91.047 191.176 91.169C191.832 91.343 192.502 91.439 193.195 91.459C193.915 91.483 194.63 91.448 195.326 91.361C196.043 91.271 196.664 91.17 197.171 91.059L197.384 91.037C197.679 91.037 197.95 91.078 198.193 91.159L198.207 91.163C199.115 90.99 199.896 90.85 200.596 90.734C201.263 90.627 201.866 90.476 202.39 90.288C202.858 90.119 203.257 89.884 203.609 89.569C203.757 89.426 204.028 88.868 204.152 88.527C204.133 88.464 204.118 88.398 204.104 88.332C203.934 88.269 203.778 88.177 203.635 88.06C203.473 87.924 203.309 87.775 203.147 87.612L203.04 87.486C202.958 87.37 202.868 87.254 202.77 87.137C202.319 87.264 201.833 87.365 201.324 87.438C200.794 87.497 200.363 87.624 200.012 87.816L199.772 87.948L199.499 87.939C198.813 87.92 198.239 87.939 197.809 88.001C197.288 88.052 196.826 88.107 196.374 88.176C195.839 88.231 195.316 88.267 194.757 88.291C194.194 88.318 193.459 88.268 192.6 88.141L191.379 87.961L191.808 86.804C192.058 86.13 192.349 85.484 192.675 84.882C193.002 84.278 193.374 83.701 193.779 83.17L194.212 82.602L194.891 82.829C195.069 82.888 195.282 82.918 195.524 82.918C195.601 82.911 195.821 82.906 196.065 82.906C196.219 82.906 197.008 82.909 197.388 82.963C197.598 82.993 198.001 82.965 198.145 82.958L198.547 82.953L198.823 82.959C199.187 82.959 199.517 82.921 199.804 82.846C200.175 82.734 200.552 82.581 200.891 82.402C201.29 82.202 201.652 81.989 201.988 81.758C202.183 81.612 202.388 81.46 202.598 81.311C202.563 81.295 202.529 81.28 202.494 81.262L202.36 81.181C202.152 81.033 201.944 80.855 201.742 80.653L201.25 80.161C201.092 79.984 200.984 79.882 200.884 79.81L200.801 79.751C200.244 79.719 199.281 79.689 198.675 79.746C197.635 79.845 196.663 79.856 195.789 79.782L195.231 79.734L194.98 79.233C194.839 78.953 194.769 78.625 194.769 78.258C194.781 78.097 194.773 78.048 194.749 77.996L194.302 76.989L195.347 76.641C195.57 76.567 195.792 76.504 196.015 76.453C196.06 76.435 196.093 76.414 196.117 76.391L196.452 76.056L196.924 76.103C197.228 76.134 197.44 76.094 197.442 76.094C197.821 75.922 198.19 75.873 198.573 75.926C199.331 75.514 200.099 75.235 200.865 75.095C201.674 74.952 202.454 74.823 203.21 74.704C203.851 74.583 204.474 74.393 205.032 74.145C205.407 73.97 205.768 73.651 206.098 73.198C206.092 73.148 206.09 73.101 206.09 73.055V72.823H206.086Z" fill="white" stroke="white"/>
<path d="M224.299 72.823C224.032 72.682 223.778 72.529 223.537 72.364L223.344 72.212C223.131 72.042 222.877 71.835 222.701 71.703L222.58 71.705C222.476 71.705 222.254 71.705 222.005 71.632C221.128 71.794 220.326 71.919 219.618 72.005C218.858 72.097 218.121 72.201 217.407 72.316C216.707 72.41 216.002 72.535 215.282 72.692C214.595 72.847 213.785 73.075 212.881 73.369C212.27 73.512 211.769 73.619 211.292 73.715C210.871 73.799 210.48 73.905 210.128 74.029C209.81 74.141 209.506 74.294 209.225 74.481C209.114 74.553 209.012 74.634 208.92 74.726C208.983 75.008 209.032 75.29 209.066 75.571C209.11 75.919 209.165 76.274 209.231 76.629C209.289 76.914 209.38 77.229 209.502 77.552C209.58 77.713 209.753 77.94 209.984 78.155L210.471 78.609L210.242 79.234C210.065 79.712 209.874 80.16 209.671 80.566C209.511 80.909 209.327 81.277 209.132 81.644C208.995 81.941 208.833 82.296 208.673 82.664C208.511 83.035 207.685 84.903 207.329 85.33C207.24 85.451 207.161 85.63 207.12 85.835C207.066 86.087 207.05 86.363 207.067 86.67C207.107 86.995 207.164 87.389 207.231 87.795C207.299 88.18 207.369 88.564 207.438 88.935C207.481 89.163 207.516 89.378 207.542 89.582C207.771 89.799 207.932 90.067 208.012 90.373C208.023 90.395 208.046 90.431 208.098 90.476C208.46 90.835 208.868 91.047 209.389 91.169C210.045 91.343 210.715 91.439 211.408 91.459C212.128 91.483 212.843 91.448 213.539 91.361C214.256 91.271 214.877 91.17 215.384 91.059L215.597 91.037C215.892 91.037 216.163 91.078 216.406 91.159L216.42 91.163C217.328 90.99 218.109 90.85 218.809 90.734C219.476 90.627 220.079 90.476 220.603 90.288C221.071 90.119 221.47 89.884 221.822 89.569C221.97 89.426 222.241 88.868 222.365 88.527C222.346 88.464 222.331 88.398 222.317 88.332C222.147 88.269 221.991 88.177 221.848 88.06C221.686 87.924 221.522 87.775 221.36 87.612L221.253 87.486C221.171 87.37 221.081 87.254 220.983 87.137C220.532 87.264 220.046 87.365 219.537 87.438C219.007 87.497 218.576 87.624 218.225 87.816L217.985 87.948L217.712 87.939C217.024 87.92 216.453 87.939 216.022 88.001C215.501 88.052 215.039 88.107 214.587 88.176C214.052 88.231 213.529 88.267 212.97 88.291C212.407 88.318 211.672 88.268 210.813 88.141L209.592 87.961L210.021 86.804C210.271 86.13 210.562 85.484 210.888 84.882C211.215 84.278 211.587 83.701 211.992 83.17L212.425 82.602L213.104 82.829C213.282 82.888 213.495 82.918 213.737 82.918C213.758 82.915 213.841 82.912 213.92 82.912C214.183 82.912 214.431 82.94 214.661 82.997C214.94 82.926 215.241 82.912 215.601 82.963C215.645 82.969 215.694 82.974 215.741 82.974L216.323 82.61L216.761 82.954L217.037 82.96C217.401 82.96 217.731 82.922 218.018 82.847C218.389 82.735 218.766 82.582 219.105 82.403C219.504 82.203 219.866 81.99 220.202 81.759C220.397 81.613 220.602 81.461 220.812 81.312C220.777 81.296 220.743 81.281 220.708 81.263L220.574 81.182C220.366 81.034 220.158 80.856 219.956 80.654L219.464 80.162C219.333 80.014 219.221 79.881 219.125 79.759C218.587 79.725 217.536 79.687 216.889 79.747C215.848 79.846 214.877 79.857 214.003 79.783L213.445 79.735L213.194 79.234C213.053 78.954 212.983 78.626 212.983 78.259C212.995 78.098 212.987 78.049 212.963 77.997L212.516 76.99L213.561 76.642C213.784 76.568 214.006 76.505 214.229 76.454C214.274 76.436 214.307 76.415 214.331 76.392L214.666 76.057L215.138 76.104C215.443 76.135 215.654 76.095 215.656 76.095C216.035 75.923 216.404 75.874 216.787 75.927C217.545 75.515 218.313 75.236 219.079 75.096C219.888 74.953 220.668 74.824 221.424 74.705C222.065 74.584 222.688 74.394 223.246 74.146C223.621 73.971 223.982 73.652 224.312 73.199C224.306 73.149 224.304 73.102 224.304 73.056V72.823H224.299Z" fill="white" stroke="white"/>
<path d="M236.012 79.185C236.195 78.714 236.379 78.284 236.575 77.866C236.764 77.488 236.929 77.124 237.084 76.749C237.241 76.371 237.395 75.94 237.549 75.456L237.755 74.807L238.435 74.762C238.773 74.739 239.146 74.705 239.552 74.66C239.988 74.614 240.431 74.557 240.886 74.489C241.56 74.392 242.24 74.309 242.935 74.237C243.807 74.116 244.722 74.019 245.41 74.126H245.748C245.773 74.121 245.799 74.115 245.823 74.109L246.005 74.018C246.211 73.933 246.369 73.881 246.522 73.846C246.637 73.806 246.756 73.778 246.88 73.76L247.288 73.524C247.291 73.521 247.293 73.517 247.297 73.514C247.305 73.141 247.221 72.99 247.18 72.938C246.931 72.628 246.682 72.358 246.44 72.135L246.056 71.818C245.889 71.654 245.766 71.507 245.668 71.364C245.502 71.34 245.326 71.321 245.141 71.306C244.205 71.234 243.136 71.281 242.028 71.408C241.243 71.5 240.455 71.604 239.668 71.72C239.141 71.812 238.588 71.896 238.036 71.969L235.979 72.157L235.648 71.823C235.606 71.781 235.524 71.711 235.374 71.616C235.351 71.667 235.327 71.719 235.304 71.771L235.066 72.308L231.572 72.641C230.74 72.712 229.944 72.783 229.174 72.853C228.353 72.903 227.564 72.927 226.798 72.927H226.19L226.003 73.09C225.982 73.119 225.959 73.151 225.936 73.183C225.936 73.381 225.957 73.599 225.999 73.781C226.084 74.01 226.166 74.229 226.25 74.439C226.325 74.682 226.368 74.822 226.411 74.951C226.442 75.022 226.474 75.119 226.501 75.231L226.574 75.328C226.747 75.461 226.914 75.645 227.101 75.884C227.149 75.905 227.194 75.922 227.237 75.935C227.354 75.948 227.466 75.955 227.571 75.955H227.614C227.72 75.932 227.823 75.92 227.924 75.92H228.897C229.199 75.823 229.578 75.761 229.947 75.85H230.349C230.492 75.85 230.746 75.807 230.962 75.774C231.224 75.735 231.452 75.709 231.545 75.709H231.799C231.899 75.69 232.005 75.671 232.12 75.652C232.241 75.627 232.386 75.61 232.538 75.605C232.686 75.581 232.849 75.568 233.02 75.568H234.497L233.949 76.94C233.899 77.065 233.838 77.214 233.761 77.389C233.74 77.467 233.672 77.647 233.588 77.842L233.227 78.635C233.149 78.835 233.016 79.149 232.846 79.536L232.782 79.683L232.514 79.981C232.379 80.446 232.227 80.906 232.057 81.352L231.487 82.777C231.18 83.588 230.866 84.484 230.561 85.421C230.313 86.185 230.197 87.148 230.217 88.284C230.286 88.429 230.344 88.584 230.389 88.746C230.467 88.962 230.533 89.189 230.586 89.43C230.635 89.696 230.688 89.926 230.751 90.158C230.783 90.236 230.863 90.382 230.964 90.512L231.173 90.782V90.886C231.186 90.91 231.199 90.936 231.213 90.961C231.341 91.023 231.485 91.09 231.647 91.165L231.903 91.283L232.026 91.469C232.118 91.504 232.225 91.546 232.351 91.593L232.82 91.806C233.11 91.789 233.483 91.726 233.644 91.522C233.75 91.392 233.797 91.209 233.788 90.968C233.686 90.912 233.598 90.859 233.522 90.81C233.409 90.757 233.286 90.686 233.135 90.586L232.785 90.354L232.716 90.026C232.676 89.967 232.626 89.898 232.569 89.82L232.421 89.619L232.384 89.373C232.34 89.075 232.368 88.74 232.472 88.318L232.531 88.017C232.539 87.973 232.564 87.868 232.597 87.741C232.63 87.617 232.679 87.455 232.689 87.339C232.689 87.235 232.708 87.102 232.752 86.918C232.781 86.774 232.834 86.602 232.902 86.429L232.951 86.324C233.037 86.166 233.24 85.67 233.301 85.507C233.36 85.317 233.462 85.135 233.617 84.948L233.689 84.728C233.748 84.485 233.863 84.121 234.02 83.705C234.166 83.29 234.384 82.878 234.667 82.491C234.766 82.118 234.888 81.772 235.029 81.462C235.202 81.114 235.396 80.772 235.618 80.409C235.746 79.968 235.878 79.561 236.012 79.185Z" fill="white" stroke="white"/>
<path d="M153.465 123.965C153.422 123.922 153.338 123.85 153.185 123.754L153.081 123.68C153.085 123.689 153.004 123.667 152.844 123.659L152.546 123.64L152.307 123.46C152.172 123.359 152.055 123.258 151.954 123.156C151.86 123.062 151.78 122.968 151.71 122.875C151.547 122.898 151.407 122.936 151.288 122.985L150.865 123.162L150.598 123.028C150.564 123.027 150.525 123.027 150.481 123.027H149.814L149.558 122.412C149.303 121.801 149.097 121.155 148.944 120.494C148.798 119.839 148.667 119.167 148.547 118.471C148.461 118.044 148.359 117.591 148.246 117.137C148.144 116.609 148.042 116.147 147.93 115.696L147.901 115.494C147.879 114.947 147.835 114.451 147.771 114.02C147.702 113.536 147.622 113.059 147.531 112.582L147.379 111.872C147.362 111.726 147.34 111.567 147.311 111.397L147.299 111.376C147.16 111.27 146.96 111.177 146.714 111.103C146.236 110.937 145.785 110.804 145.328 110.696C144.98 110.585 144.728 110.508 144.488 110.442C144.262 110.38 144.075 110.317 143.917 110.248C143.335 111.13 142.725 111.932 142.121 112.606C141.446 113.362 140.648 113.953 139.751 114.36L139.474 114.486L138.681 114.354L138.272 114.512L138.104 114.514C137.762 114.935 137.505 115.311 137.297 115.689C137.087 116.111 136.87 116.568 136.665 117.024C136.46 117.461 136.249 117.869 136.027 118.264C135.863 118.594 135.622 118.996 135.324 119.435C135.253 120.006 134.676 121.331 134.564 121.544L133.95 122.842C133.265 124.236 132.61 125.581 131.978 126.892C131.406 128.122 130.832 129.438 130.275 130.79L130.251 131.292L130.298 131.884C130.391 132.083 130.46 132.32 130.508 132.606C130.559 132.794 130.597 132.981 130.624 133.169C130.624 133.168 130.624 133.168 130.624 133.168C130.625 133.168 130.636 133.208 130.67 133.285L130.691 133.313C130.907 133.441 131.102 133.586 131.273 133.75C131.419 133.863 131.58 134.003 131.759 134.172L131.855 134.18C131.866 134.177 131.941 134.174 132.004 134.161C132.118 134.141 132.254 134.114 132.424 134.076C133.282 133.399 133.526 133.302 133.621 133.263C133.729 133.217 133.859 133.152 133.989 133.077L134.028 133.095L134.086 132.907C134.099 132.522 134.156 132.136 134.258 131.754C134.391 131.35 134.506 130.992 134.621 130.624C134.73 130.344 134.802 130.138 134.864 129.932C134.962 129.676 135.014 129.493 135.049 129.302L135.105 128.994L135.326 128.773C135.378 128.72 135.438 128.668 135.505 128.615L135.606 128.28C135.66 127.84 135.918 127.443 136.029 127.332L136.452 126.957L136.513 126.745C136.62 126.449 136.716 126.229 136.826 126.01L137.195 125.273L137.136 125.281L137.492 124.678L138.421 122.821L138.442 123.079C138.683 122.688 138.933 122.309 139.186 121.947L139.225 121.891C139.587 121.231 140.04 120.533 140.573 119.815C141.101 119.103 141.659 118.425 142.232 117.798L143.501 115.262L144.202 117.748C144.463 118.674 144.703 119.611 144.917 120.537C145.147 121.412 145.362 122.306 145.553 123.187L145.767 124.179L144.771 124.378C143.923 124.548 143.121 124.671 142.389 124.744C141.673 124.815 140.897 124.875 140.061 124.923C139.875 124.955 139.556 124.932 139.196 124.986L138.606 125.07L138.715 126.374C138.725 126.492 138.767 126.608 138.843 126.728L139.079 127.098L138.966 127.523C138.946 127.597 138.948 127.629 138.949 127.63C139.069 127.776 139.192 127.943 139.295 128.066C139.312 128.08 139.356 128.129 139.407 128.198C139.499 128.285 139.575 128.383 139.633 128.488C140.644 128.618 141.359 128.55 142.039 128.426C142.502 128.32 143.019 128.193 143.547 128.055C143.951 127.954 144.346 127.867 144.74 127.794C145.136 127.69 145.826 127.683 146.562 127.831L147.316 127.981L147.364 128.749C147.427 129.758 147.268 130.495 146.877 131.003C146.537 131.413 146.048 131.71 145.345 131.942C145.731 132.29 145.942 132.537 146.072 132.775C146.236 133.044 146.306 133.346 146.282 133.658L146.341 133.797C146.427 133.852 146.518 133.915 146.614 133.988C146.731 134.081 146.835 134.156 146.946 134.231C146.945 134.23 146.945 134.229 146.946 134.229C146.954 134.229 147.04 134.263 147.224 134.309C147.639 134.278 148.044 134.178 148.428 134.011C148.847 133.81 149.254 133.542 149.604 133.232C149.979 132.896 150.3 132.526 150.555 132.133C150.826 131.726 151.061 131.274 151.26 130.779C151.304 130.374 151.3 129.985 151.248 129.62C151.198 129.091 151.133 128.63 151.046 128.198C151.002 128.027 150.962 127.837 150.935 127.674L150.921 127.51C150.921 127.484 150.917 127.425 150.889 127.327L150.654 126.506L151.429 126.146C151.99 125.885 152.497 125.551 152.935 125.153C153.29 124.844 153.565 124.543 153.764 124.246L153.465 123.965Z" fill="white" stroke="white"/>
<path d="M172.397 133.928C172.417 133.7 172.408 133.499 172.375 133.301C172.345 133.108 172.282 132.936 172.181 132.762C172.12 132.634 172.064 132.532 172.009 132.445C171.671 132.416 171.393 132.393 171.175 132.377L170.243 132.226C169.897 132.143 169.597 132.077 169.262 132.009C168.867 131.9 168.415 131.787 167.827 131.652C167.204 131.508 166.713 131.388 166.353 131.292C165.918 131.141 165.574 131 165.243 130.848C164.905 130.679 164.569 130.486 164.207 130.253C163.881 130.044 163.439 129.765 162.882 129.416L162.296 129.05L162.341 128.824C162.251 128.658 162.201 128.464 162.201 128.252V127.59L162.81 127.331C163.616 126.989 164.528 126.669 165.521 126.378C166.427 126.113 167.289 125.788 168.082 125.414C168.794 125.058 169.419 124.598 169.92 124.057C170.378 123.58 170.622 122.969 170.676 122.172L170.691 122.021L170.598 121.815C170.565 121.682 170.545 121.558 170.537 121.438C170.484 121.223 170.283 120.56 170.175 120.272C170.03 119.861 169.892 119.481 169.753 119.112C169.627 118.754 169.486 118.441 169.329 118.167C169.182 117.86 169.039 117.664 168.853 117.494L168.731 117.382L168.651 117.236C168.554 117.058 168.426 116.847 168.362 116.757L168.33 116.725C168.307 116.703 168.251 116.656 168.133 116.596L167.886 116.473L167.738 116.241C167.445 115.783 167.08 115.427 166.624 115.153C166.145 114.835 165.718 114.539 165.326 114.253C164.771 114.356 164.314 114.557 163.935 114.863C163.42 115.295 162.926 115.812 162.479 116.386C162 117 161.527 117.648 161.071 118.308C160.538 119.055 159.925 119.694 159.24 120.221L158.219 121.006L157.818 120.07C157.735 120.319 157.663 120.579 157.601 120.847C157.461 121.454 157.321 122.073 157.181 122.702C157.067 123.32 156.922 123.984 156.753 124.661C156.71 124.858 156.63 125.185 156.548 125.526C156.445 125.953 156.272 126.667 156.251 126.822C156.255 126.942 156.241 127.159 156.212 127.39C156.181 127.606 156.139 127.788 156.082 127.954C156.078 128.007 156.075 128.074 156.071 128.146C156.056 128.417 156.033 128.737 155.987 128.952C155.907 129.321 155.801 129.695 155.67 130.062C155.604 130.3 155.529 130.623 155.465 130.965C155.415 131.234 155.364 131.515 155.314 131.808C155.358 131.897 155.398 131.986 155.437 132.075C155.447 132.098 155.69 132.666 155.745 132.94C155.757 132.984 155.774 133.059 155.793 133.147C155.826 133.23 155.855 133.318 155.878 133.411C156.052 133.633 156.439 134.073 156.594 134.23C156.668 134.275 156.725 134.31 156.772 134.339C157.04 134.188 157.26 134.096 157.436 134.041C157.662 133.716 157.833 133.405 157.949 133.116C158.151 132.645 158.372 131.967 158.616 131.077L159.044 129.521L160.247 130.597C160.697 130.999 161.076 131.343 161.383 131.627C161.655 131.859 161.982 132.109 162.326 132.346C162.648 132.533 163.085 132.768 163.578 133.014C164.059 133.222 164.739 133.498 165.567 133.821C167.197 134.455 168.552 134.888 169.596 135.11C170.526 135.328 171.241 135.327 171.769 135.121L171.998 135.061C172.034 135.033 172.071 134.991 172.107 134.936L172.315 134.623C172.335 134.523 172.362 134.322 172.397 133.928ZM160.325 124.791L160.566 123.466C160.682 122.827 160.893 122.26 161.194 121.778C161.449 121.343 161.753 120.93 162.081 120.575C162.396 120.236 162.709 119.911 163.023 119.597C163.322 119.318 163.57 119.031 163.785 118.718L164.204 118.108L164.91 118.332C165.527 118.526 166.102 118.919 166.619 119.497C167.168 120.076 167.518 120.856 167.639 121.794L167.737 122.555L167.028 122.847C166.233 123.174 165.392 123.525 164.504 123.899C163.515 124.29 162.566 124.536 161.663 124.638L160.325 124.791Z" fill="white" stroke="white"/>
<path d="M183.328 122.187C183.512 121.714 183.696 121.283 183.893 120.864C184.08 120.489 184.246 120.125 184.4 119.749C184.555 119.373 184.709 118.942 184.864 118.456L185.071 117.807L185.751 117.761C186.09 117.739 186.461 117.704 186.867 117.659C187.305 117.613 187.746 117.556 188.2 117.488C188.876 117.391 189.556 117.308 190.25 117.236C191.122 117.116 192.031 117.019 192.725 117.126H193.063C193.088 117.12 193.114 117.115 193.137 117.109L193.316 117.02C193.528 116.932 193.686 116.881 193.836 116.846C194.008 116.787 194.189 116.752 194.378 116.742L194.512 116.562L194.613 116.511C194.621 116.14 194.537 115.989 194.496 115.937C194.248 115.626 193.999 115.357 193.757 115.135L193.371 114.815C193.206 114.654 193.083 114.508 192.984 114.363C192.818 114.339 192.642 114.32 192.457 114.305C191.519 114.234 190.453 114.28 189.344 114.407C188.559 114.5 187.772 114.604 186.985 114.72C186.458 114.812 185.905 114.897 185.352 114.968L183.3 115.156L182.969 114.825C182.926 114.782 182.843 114.711 182.691 114.616C182.668 114.667 182.645 114.718 182.621 114.77L182.383 115.306L178.889 115.64C178.056 115.711 177.261 115.782 176.489 115.852C175.669 115.902 174.88 115.926 174.114 115.926H173.506L173.32 116.088C173.299 116.118 173.277 116.15 173.253 116.182C173.253 116.381 173.275 116.599 173.316 116.783C173.399 117.011 173.483 117.229 173.566 117.438L173.599 117.535C173.641 117.683 173.684 117.822 173.727 117.95C173.757 118.023 173.789 118.12 173.816 118.229L173.886 118.323C174.058 118.455 174.226 118.639 174.418 118.884C174.465 118.905 174.51 118.922 174.553 118.935C174.671 118.948 174.782 118.955 174.888 118.955H174.931C175.037 118.932 175.139 118.92 175.239 118.92H176.212C176.514 118.824 176.892 118.762 177.261 118.85H177.665C177.827 118.85 177.967 118.822 178.095 118.764L178.452 118.601L178.823 118.725C178.775 118.709 178.823 118.713 178.86 118.709H179.115C179.214 118.69 179.321 118.671 179.434 118.652C179.558 118.627 179.704 118.61 179.852 118.605C180.002 118.581 180.163 118.568 180.336 118.568H181.813L181.265 119.939C181.215 120.063 181.154 120.21 181.079 120.383C181.054 120.47 180.986 120.649 180.903 120.84L180.543 121.634C180.464 121.833 180.332 122.148 180.162 122.534L180.098 122.682L179.83 122.98C179.696 123.446 179.542 123.907 179.372 124.353L178.804 125.774C178.49 126.605 178.176 127.501 177.877 128.42C177.627 129.189 177.511 130.15 177.532 131.283C177.602 131.429 177.66 131.584 177.705 131.748C177.783 131.962 177.849 132.189 177.902 132.429C177.952 132.697 178.004 132.926 178.067 133.157C178.1 133.239 178.178 133.38 178.278 133.509L178.488 133.78V133.885C178.501 133.909 178.515 133.935 178.529 133.96C178.656 134.022 178.801 134.089 178.962 134.163L179.218 134.281L179.343 134.468C179.435 134.504 179.543 134.545 179.668 134.592L180.13 134.805C180.421 134.789 180.797 134.727 180.958 134.522C181.066 134.391 181.113 134.208 181.104 133.967C181.001 133.911 180.912 133.858 180.837 133.808C180.723 133.754 180.598 133.682 180.45 133.583L180.105 133.354L180.032 133.025C179.994 132.967 179.946 132.901 179.888 132.824L179.734 132.62L179.698 132.366C179.656 132.07 179.685 131.725 179.788 131.314L179.848 131.008C179.853 130.977 179.879 130.865 179.914 130.733C179.947 130.61 179.995 130.452 180.005 130.337C180.004 130.229 180.025 130.084 180.069 129.907C180.094 129.777 180.146 129.602 180.216 129.427L180.267 129.32C180.36 129.148 180.582 128.598 180.622 128.487C180.656 128.338 180.76 128.15 180.931 127.945L181.005 127.724C181.062 127.486 181.178 127.121 181.334 126.704C181.481 126.287 181.701 125.874 181.983 125.488C182.083 125.11 182.205 124.763 182.347 124.457C182.519 124.111 182.711 123.768 182.933 123.406C183.062 122.969 183.195 122.563 183.328 122.187Z" fill="white" stroke="white"/>
</svg>
