<?xml version="1.0" encoding="utf-8"?>
<!-- Generator: Adobe Illustrator 16.0.0, SVG Export Plug-In . SVG Version: 6.00 Build 0)  -->
<!DOCTYPE svg PUBLIC "-//W3C//DTD SVG 1.1//EN" "http://www.w3.org/Graphics/SVG/1.1/DTD/svg11.dtd">
<svg version="1.1" id="Layer_1" xmlns="http://www.w3.org/2000/svg" xmlns:xlink="http://www.w3.org/1999/xlink" x="0px" y="0px"
	 width="281px" height="59px" viewBox="0 0 281 59" enable-background="new 0 0 281 59" xml:space="preserve">
<g>
	<path fill="#FFFFFF" d="M4.482,58.561c-0.23,0.104-0.492,0.105-0.744,0.105c-0.787,0.002-1.573,0.002-2.359,0.003
		C0.938,58.67,0.42,58.631,0.18,58.262c-0.136-0.21-0.144-0.475-0.146-0.725c-0.01-0.916-0.021-1.832-0.03-2.748
		C0,54.465,0.001,54.123,0.165,53.845c0.162-0.276,0.481-0.452,0.801-0.442c0.32,0.009,0.628,0.203,0.774,0.488
		c0.13,0.256,0.131,0.553,0.129,0.84c-0.004,0.604-0.008,1.209-0.012,1.814c-0.001,0.125,0.039,0.294,0.164,0.291
		c0.53-0.01,1.059-0.02,1.589-0.029c0.328-0.006,0.674-0.008,0.957,0.156c0.284,0.166,0.463,0.497,0.446,0.824
		C4.995,58.115,4.782,58.426,4.482,58.561L4.482,58.561z"/>
	<path fill="#FFFFFF" d="M3.646,0.006c0.324,0,0.667,0.005,0.943,0.174c0.256,0.156,0.423,0.449,0.426,0.749
		c0.003,0.3-0.157,0.596-0.41,0.758c-0.293,0.188-0.666,0.187-1.014,0.18c-0.518-0.01-1.035-0.02-1.552-0.03
		C1.901,1.834,1.857,2.019,1.858,2.156c0.003,0.58,0.005,1.159,0.008,1.739C1.867,4.232,1.863,4.59,1.681,4.874
		C1.379,5.342,0.595,5.381,0.25,4.943C0.002,4.63-0.004,4.196,0.001,3.798c0.01-0.855,0.021-1.711,0.031-2.566
		C0.036,0.91,0.051,0.558,0.264,0.316c0.255-0.29,0.691-0.311,1.078-0.311C2.11,0.005,2.877,0.006,3.646,0.006L3.646,0.006z"/>
	<path fill="#FFFFFF" d="M21.073,8.104c0.328,0.202,0.445,0.614,0.536,0.988c0.391,1.619,0.781,3.237,1.172,4.855
		c0.228,0.944,1.043,1.61,1.775,2.25c1.379,1.206,2.664,2.645,3.125,4.417c0.237,0.911,0.244,1.864,0.249,2.805
		c0.056,9.925,0.112,19.849,0.167,29.774c0.001,0.262-0.009,0.553-0.194,0.736c-0.18,0.18-0.462,0.193-0.717,0.195
		c-6.387,0.066-12.774,0.135-19.162,0.201c-0.377,0.004-0.813-0.02-1.039-0.32c-0.155-0.205-0.163-0.482-0.165-0.74
		C6.752,42.798,6.684,32.329,6.616,21.86c-0.003-0.479,0-0.983,0.238-1.399c1.109-1.942,2.56-3.688,4.267-5.134
		c0.386-0.327,0.503-0.863,0.598-1.359c0.319-1.669,0.637-3.338,0.956-5.007c0.132-0.688,1.027-0.857,1.729-0.872
		c1.95-0.042,3.899-0.083,5.849-0.125C20.534,7.958,20.833,7.956,21.073,8.104z M26.079,21.697
		c-5.878-0.021-11.755,0.043-17.631,0.193c0.061,10.092,0.121,20.183,0.181,30.274c0,0.098,0.005,0.205,0.069,0.279
		c0.078,0.089,0.213,0.095,0.333,0.093c5.749-0.067,11.498-0.136,17.246-0.203C26.211,42.122,26.145,31.91,26.079,21.697z
		 M9.453,20.04c5.03-0.053,10.061-0.106,15.091-0.159c0.219-0.002,0.438-0.004,0.657-0.014c-1.459-2.892-4.667-4.798-7.909-4.746
		C14.05,15.172,10.924,17.154,9.453,20.04L9.453,20.04z M14.324,10.212c-0.245,1.255-0.489,2.51-0.734,3.765
		c2.309-0.893,4.931-0.949,7.276-0.155c-0.31-1.25-0.62-2.499-0.93-3.748c-0.022-0.091-0.052-0.192-0.132-0.24
		c-0.058-0.035-0.13-0.035-0.198-0.033c-1.65,0.037-3.3,0.074-4.95,0.111c-0.072,0.001-0.148,0.004-0.208,0.045
		C14.368,10.011,14.343,10.117,14.324,10.212L14.324,10.212z"/>
	<path fill="#FFFFFF" d="M17.309,42.385c-1.522-2.209-2.67-3.759-4.005-6.182c-0.177-0.32-0.354-0.643-0.494-0.98
		c-0.679-1.647-0.356-3.664,0.802-5.018c0.966-1.128,2.471-1.775,3.955-1.697c1.484,0.078,2.914,0.878,3.754,2.104
		c0.841,1.224,1.073,2.845,0.61,4.256c-0.188,0.574-0.482,1.105-0.774,1.636C19.874,38.824,18.786,40.15,17.309,42.385z
		 M19.753,32.639c-0.306-1.003-1.287-1.76-2.334-1.803c-1.048-0.043-2.087,0.633-2.473,1.605c-0.387,0.975-0.093,2.178,0.699,2.863
		c0.792,0.688,2.025,0.807,2.936,0.287C19.575,35.025,20.088,33.732,19.753,32.639z"/>
	<path fill="#FFFFFF" d="M29.883,10.743c0.197,0.158,0.321,0.478,0.31,0.794c-0.011,0.316-0.16,0.584-0.368,0.713
		c-0.159,0.099-0.339,0.1-0.513,0.1c-1.303-0.003-2.604,0.026-3.907,0.023c-0.209,0-0.428-0.004-0.613-0.142
		c-0.217-0.163-0.354-0.513-0.334-0.855s0.194-0.658,0.427-0.77c0.138-0.067,0.287-0.066,0.433-0.064
		c1.315,0.015,2.629,0.03,3.944,0.045C29.475,10.588,29.699,10.595,29.883,10.743z"/>
	<path fill="#FFFFFF" d="M32.11,12.378c-0.187-0.001-0.377-0.003-0.553-0.068c-0.293-0.107-0.52-0.396-0.565-0.719
		c-0.046-0.324,0.091-0.668,0.342-0.861c0.264-0.203,0.612-0.229,0.938-0.239c0.364-0.01,0.755,0,1.047,0.229
		c0.239,0.188,0.374,0.511,0.343,0.823c-0.031,0.312-0.227,0.599-0.497,0.73c-0.228,0.11-0.488,0.11-0.738,0.108
		C32.322,12.38,32.216,12.379,32.11,12.378z"/>
	<path fill="#FFFFFF" d="M35.252,12.378c-0.132-0.001-0.267-0.003-0.391-0.068c-0.207-0.107-0.367-0.396-0.398-0.719
		c-0.032-0.324,0.064-0.668,0.241-0.861c0.187-0.203,0.432-0.229,0.663-0.239c0.257-0.01,0.533,0,0.739,0.229
		c0.168,0.188,0.264,0.511,0.242,0.823s-0.16,0.599-0.351,0.73c-0.161,0.11-0.344,0.11-0.521,0.108
		C35.401,12.38,35.327,12.379,35.252,12.378z"/>
	<path fill="#FFFFFF" d="M30.143,15.47c0.119,0.223,0.109,0.565-0.026,0.853c-0.134,0.287-0.375,0.475-0.617,0.513
		c-0.185,0.029-0.351-0.041-0.511-0.108c-1.197-0.511-2.407-0.993-3.604-1.504c-0.192-0.082-0.393-0.171-0.508-0.37
		c-0.136-0.234-0.125-0.61,0.026-0.917c0.152-0.307,0.437-0.529,0.695-0.542c0.153-0.008,0.29,0.052,0.423,0.11
		c1.204,0.527,2.408,1.054,3.612,1.581C29.827,15.168,30.031,15.261,30.143,15.47z"/>
	<path fill="#FFFFFF" d="M31.553,17.846c-0.171-0.074-0.346-0.15-0.483-0.279c-0.228-0.213-0.323-0.567-0.238-0.883
		c0.084-0.316,0.346-0.58,0.652-0.659c0.323-0.084,0.653,0.027,0.958,0.146c0.338,0.132,0.695,0.295,0.874,0.62
		c0.147,0.265,0.144,0.617-0.006,0.891c-0.15,0.275-0.443,0.463-0.743,0.479c-0.253,0.012-0.492-0.089-0.722-0.188
		C31.747,17.93,31.65,17.888,31.553,17.846z"/>
	<path fill="#FFFFFF" d="M34.445,19.072c-0.121-0.053-0.244-0.107-0.333-0.215c-0.148-0.18-0.183-0.507-0.085-0.818
		c0.098-0.311,0.321-0.59,0.559-0.699c0.251-0.114,0.487-0.042,0.704,0.039c0.24,0.091,0.49,0.208,0.591,0.5
		c0.082,0.238,0.042,0.573-0.099,0.852c-0.142,0.278-0.382,0.489-0.609,0.535c-0.191,0.039-0.36-0.033-0.522-0.104
		C34.582,19.132,34.513,19.102,34.445,19.072z"/>
	<path fill="#FFFFFF" d="M29.601,6.125c0.243,0.069,0.483,0.314,0.596,0.61c0.113,0.296,0.082,0.601-0.06,0.8
		c-0.107,0.153-0.272,0.224-0.433,0.292c-1.2,0.506-2.387,1.041-3.586,1.546c-0.193,0.082-0.396,0.164-0.62,0.108
		c-0.263-0.065-0.526-0.333-0.642-0.656c-0.116-0.323-0.079-0.682,0.092-0.876c0.101-0.115,0.238-0.172,0.373-0.228
		c1.216-0.5,2.432-0.999,3.647-1.498C29.165,6.143,29.374,6.061,29.601,6.125z"/>
	<path fill="#FFFFFF" d="M32.291,6.762c-0.172,0.071-0.349,0.144-0.536,0.153c-0.312,0.015-0.633-0.162-0.801-0.442
		c-0.168-0.28-0.177-0.651-0.022-0.927c0.164-0.29,0.473-0.45,0.771-0.586c0.331-0.151,0.695-0.294,1.053-0.198
		c0.293,0.079,0.544,0.325,0.638,0.624c0.093,0.299,0.025,0.641-0.172,0.866c-0.167,0.19-0.406,0.292-0.637,0.388
		C32.486,6.681,32.389,6.721,32.291,6.762z"/>
	<path fill="#FFFFFF" d="M35.184,5.535c-0.122,0.05-0.247,0.101-0.387,0.09c-0.232-0.018-0.492-0.221-0.648-0.506
		c-0.156-0.286-0.202-0.641-0.115-0.887c0.092-0.26,0.308-0.38,0.517-0.479c0.232-0.109,0.491-0.208,0.77-0.078
		c0.229,0.106,0.443,0.368,0.545,0.663c0.102,0.295,0.087,0.614-0.038,0.809c-0.105,0.164-0.273,0.236-0.437,0.303
		C35.321,5.478,35.252,5.506,35.184,5.535z"/>
	<path fill="#FFFFFF" d="M37.952,58.665c-0.259,0-0.527-0.001-0.762-0.108c-0.31-0.143-0.523-0.473-0.526-0.813
		s0.206-0.674,0.513-0.82c0.249-0.117,0.536-0.117,0.811-0.113c0.557,0.008,1.114,0.017,1.67,0.023
		c0.125,0.001,0.164-0.166,0.163-0.29c-0.002-0.601-0.005-1.202-0.008-1.804c-0.001-0.29,0-0.594,0.134-0.852
		c0.163-0.313,0.522-0.513,0.875-0.482c0.352,0.027,0.674,0.283,0.784,0.619c0.06,0.182,0.06,0.377,0.059,0.567
		c-0.003,0.906-0.006,1.813-0.01,2.72c-0.001,0.467-0.055,1.024-0.468,1.246c-0.188,0.1-0.41,0.104-0.623,0.104
		C39.693,58.662,38.823,58.664,37.952,58.665z"/>
	<path fill="#FFFFFF" d="M37.032,1.655c-0.451-0.323-0.456-1.099-0.009-1.428C37.327,0.005,37.732-0.002,38.109,0
		c0.795,0.004,1.59,0.009,2.385,0.014c0.283,0.002,0.588,0.011,0.811,0.185c0.303,0.236,0.336,0.674,0.341,1.058
		c0.014,0.946,0.02,1.892,0.017,2.837c0,0.193-0.002,0.39-0.064,0.572c-0.109,0.321-0.414,0.566-0.751,0.603
		s-0.688-0.137-0.864-0.426c-0.17-0.281-0.174-0.628-0.172-0.957c0.003-0.602,0.006-1.204,0.009-1.806
		c0-0.067-0.002-0.141-0.048-0.189c-0.05-0.052-0.131-0.054-0.204-0.053c-0.482,0.01-0.964,0.02-1.446,0.03
		C37.747,1.876,37.339,1.875,37.032,1.655L37.032,1.655z"/>
</g>
<path fill="#FFFFFF" d="M63.357,42.496l0.204,0.006c0.319,0.013,0.714-0.005,0.858-0.104c0.796-0.547,1.63-1.146,2.307-1.91
	c0.671-0.758,1.287-1.604,1.832-2.517c0.551-0.925,1.058-1.907,1.506-2.92c0.461-1.038,0.908-2.081,1.341-3.129
	c0.347-0.82,0.692-1.629,1.037-2.429c0.328-0.758,0.682-1.506,1.055-2.225c-0.068-0.544-0.168-1.024-0.298-1.429
	c-0.136-0.424-0.322-0.804-0.551-1.127c-0.235-0.333-0.517-0.645-0.838-0.926c-0.22-0.191-0.473-0.386-0.753-0.581
	c-0.109,0.175-0.22,0.368-0.33,0.576c-0.221,0.417-0.448,0.878-0.679,1.384c-0.233,0.509-0.46,1.044-0.683,1.607
	c-0.226,0.568-0.446,1.142-0.663,1.717c-0.312,0.808-0.622,1.586-0.932,2.342c-0.302,0.739-0.623,1.456-0.953,2.128
	c-0.331,0.669-0.672,1.268-1.017,1.779c-0.369,0.548-0.764,0.982-1.174,1.289l-1.756,1.355l-0.33-0.473
	c-0.17-0.244-0.287-0.509-0.345-0.788c-0.046-0.21-0.089-0.422-0.126-0.627c-0.043-0.253-0.063-0.502-0.063-0.752
	c0-0.304,0.005-0.54,0.014-0.71c0.01-0.177,0.035-0.395,0.073-0.65c0.038-0.244,0.104-0.582,0.197-1.013
	c0.09-0.42,0.227-1.036,0.409-1.854c0.053-0.265,0.112-0.549,0.177-0.843c0.062-0.284,0.12-0.564,0.173-0.841l0.15-0.778
	c0.027-0.143,0.05-0.269,0.067-0.376c-0.058-0.111-0.122-0.215-0.191-0.312l-0.725-0.979c-0.094-0.123-0.19-0.258-0.289-0.407
	c-0.303-0.114-0.589-0.282-0.852-0.5c-0.116-0.096-0.227-0.191-0.332-0.284c-0.165,0.181-0.339,0.395-0.521,0.639
	c-0.34,0.456-0.688,0.951-1.044,1.487c-0.358,0.536-0.711,1.098-1.058,1.688c-0.357,0.604-0.699,1.169-1.027,1.697l-0.932,1.582
	c-0.269,0.453-0.527,0.87-0.777,1.247c-0.252,0.385-0.536,0.765-0.841,1.126c-0.299,0.356-0.656,0.742-1.093,1.178
	c-0.32,0.32-0.649,0.622-0.988,0.905c-0.28,0.241-0.591,0.479-0.925,0.709c-0.372,0.255-0.705,0.422-1.018,0.512l-0.808,0.23
	l0.112-0.833c0.091-0.68,0.188-1.304,0.289-1.873c0.102-0.572,0.199-1.062,0.292-1.468c0.112-0.486,0.224-0.914,0.335-1.286
	c0.127-0.453,0.303-1.004,0.524-1.643c0.217-0.625,0.438-1.271,0.665-1.94c0.226-0.668,0.442-1.33,0.649-1.989
	c0.16-0.509,0.291-0.984,0.389-1.417c-0.307-0.24-0.581-0.484-0.818-0.729c-0.276-0.284-0.564-0.632-0.857-1.034
	c-0.096-0.044-0.196-0.1-0.296-0.165c-0.078-0.049-0.154-0.107-0.227-0.174c-0.182,0.085-0.359,0.225-0.536,0.42
	c-0.316,0.35-0.617,0.778-0.895,1.274c-0.285,0.51-0.548,1.077-0.783,1.685c-0.243,0.63-0.464,1.224-0.661,1.781
	c-0.209,0.612-0.419,1.363-0.623,2.227c-0.208,0.885-0.402,1.756-0.583,2.613c-0.18,0.857-0.337,1.647-0.473,2.368
	c-0.117,0.626-0.204,1.097-0.261,1.411c0.126,0.379,0.258,0.715,0.394,1c0.162,0.343,0.351,0.729,0.566,1.161
	c0.073,0.11,0.172,0.29,0.271,0.488c0.081,0.159,0.161,0.328,0.242,0.503c0.305,0.315,0.572,0.551,0.797,0.701
	c0.25,0.166,0.575,0.345,0.965,0.531c0.113,0.057,0.218,0.108,0.33,0.159c0.09,0.041,0.186,0.086,0.289,0.138
	c0.706-0.028,1.375-0.154,1.994-0.373c0.671-0.237,1.314-0.553,1.914-0.937c0.615-0.397,1.208-0.84,1.76-1.315
	c0.575-0.494,1.141-1.001,1.698-1.521l1.806-1.688l1.064,1.987c0.071,0.125,0.142,0.251,0.207,0.374
	c0.07,0.131,0.135,0.266,0.197,0.407c0.408,0.778,0.846,1.526,1.286,2.185c0.368,0.553,0.833,0.97,1.418,1.271
	C63.314,42.496,63.338,42.496,63.357,42.496z"/>
<path fill="#FFFFFF" d="M87.338,34.642c0.165-0.613,0.316-1.248,0.456-1.905c-0.018-0.556-0.04-1.101-0.065-1.639
	c-0.023-0.475-0.056-0.937-0.099-1.386c-0.244-0.226-0.451-0.485-0.617-0.773c-0.181-0.314-0.353-0.646-0.514-0.997
	c-0.156-0.339-0.307-0.679-0.453-1.019c-0.071-0.164-0.151-0.324-0.237-0.478c-0.072,0.047-0.139,0.104-0.2,0.17
	c-0.176,0.19-0.308,0.416-0.402,0.69c-0.1,0.293-0.159,0.608-0.174,0.936c-0.015,0.324,0.016,0.634,0.091,0.922l0.136,0.516
	l-0.512,0.151c-0.01,0.044-0.035,0.094-0.069,0.145c0.079,0.713,0.047,1.42-0.093,2.104c-0.141,0.686-0.257,1.387-0.347,2.083
	l-0.037,0.284l-0.253,0.133c-0.404,0.212-0.852,0.394-1.331,0.541c-0.458,0.14-0.927,0.266-1.412,0.378
	c-0.479,0.109-0.957,0.212-1.435,0.304c-0.154,0.029-0.357,0.044-0.574,0.044c-1.501,0-1.572-0.352-1.619-0.584l-0.023-0.117
	l0.027-0.116c0.07-0.304,0.146-0.667,0.226-1.092c0.082-0.435,0.163-0.885,0.244-1.354c0.081-0.463,0.146-0.915,0.2-1.358
	c0.045-0.373,0.077-0.71,0.096-1.008c-0.148-0.267-0.304-0.506-0.463-0.715c-0.207-0.271-0.415-0.536-0.621-0.798
	c-0.221-0.278-0.428-0.578-0.612-0.889c-0.098-0.164-0.187-0.342-0.267-0.533c-0.172,0.127-0.308,0.294-0.413,0.509
	c-0.229,0.465-0.395,1.017-0.495,1.64c-0.105,0.658-0.181,1.363-0.226,2.095c-0.028,0.472-0.176,1.237-0.295,1.852
	c-0.071,0.365-0.132,0.668-0.139,0.784c0.011,0.248-0.016,0.533-0.081,0.824c-0.06,0.272-0.148,0.547-0.262,0.816
	c-0.09,0.215-0.192,0.396-0.309,0.548c-0.027,0.355-0.081,0.741-0.161,1.152c-0.066,0.332-0.239,0.854-0.411,1.361
	c-0.042,0.125-0.075,0.22-0.086,0.259c-0.019,0.097-0.055,0.221-0.104,0.343c-0.032,0.08-0.064,0.17-0.097,0.269
	c-0.082,0.267-0.128,0.415-0.212,0.528c-0.011,0.045-0.024,0.093-0.039,0.144c0.024,0.119,0.079,0.303,0.122,0.455
	c0.032,0.113,0.06,0.213,0.074,0.273l0.03,0.119c0.074,0.296,0.119,0.495,0.132,0.651l0.219,0.139
	c0.133,0.086,0.251,0.176,0.365,0.279c0.115,0.095,0.541,0.363,0.697,0.414c0.173-0.003,0.332-0.032,0.482-0.088
	c0.187-0.069,0.366-0.156,0.538-0.257c0.154-0.091,0.353-0.222,0.465-0.304c0.063-0.133,0.156-0.245,0.225-0.327
	c0.041-0.049,0.084-0.102,0.121-0.151c0.108-0.155,0.211-0.334,0.307-0.532c0.097-0.206,0.181-0.405,0.248-0.596
	c0.043-0.124,0.072-0.212,0.081-0.265v-0.31l0.262-0.112c0.242-0.146,0.554-0.324,0.936-0.53c0.382-0.203,0.79-0.408,1.225-0.611
	c0.447-0.209,0.913-0.392,1.385-0.543c0.494-0.157,0.974-0.256,1.426-0.295l0.597-0.052v0.6c0,0.021-0.012,0.152-0.046,0.389
	c-0.029,0.202-0.068,0.417-0.115,0.646c-0.043,0.208-0.078,0.396-0.103,0.567c-0.021,0.139-0.033,0.225-0.037,0.259
	c-0.012,0.306,0.057,0.578,0.212,0.818c0.193,0.298,0.394,0.634,0.601,1.008c0.153,0.063,0.294,0.143,0.421,0.236
	c0.054,0.039,0.11,0.078,0.167,0.117c0.222-0.081,0.449-0.166,0.681-0.256c0.27-0.105,0.504-0.244,0.713-0.423
	c0.194-0.166,0.344-0.364,0.456-0.604c0.095-0.2,0.135-0.465,0.12-0.789c-0.164-0.35-0.212-0.675-0.143-0.967
	c0.021-0.09,0.012-0.192-0.028-0.313l-0.106-0.321l0.239-0.239c0.087-0.089,0.165-0.194,0.229-0.316
	c0.081-0.153,0.153-0.314,0.218-0.484c0.072-0.192,0.146-0.382,0.221-0.566c0.071-0.179,0.165-0.348,0.28-0.503
	C87.048,35.93,87.171,35.265,87.338,34.642z"/>
<g>
	<path fill="#FFFFFF" d="M104.118,36.687c0.245-0.218,0.442-0.444,0.589-0.675c-0.09-0.058-0.169-0.123-0.247-0.201
		c-0.071-0.071-0.152-0.14-0.241-0.207c0.003,0.006-0.039-0.025-0.227-0.04l-0.221-0.065c-0.223-0.122-0.38-0.268-0.471-0.435
		l-0.19,0.032c-0.112,0.021-0.482,0.063-0.653,0.063h-0.373l-0.138-0.346c-0.155-0.39-0.283-0.807-0.38-1.24
		c-0.092-0.411-0.183-0.836-0.273-1.274c-0.056-0.318-0.115-0.615-0.177-0.908c-0.061-0.287-0.134-0.577-0.221-0.872l-0.021-0.128
		c-0.018-0.36-0.048-0.688-0.091-0.979c-0.044-0.304-0.094-0.607-0.146-0.911c-0.034-0.125-0.064-0.292-0.086-0.459
		c-0.006-0.051-0.03-0.166-0.114-0.405c-0.107-0.083-0.243-0.151-0.404-0.202c-0.275-0.086-0.568-0.164-0.879-0.233l-0.547-0.157
		c-0.169-0.046-0.312-0.1-0.432-0.162c-0.393,0.589-0.795,1.115-1.184,1.55c-0.428,0.479-0.937,0.858-1.511,1.125l-0.146,0.068
		l-0.568-0.076l-0.443,0.198c-0.181,0.246-0.333,0.485-0.454,0.713c-0.15,0.281-0.296,0.572-0.437,0.873
		c-0.134,0.268-0.262,0.519-0.389,0.766c-0.125,0.239-0.281,0.507-0.469,0.802c-0.032,0.346-0.456,1.306-0.46,1.315
		c-0.138,0.295-0.281,0.59-0.428,0.883c-0.433,0.884-0.854,1.753-1.261,2.604c-0.385,0.804-0.757,1.661-1.108,2.549l-0.022,0.375
		l0.039,0.353c0.041,0.084,0.068,0.178,0.081,0.279c0.002,0.02,0.009,0.065,0.044,0.17c0.036,0.158,0.055,0.265,0.074,0.377v-0.001
		c0.002,0,0.028,0.057,0.115,0.18c0.138,0.092,0.26,0.187,0.369,0.286c0.079,0.073,0.183,0.162,0.312,0.27l0.105,0.011
		c0.011-0.003,0.069-0.008,0.116-0.019c0.059-0.013,0.156-0.032,0.289-0.058l0.713-0.497c0.096-0.047,0.19-0.098,0.286-0.155
		c0.038-0.021,0.071-0.047,0.103-0.077l0.033-0.09c-0.007-0.242,0.024-0.488,0.094-0.733c0.067-0.243,0.15-0.49,0.248-0.743
		c0.051-0.136,0.103-0.284,0.156-0.441c0.046-0.142,0.087-0.287,0.12-0.433l0.034-0.152l0.108-0.111
		c0.043-0.044,0.086-0.083,0.13-0.118l0.074-0.253c0.007-0.062,2.292-0.038,2.547,0.23c0.063,0.007,0.125,0.012,0.184,0.016
		c0.449,0.033,0.966,0.003,1.369-0.073c0.32-0.061,0.637-0.134,0.949-0.221c0.261-0.074,0.522-0.141,0.778-0.196
		c0.306-0.07,0.682-0.067,1.136,0.024l0.409,0.081l0.032,0.416c0.047,0.617-0.047,1.07-0.29,1.384
		c-0.192,0.25-0.498,0.447-0.929,0.599l-0.056,0.146l0,0.001c0.238,0.216,0.368,0.354,0.451,0.48
		c0.077,0.115,0.156,0.302,0.135,0.566l0.079,0.177l0.142,0.089c0.093,0.057,0.195,0.127,0.294,0.203c0,0,0-0.001,0-0.001
		c0.003,0,0.056,0.025,0.191,0.061c0.283-0.022,0.546-0.094,0.803-0.215c0.295-0.141,0.569-0.319,0.815-0.531
		c0.244-0.213,0.452-0.452,0.634-0.729c0.184-0.28,0.324-0.557,0.417-0.82l0.035-0.074c0.023-0.272,0.021-0.54-0.008-0.797
		c-0.035-0.313-0.078-0.621-0.13-0.919c-0.03-0.066-0.062-0.215-0.075-0.358c-0.008-0.087-0.02-0.177-0.035-0.271l-0.067-0.407
		l0.372-0.179C103.487,37.172,103.824,36.949,104.118,36.687z M98.756,36.018c-0.558,0.111-1.074,0.191-1.534,0.239
		c-0.451,0.047-0.952,0.089-1.503,0.124c-0.086,0.023-0.319,0.009-0.542,0.047l-1.131,0.193l0.559-1.003
		c0.098-0.175,0.205-0.353,0.323-0.528l0.326-0.488c0.218-0.391,0.517-0.856,0.865-1.346c0.336-0.474,0.69-0.908,1.055-1.295
		l0.787-1.313l0.347,1.227c0.166,0.587,0.32,1.178,0.468,1.771c0.145,0.594,0.282,1.162,0.41,1.708l0.129,0.554L98.756,36.018z"/>
</g>
<path fill="#FFFFFF" d="M113.117,33.943c0.105-0.347,0.215-0.674,0.329-0.981c0.125-0.334,0.262-0.659,0.414-0.982
	c0.145-0.289,0.275-0.578,0.397-0.874c0.121-0.294,0.243-0.635,0.365-1.017l0.114-0.358l0.374-0.024
	c0.265-0.017,0.56-0.045,0.887-0.081c0.331-0.035,0.671-0.08,1.026-0.133c0.514-0.073,1.035-0.141,1.565-0.206
	c0.693-0.083,1.347-0.129,1.895-0.084c0.081,0.008,0.177,0.011,0.292,0.012c0.038-0.009,0.074-0.02,0.106-0.032
	c0.059-0.021,0.114-0.046,0.169-0.073c0.142-0.06,0.25-0.097,0.357-0.129c0.093-0.028,0.192-0.047,0.297-0.057l0.393-0.228
	c-0.001-0.002,0.023-0.031,0.074-0.1c0.012-0.235-0.01-0.503-0.138-0.663c-0.199-0.248-0.399-0.465-0.596-0.646
	c-0.094-0.076-0.205-0.173-0.311-0.27c-0.107-0.097-0.201-0.206-0.276-0.325l-0.071-0.049c-0.15-0.023-0.311-0.041-0.48-0.054
	c-0.736-0.057-1.567-0.02-2.44,0.079c-0.619,0.072-1.234,0.153-1.846,0.243c-0.414,0.073-0.837,0.133-1.257,0.179
	c-0.411,0.046-0.818,0.087-1.222,0.124l-0.254,0.022l-0.181-0.179c-0.074-0.073-0.167-0.151-0.278-0.232
	c0.011,0.009-0.061-0.021-0.227-0.021h-0.002c-0.042,0.089-0.084,0.181-0.126,0.275l-0.131,0.296l-2.576,0.246
	c-0.643,0.056-1.262,0.105-1.861,0.151c-0.612,0.046-1.221,0.07-1.81,0.07l-0.68,0.047l-0.062,0.092
	c-0.042,0.062-0.092,0.135-0.155,0.217c0.005,0.227,0.03,0.424,0.077,0.581c0.058,0.191,0.12,0.372,0.188,0.538
	c0.051,0.168,0.083,0.269,0.115,0.356c0.032,0.088,0.059,0.179,0.081,0.272l0.102,0.136c0.122,0.088,0.252,0.228,0.425,0.451
	c0.074,0.034,0.143,0.058,0.202,0.069c0.108,0.021,0.211,0.031,0.307,0.031c0.137-0.021,0.211-0.027,0.272-0.027h0.812
	c0.259-0.069,0.588-0.07,0.605-0.07l0.46,0.016c0.117,0,0.326-0.035,0.504-0.062c0.393-0.06,0.497-0.044,0.64-0.06
	c0.078-0.007,0.165-0.02,0.261-0.035c0.094-0.019,0.202-0.035,0.312-0.046c0.104-0.01,0.222-0.016,0.351-0.016h0.815l-0.426,1.062
	c-0.045,0.121-0.099,0.251-0.156,0.386c-0.094,0.207-0.179,0.399-0.259,0.586l-0.409,0.872l-0.158,0.175
	c-0.105,0.372-0.227,0.735-0.363,1.084c-0.146,0.374-0.291,0.742-0.438,1.106c-0.248,0.653-0.489,1.344-0.722,2.06
	c-0.205,0.631-0.298,1.417-0.277,2.339c0.062,0.113,0.114,0.238,0.156,0.372c0.05,0.165,0.095,0.332,0.134,0.51
	c0.037,0.198,0.081,0.374,0.137,0.552c0.042,0.136,0.107,0.258,0.198,0.376l0.114,0.207c0.028,0.052,0.063,0.116,0.094,0.174
	c0.114,0.055,0.249,0.118,0.403,0.189l0.139,0.064l0.086,0.128l0.593,0.278c0.044,0.018,0.09,0.034,0.128,0.048
	c0.425-0.013,0.717-0.115,0.868-0.306c0.055-0.067,0.195-0.238,0.153-0.67l-0.063-0.069c-0.101-0.053-0.185-0.103-0.252-0.148
	c-0.082-0.037-0.173-0.09-0.288-0.167l-0.186-0.126l-0.045-0.221c-0.035-0.043-0.091-0.112-0.15-0.193l-0.08-0.109l-0.02-0.135
	c-0.029-0.199-0.009-0.431,0.063-0.727l0.047-0.253c0.007-0.04,0.025-0.109,0.048-0.193c0.023-0.085,0.077-0.283,0.08-0.351
	c0-0.079,0.013-0.172,0.042-0.298c0.021-0.099,0.057-0.214,0.105-0.337c0.113-0.216,0.288-0.659,0.314-0.737
	c0.031-0.117,0.104-0.239,0.231-0.383l0.071-0.212c0.046-0.192,0.133-0.469,0.249-0.788c0.117-0.32,0.285-0.627,0.501-0.914
	c0.077-0.299,0.176-0.575,0.296-0.825C112.795,34.494,112.941,34.229,113.117,33.943z"/>
<path fill="#FFFFFF" d="M143.593,26.904c0.806-0.05,1.604,0.009,2.405,0.183c0.156-0.089,0.308-0.183,0.456-0.282
	c0.148-0.098,0.291-0.196,0.43-0.294c0.015-0.137,0.002-0.245-0.038-0.313c-0.107-0.178-0.252-0.352-0.431-0.516l-0.156-0.143
	l-0.02-0.211c-0.011-0.118-0.049-0.229-0.115-0.342c-0.101-0.166-0.215-0.34-0.343-0.519c-0.141-0.198-0.279-0.401-0.411-0.609
	c-0.096-0.15-0.178-0.306-0.248-0.464c-1.036-0.273-2.039-0.384-2.982-0.329c-1.047,0.061-2.081,0.224-3.075,0.485
	c-1.023,0.27-2.03,0.577-2.993,0.913l-0.364,0.127c-0.587,0.204-1.579,0.549-2.056,0.735v0.067l-0.398,0.114
	c-0.372,0.106-0.769,0.234-1.193,0.385c-0.401,0.142-0.792,0.32-1.163,0.531c-0.357,0.203-0.69,0.454-0.991,0.746
	c-0.253,0.246-0.442,0.537-0.576,0.886c0.014,0.506-0.045,1.817-0.097,2.381c0.065,0.104,0.136,0.199,0.214,0.288
	c0.229,0.176,2.061,1.168,2.558,1.248c0.656,0.104,1.364,0.176,2.101,0.21l0.101,0.015c0.326,0.077,0.603,0.155,0.833,0.23
	c0.089,0.027,0.325,0.071,0.604,0.126c0.461,0.09,1.036,0.202,1.374,0.307c0.521,0.162,1.023,0.36,1.497,0.591
	c0.053,0.012,0.107,0.027,0.161,0.049c0.229,0.094,0.63,0.569,0.679,0.662c0.083,0.17,0.097,0.35,0.048,0.549
	c-0.08,0.29-0.195,0.525-0.35,0.718c-0.127,0.159-0.263,0.305-0.41,0.441c-0.116,0.108-0.23,0.223-0.34,0.34
	c-0.189,0.204-1.431,1.103-1.956,1.396c-0.542,0.304-1.126,0.592-1.737,0.855c-0.624,0.268-1.289,0.479-1.977,0.631
	c-0.478,0.104-0.98,0.157-1.493,0.157c-0.193,0-0.388-0.008-0.586-0.022c-0.043,0.038-0.071,0.075-0.08,0.107
	c-0.037,0.146-0.05,0.311-0.036,0.482c0.017,0.23,0.039,0.453,0.065,0.67c0.032,0.264,0.007,0.506-0.072,0.726
	c0.007,0.027,0.015,0.056,0.022,0.084c0.028,0.113,0.052,0.207,0.063,0.293c0.013,0.029,0.026,0.06,0.038,0.091l0.045,0.008
	l0.107,0.298c0.051,0.142,0.115,0.259,0.195,0.357c0.056,0.068,0.114,0.137,0.177,0.204c0.087-0.006,0.174-0.009,0.263-0.009
	c0.096,0,0.193,0.004,0.291,0.011c0.235,0.017,0.476,0.029,0.715,0.039l0.12,0.002c0.158,0,0.307-0.011,0.446-0.034
	c0.079-0.015,0.644-0.107,0.899-0.119c0.738-0.22,1.504-0.501,2.278-0.838c0.792-0.343,1.547-0.748,2.244-1.206
	c0.693-0.453,1.322-0.986,1.87-1.585c0.531-0.581,0.943-1.246,1.224-1.976c0.158-0.362,0.219-0.696,0.197-1.046l-0.09-1.371
	c-0.121-0.262-0.283-0.509-0.482-0.735c-0.296-0.336-1.115-1.739-1.216-2.086c-0.053-0.182-0.14-0.351-0.265-0.517
	c-0.125-0.168-0.28-0.312-0.459-0.428c-0.23-0.15-0.986-0.617-1.162-0.713c-0.139-0.076-0.299-0.136-0.476-0.179
	c-0.235-0.057-0.465-0.118-0.689-0.182c-0.335-0.1-0.604-0.278-0.8-0.533l-0.178-0.231l0.044-0.133
	c-0.068-0.141-0.088-0.31-0.053-0.488l0.079-0.4l0.407-0.04c0.345-0.034,0.671-0.08,0.981-0.141
	c0.248-0.048,0.888-0.232,1.288-0.347l1.165-0.325c0.334-0.091,0.665-0.143,0.981-0.155c0.147,0.011,0.417,0.017,0.75,0.041
	C142.108,26.869,143.074,26.94,143.593,26.904z"/>
<path fill="#FFFFFF" d="M154.637,33.943c0.106-0.347,0.217-0.674,0.329-0.981c0.126-0.334,0.262-0.66,0.415-0.983
	c0.143-0.287,0.273-0.576,0.396-0.872s0.245-0.636,0.367-1.018l0.113-0.357l0.375-0.024c0.264-0.017,0.559-0.045,0.885-0.081
	c0.33-0.035,0.673-0.079,1.026-0.133c0.516-0.073,1.036-0.141,1.566-0.206c0.69-0.082,1.341-0.127,1.894-0.084
	c0.081,0.008,0.178,0.011,0.293,0.012c0.038-0.009,0.074-0.02,0.106-0.032c0.058-0.021,0.112-0.045,0.166-0.072
	c0.149-0.062,0.254-0.099,0.361-0.131c0.144-0.042,0.293-0.063,0.456-0.063l0.016,0.001l0.234-0.233
	c-0.006-0.002,0.015-0.029,0.058-0.089c0.012-0.234-0.01-0.503-0.138-0.662c-0.195-0.246-0.396-0.463-0.597-0.648
	c-0.092-0.075-0.202-0.171-0.309-0.268c-0.111-0.102-0.204-0.211-0.279-0.327l-0.069-0.049c-0.15-0.023-0.311-0.041-0.481-0.054
	c-0.73-0.056-1.568-0.02-2.438,0.079c-0.619,0.072-1.236,0.153-1.848,0.243c-0.412,0.073-0.836,0.133-1.256,0.179
	c-0.411,0.046-0.819,0.087-1.223,0.124l-0.254,0.023l-0.182-0.18c-0.074-0.074-0.168-0.151-0.279-0.233
	c0.007,0.002-0.051-0.02-0.227-0.02h-0.001c-0.043,0.089-0.085,0.181-0.127,0.275l-0.131,0.296l-2.578,0.246
	c-0.642,0.056-1.26,0.105-1.859,0.151c-0.613,0.046-1.223,0.07-1.812,0.07h-0.556l-0.227,0.198c-0.033,0.047-0.07,0.1-0.113,0.156
	c0.004,0.227,0.028,0.425,0.076,0.582c0.059,0.192,0.122,0.375,0.188,0.543c0.049,0.163,0.082,0.265,0.114,0.354
	c0.032,0.086,0.059,0.177,0.08,0.27l0.102,0.136c0.122,0.087,0.252,0.228,0.426,0.451c0.074,0.034,0.142,0.058,0.201,0.068
	c0.11,0.021,0.212,0.032,0.307,0.032c0.14-0.021,0.212-0.027,0.271-0.027h0.791c0.208-0.074,0.427-0.126,0.769-0.059l0.318,0.004
	c0.156,0,0.297-0.029,0.429-0.089l0.199-0.089l0.206,0.071c-0.002-0.005,0.036-0.006,0.091-0.004c0.072,0,0.146-0.003,0.22-0.011
	c0.077-0.007,0.165-0.02,0.258-0.035c0.098-0.019,0.204-0.035,0.313-0.046c0.106-0.01,0.224-0.016,0.353-0.016h0.819l-0.43,1.06
	c-0.045,0.122-0.098,0.252-0.155,0.386c-0.096,0.209-0.181,0.4-0.26,0.586l-0.409,0.873l-0.158,0.176
	c-0.107,0.373-0.229,0.734-0.364,1.083l-0.437,1.107c-0.248,0.653-0.489,1.344-0.722,2.06c-0.205,0.629-0.298,1.415-0.277,2.338
	c0.059,0.11,0.109,0.232,0.153,0.371c0.052,0.164,0.097,0.331,0.137,0.511c0.036,0.202,0.081,0.377,0.137,0.554
	c0.043,0.135,0.107,0.258,0.198,0.376l0.112,0.205c0.028,0.053,0.063,0.117,0.095,0.174c0.114,0.056,0.249,0.118,0.404,0.19
	l0.139,0.064l0.086,0.128l0.514,0.245c0.063,0.028,0.146,0.059,0.207,0.081c0.425-0.013,0.717-0.115,0.867-0.306
	c0.056-0.067,0.196-0.239,0.155-0.669l-0.063-0.07c-0.101-0.053-0.184-0.103-0.252-0.147c-0.08-0.036-0.17-0.089-0.286-0.167
	l-0.187-0.125l-0.046-0.22l-0.229-0.302l-0.02-0.139c-0.029-0.199-0.008-0.438,0.065-0.729l0.045-0.252
	c0.008-0.039,0.024-0.105,0.046-0.188c0.023-0.085,0.078-0.286,0.081-0.354c0-0.078,0.013-0.168,0.042-0.298
	c0.021-0.102,0.058-0.216,0.105-0.337c0.11-0.21,0.284-0.647,0.313-0.733c0.032-0.119,0.105-0.244,0.231-0.387l0.069-0.21
	c0.048-0.196,0.136-0.474,0.254-0.794c0.111-0.312,0.279-0.619,0.498-0.911c0.08-0.308,0.178-0.579,0.297-0.825
	C154.314,34.494,154.462,34.229,154.637,33.943z"/>
<path fill="#FFFFFF" d="M167.007,40.932c0.276,0.176,0.611,0.355,0.998,0.535c0.401,0.188,0.921,0.406,1.56,0.653
	c1.283,0.499,2.346,0.844,3.158,1.023c0.735,0.165,1.348,0.161,1.804-0.016l0.136-0.034c0.13-0.061,0.184-0.125,0.232-0.196
	l0.22-0.328c-0.035,0.042,0-0.097,0.042-0.595c0.013-0.166,0.006-0.342-0.022-0.521c-0.026-0.165-0.086-0.338-0.176-0.511
	c-0.061-0.115-0.127-0.219-0.198-0.31c-0.323-0.029-0.579-0.056-0.771-0.079c-0.238-0.027-0.474-0.067-0.709-0.115
	c-0.224-0.047-0.471-0.103-0.74-0.169l-1.095-0.256c-0.489-0.112-0.87-0.212-1.142-0.298c-0.29-0.088-0.56-0.193-0.811-0.314
	c-0.245-0.118-0.504-0.265-0.778-0.44c-0.253-0.162-0.597-0.379-1.028-0.648l-0.325-0.203l0.024-0.115
	c-0.077-0.108-0.121-0.243-0.121-0.394v-0.364l0.335-0.143c0.626-0.265,1.323-0.51,2.074-0.729c0.711-0.208,1.386-0.467,2.008-0.769
	c0.587-0.285,1.097-0.653,1.515-1.095c0.375-0.398,0.58-0.919,0.625-1.591c0.015-0.115,0.012-0.146,0.012-0.147
	c-0.01-0.035-0.025-0.087-0.046-0.14c-0.05-0.135-0.075-0.268-0.075-0.396c-0.015-0.024-0.197-0.635-0.293-0.9l-0.326-0.9
	c-0.101-0.272-0.214-0.533-0.34-0.777c-0.105-0.204-0.245-0.386-0.413-0.54l-0.115-0.148c-0.003-0.005-0.174-0.339-0.271-0.456
	c-0.031-0.02-0.118-0.074-0.223-0.126l-0.136-0.068l-0.082-0.127c-0.25-0.39-0.556-0.695-0.933-0.934
	c-0.385-0.243-0.74-0.483-1.065-0.72c-0.508,0.08-0.921,0.254-1.257,0.53c-0.431,0.356-0.828,0.766-1.18,1.219
	c-0.376,0.482-0.742,0.979-1.1,1.489c-0.395,0.561-0.854,1.045-1.365,1.439l-0.557,0.43l-0.27-0.612
	c0.001,0.006-0.051-0.017-0.134-0.045c-0.044-0.015-0.087-0.026-0.127-0.036c-0.104,0.273-0.193,0.566-0.265,0.877
	c-0.107,0.467-0.211,0.942-0.311,1.428c-0.101,0.495-0.21,0.995-0.329,1.5c-0.111,0.469-0.252,0.936-0.42,1.39
	c0.009,0.084,0.013,0.177,0.013,0.278c0,0.16-0.011,0.322-0.032,0.482c-0.023,0.18-0.064,0.339-0.121,0.471
	c0.018-0.033,0.016,0.045,0.011,0.138c-0.011,0.2-0.026,0.432-0.06,0.588c-0.058,0.272-0.131,0.547-0.221,0.819
	c-0.074,0.23-0.135,0.479-0.185,0.747c-0.043,0.23-0.087,0.474-0.13,0.729c0.043,0.084,0.083,0.169,0.12,0.252
	c0.067,0.16,0.2,0.507,0.223,0.601c0.015,0.074,0.031,0.132,0.052,0.188c0.028,0.088,0.053,0.177,0.072,0.27
	c0.021,0.029,0.049,0.062,0.075,0.095c0.105,0.134,0.205,0.261,0.258,0.404h0.001c0.02,0,0.195,0.154,0.258,0.196
	c0.094,0.05,0.188,0.116,0.266,0.18c0.005,0.003,0.009,0.007,0.014,0.01c0.264-0.16,0.481-0.261,0.674-0.309
	c0.211-0.296,0.373-0.58,0.482-0.847c0.146-0.349,0.316-0.88,0.509-1.582l0.234-0.857l1.544,1.379
	C166.48,40.567,166.73,40.756,167.007,40.932z M165.995,33.939c0.084-0.467,0.236-0.883,0.452-1.237
	c0.199-0.329,0.428-0.634,0.68-0.904c0.231-0.25,0.475-0.498,0.728-0.741c0.22-0.214,0.421-0.452,0.595-0.705l0.23-0.336
	l0.389,0.123c0.438,0.139,0.852,0.419,1.232,0.832c0.396,0.431,0.639,0.989,0.726,1.662l0.054,0.418l-2.35,0.965
	c-0.734,0.3-1.451,0.49-2.132,0.568l-0.735,0.083L165.995,33.939z"/>
<path fill="#FFFFFF" d="M190.028,28.146c0-0.059,0.002-0.115,0.008-0.168c-0.177-0.153-0.473-0.393-0.698-0.561
	c-0.188-0.139-0.456-0.293-0.616-0.367h-0.13c-0.211,0-0.416-0.069-0.615-0.207c-0.683,0.126-1.281,0.22-1.822,0.285
	c-0.594,0.072-1.164,0.148-1.712,0.229c-0.54,0.081-1.091,0.183-1.648,0.307c-0.549,0.122-1.187,0.3-1.894,0.53
	c-0.452,0.105-0.838,0.188-1.204,0.262c-0.338,0.067-0.65,0.152-0.932,0.251c-0.266,0.092-0.514,0.214-0.739,0.362
	c-0.139,0.091-0.261,0.198-0.368,0.323c0.061,0.246,0.106,0.49,0.136,0.729c0.034,0.286,0.078,0.564,0.131,0.831
	c0.046,0.242,0.122,0.489,0.226,0.737c0.086,0.207,0.228,0.402,0.424,0.584l0.269,0.249l-0.126,0.345
	c-0.134,0.363-0.272,0.693-0.416,0.989c-0.137,0.282-0.273,0.56-0.41,0.834c-0.133,0.266-0.26,0.538-0.383,0.818
	c-0.225,0.512-0.771,1.729-0.985,1.999c-0.117,0.15-0.194,0.314-0.231,0.501c-0.044,0.204-0.054,0.434-0.032,0.688
	c0.026,0.292,0.065,0.59,0.117,0.892l0.16,0.909c0.038,0.197,0.068,0.385,0.09,0.563c0.229,0.185,0.333,0.403,0.379,0.574
	c0.019,0.069,0.054,0.124,0.114,0.176c0.3,0.299,0.663,0.492,1.106,0.604c0.501,0.125,1.038,0.196,1.597,0.213
	c0.565,0.018,1.129-0.009,1.684-0.076c0.781-0.099,1.548-0.19,1.855-0.19l0.299,0.05c0.771-0.145,1.39-0.255,1.946-0.347
	c0.521-0.085,0.997-0.205,1.413-0.355c0.385-0.139,0.731-0.345,1.03-0.613c0.147-0.152,0.377-0.915,0.425-1.228
	c-0.004-0.019-0.009-0.038-0.014-0.058c-0.152-0.038-0.292-0.109-0.413-0.212c-0.13-0.106-0.261-0.235-0.383-0.384
	c-0.096-0.113-0.202-0.242-0.315-0.382c-0.009-0.011-0.018-0.021-0.026-0.031c-0.383,0.116-0.796,0.202-1.233,0.257
	c-0.427,0.055-0.796,0.167-1.096,0.331l-0.132,0.072l-0.149-0.005c-0.546-0.017-1.001-0.005-1.36,0.037l-1.112,0.137
	c-0.377,0.047-0.776,0.079-1.201,0.098c-0.427,0.019-0.989-0.018-1.64-0.114l-0.671-0.099l0.235-0.636
	c0.19-0.516,0.411-1.007,0.657-1.459c0.247-0.456,0.528-0.893,0.836-1.296l0.239-0.312l0.372,0.124
	c0.136,0.045,0.296,0.068,0.477,0.068l0.17-0.003c0.228,0,0.439,0.028,0.633,0.084c0.201-0.061,0.43-0.074,0.703-0.036
	c0.183,0.024,0.491,0.006,0.621-0.001l0.297-0.004l0.192,0.004c0.308,0,0.59-0.036,0.84-0.107c0.315-0.087,0.617-0.205,0.903-0.353
	c0.301-0.155,0.585-0.329,0.844-0.516c0.239-0.173,0.479-0.341,0.719-0.507c0.001-0.005,0.001-0.01,0.002-0.015
	c-0.09-0.083-0.259-0.209-0.37-0.275c-0.174-0.104-0.343-0.237-0.5-0.396c-0.131-0.131-0.262-0.268-0.393-0.407
	c-0.106-0.113-0.212-0.3-0.296-0.48c-0.609,0.023-1.23,0.063-1.85,0.122c-0.809,0.076-1.541,0.084-2.206,0.027l-0.307-0.025
	l-0.139-0.274c-0.099-0.196-0.142-0.433-0.126-0.701c0.004-0.085-0.012-0.166-0.049-0.251l-0.24-0.55l0.568-0.192
	c0.171-0.058,0.343-0.11,0.515-0.158c0.056-0.016,0.177-0.043,0.327-0.076c0.215-0.048,0.716-0.159,0.83-0.206
	c0.26-0.123,1.971-0.64,2.581-0.75c0.577-0.104,1.142-0.201,1.694-0.297c0.621-0.107,1.12-0.258,1.577-0.466
	c0.347-0.157,0.668-0.448,0.958-0.868C190.033,28.262,190.028,28.202,190.028,28.146z"/>
<path fill="#FFFFFF" d="M204.581,27.857c-0.254-0.128-0.493-0.275-0.714-0.439c-0.137-0.101-0.31-0.236-0.464-0.357
	c-0.085-0.066-0.163-0.128-0.225-0.175l-0.197,0.006c-0.072,0-0.235,0-0.409-0.061c-0.712,0.132-1.331,0.23-1.889,0.297
	c-0.594,0.072-1.165,0.148-1.713,0.229c-0.541,0.081-1.09,0.183-1.648,0.307c-0.553,0.123-1.19,0.301-1.895,0.53
	c-0.452,0.105-0.837,0.188-1.202,0.262c-0.339,0.067-0.652,0.151-0.934,0.251c-0.267,0.093-0.515,0.214-0.739,0.362
	c-0.138,0.09-0.259,0.197-0.367,0.322c0.062,0.246,0.107,0.491,0.136,0.731c0.035,0.283,0.078,0.562,0.131,0.829
	c0.047,0.246,0.122,0.493,0.226,0.735c0.087,0.21,0.229,0.405,0.424,0.586l0.27,0.25l-0.128,0.345
	c-0.135,0.362-0.271,0.692-0.415,0.988l-0.409,0.833c-0.135,0.268-0.262,0.54-0.386,0.821c-0.006,0.013-0.727,1.676-0.984,1.998
	c-0.117,0.148-0.192,0.313-0.23,0.5c-0.044,0.204-0.054,0.434-0.032,0.688c0.027,0.292,0.065,0.59,0.116,0.894l0.162,0.906
	c0.021,0.106,0.189,0.479,0.271,0.658c0.097,0.214,0.176,0.398,0.197,0.479c0.013,0.048,0.036,0.107,0.115,0.176
	c0.3,0.299,0.662,0.493,1.105,0.604c0.501,0.125,1.038,0.196,1.597,0.213c0.565,0.018,1.129-0.009,1.684-0.076
	c0.729-0.092,1.535-0.19,1.855-0.19l0.298,0.049c0.773-0.144,1.391-0.254,1.947-0.346c0.522-0.086,0.998-0.205,1.413-0.355
	c0.384-0.138,0.73-0.345,1.03-0.613c0.15-0.135,0.4-0.67,0.496-0.953c-0.024-0.064-0.044-0.133-0.059-0.204
	c-0.008-0.044-0.017-0.086-0.026-0.128c-0.154-0.038-0.295-0.111-0.416-0.215c-0.124-0.102-0.254-0.229-0.377-0.377
	c-0.102-0.12-0.211-0.251-0.322-0.391c-0.007-0.01-0.015-0.019-0.022-0.026c-0.382,0.115-0.795,0.202-1.232,0.257
	c-0.428,0.055-0.797,0.167-1.097,0.331l-0.132,0.072l-0.149-0.005c-0.549-0.017-1.002-0.006-1.36,0.037l-1.11,0.137
	c-0.379,0.047-0.778,0.079-1.202,0.098c-0.429,0.017-0.991-0.019-1.642-0.114l-0.672-0.099l0.236-0.637
	c0.189-0.512,0.411-1.002,0.658-1.457c0.246-0.455,0.526-0.892,0.835-1.296l0.238-0.313l0.372,0.123
	c0.138,0.046,0.298,0.069,0.479,0.069L196.384,36c0.338,0,0.936,0.014,1.195,0.05c0.181,0.025,0.494,0.006,0.621-0.001l0.296-0.004
	l0.192,0.004c0.308,0,0.59-0.036,0.84-0.107c0.315-0.087,0.61-0.202,0.906-0.354c0.299-0.155,0.582-0.328,0.841-0.515
	c0.238-0.172,0.479-0.341,0.718-0.506c0.001-0.006,0.001-0.011,0.002-0.017c-0.089-0.083-0.258-0.208-0.369-0.274
	c-0.172-0.104-0.34-0.235-0.498-0.393c-0.134-0.135-0.266-0.271-0.396-0.412c-0.107-0.114-0.212-0.3-0.294-0.479
	c-0.61,0.023-1.23,0.063-1.85,0.122c-0.806,0.076-1.54,0.084-2.206,0.027l-0.304-0.025l-0.14-0.271
	c-0.101-0.195-0.144-0.433-0.128-0.704c0.004-0.085-0.012-0.166-0.049-0.251l-0.24-0.55l0.568-0.192
	c0.171-0.058,0.344-0.11,0.517-0.158c0.054-0.016,0.179-0.044,0.332-0.078c0.213-0.047,0.712-0.158,0.824-0.204
	c0.257-0.122,1.968-0.639,2.58-0.75c0.54-0.097,1.07-0.189,1.589-0.279l0.197-0.034c0.53-0.091,1.03-0.242,1.485-0.449
	c0.345-0.156,0.666-0.447,0.958-0.868c-0.011-0.065-0.016-0.125-0.016-0.182c0-0.099,0.007-0.192,0.022-0.275L204.581,27.857z"/>
<path fill="#FFFFFF" d="M213.774,33.943c0.105-0.346,0.216-0.673,0.328-0.979c0.125-0.335,0.263-0.66,0.414-0.984
	c0.146-0.289,0.275-0.578,0.398-0.874c0.12-0.294,0.241-0.635,0.364-1.017l0.113-0.358l0.375-0.024
	c0.265-0.017,0.561-0.045,0.887-0.081c0.33-0.035,0.672-0.079,1.026-0.133c0.516-0.073,1.035-0.141,1.566-0.206
	c0.691-0.083,1.346-0.128,1.894-0.084c0.081,0.008,0.177,0.011,0.293,0.012c0.037-0.009,0.071-0.019,0.104-0.031
	c0.063-0.023,0.117-0.047,0.172-0.074c0.145-0.06,0.25-0.098,0.358-0.13c0.092-0.028,0.19-0.046,0.295-0.056l0.395-0.229
	c-0.001-0.002,0.024-0.031,0.073-0.099c0.012-0.234-0.01-0.503-0.139-0.663c-0.199-0.251-0.399-0.468-0.594-0.646
	c-0.096-0.078-0.209-0.175-0.314-0.272c-0.107-0.098-0.2-0.207-0.274-0.324l-0.07-0.049c-0.15-0.023-0.311-0.041-0.48-0.054
	c-0.735-0.056-1.569-0.02-2.44,0.079c-0.618,0.072-1.234,0.153-1.845,0.242c-0.414,0.073-0.84,0.133-1.258,0.18
	c-0.411,0.046-0.819,0.087-1.223,0.124l-0.252,0.022l-0.182-0.177c-0.075-0.074-0.167-0.152-0.278-0.234
	c0.001,0.002-0.048-0.021-0.229-0.021h-0.001c-0.043,0.089-0.085,0.181-0.127,0.275l-0.131,0.296l-2.577,0.246
	c-0.644,0.056-1.262,0.105-1.861,0.151c-0.611,0.046-1.22,0.07-1.811,0.07h-0.554l-0.338,0.351c0,0.233,0.024,0.431,0.071,0.586
	c0.06,0.191,0.123,0.374,0.189,0.543c0.049,0.159,0.081,0.261,0.114,0.35c0.032,0.091,0.059,0.182,0.08,0.274l0.102,0.135
	c0.122,0.088,0.252,0.228,0.425,0.451c0.075,0.035,0.144,0.059,0.203,0.07c0.108,0.021,0.211,0.031,0.306,0.031
	c0.141-0.021,0.214-0.027,0.272-0.027h0.812c0.128-0.03,0.352-0.055,0.794-0.055h0.272c0.116,0,0.325-0.035,0.503-0.062
	c0.396-0.059,0.501-0.044,0.641-0.06c0.079-0.007,0.165-0.02,0.261-0.035c0.096-0.019,0.202-0.035,0.311-0.046
	c0.106-0.01,0.224-0.016,0.353-0.016h0.811l-0.421,1.06c-0.044,0.121-0.099,0.253-0.157,0.389c-0.092,0.203-0.177,0.396-0.257,0.583
	l-0.315,0.726c-0.004,0.009-0.476,1.042-0.616,1.405l-0.438,1.108c-0.247,0.653-0.488,1.344-0.721,2.06
	c-0.206,0.631-0.299,1.417-0.277,2.338c0.061,0.113,0.113,0.238,0.155,0.375c0.051,0.163,0.097,0.33,0.136,0.51
	c0.036,0.197,0.079,0.372,0.136,0.548c0.043,0.139,0.107,0.261,0.197,0.378l0.114,0.207c0.028,0.052,0.063,0.116,0.094,0.173
	c0.115,0.056,0.25,0.119,0.404,0.19l0.14,0.064l0.085,0.128l0.594,0.278c0.044,0.018,0.089,0.034,0.127,0.048
	c0.425-0.013,0.717-0.115,0.868-0.307c0.054-0.066,0.194-0.238,0.153-0.669l-0.063-0.069c-0.102-0.053-0.185-0.103-0.252-0.148
	c-0.08-0.036-0.17-0.088-0.285-0.166l-0.187-0.125l-0.046-0.22l-0.231-0.302l-0.02-0.139c-0.029-0.199-0.008-0.438,0.065-0.729
	l0.047-0.252c0.007-0.036,0.024-0.107,0.048-0.194c0.022-0.084,0.076-0.281,0.079-0.348c0-0.079,0.013-0.175,0.041-0.298
	c0.024-0.106,0.06-0.221,0.108-0.342c0.108-0.208,0.286-0.657,0.312-0.732c0.011-0.04,0.029-0.104,0.308-0.622
	c0.058-0.219,0.139-0.474,0.244-0.763c0.133-0.367,0.792-1.725,0.798-1.738C213.452,34.494,213.599,34.229,213.774,33.943z"/>
<g>
	<path fill="#FFFFFF" d="M247.121,35.366c0.348-0.31,0.609-0.626,0.777-0.939c-0.09-0.05-0.152-0.099-0.206-0.143
		c-0.068-0.056-0.123-0.107-0.17-0.152c-0.079-0.079-0.172-0.155-0.282-0.236c-0.001-0.001-0.079-0.056-0.347-0.072l-0.161-0.01
		l-0.131-0.096c-0.1-0.072-0.184-0.146-0.257-0.221c-0.045-0.043-0.089-0.092-0.129-0.143l-0.215-0.14
		c-0.107,0.014-0.231,0.032-0.351,0.051c-0.253,0.038-0.493,0.069-0.601,0.069h-0.365l-0.142-0.337
		c-0.19-0.453-0.347-0.945-0.465-1.464c-0.111-0.492-0.213-1.003-0.306-1.539c-0.069-0.345-0.146-0.709-0.226-1.078
		c-0.081-0.367-0.167-0.729-0.256-1.087l-0.016-0.11c-0.018-0.433-0.052-0.826-0.104-1.181c-0.053-0.366-0.116-0.735-0.187-1.109
		c-0.034-0.153-0.068-0.326-0.098-0.5l-0.128-0.536c-0.134-0.116-0.327-0.215-0.574-0.296c-0.348-0.113-0.706-0.213-1.071-0.3
		c-0.256-0.083-0.455-0.144-0.645-0.196c-0.249-0.067-0.43-0.137-0.568-0.218l-0.008-0.005l-0.027,0.038
		c-0.475,0.73-0.963,1.38-1.439,1.913c-0.512,0.572-1.108,1.015-1.773,1.317l-0.153,0.07l-0.656-0.111
		c-0.002,0.007-0.042,0.02-0.05,0.022c-0.058,0.019-0.11,0.041-0.159,0.065l-0.138,0.068l-0.138-0.012l-0.01,0.014
		c-0.294,0.353-0.514,0.677-0.682,0.998c-0.186,0.354-0.357,0.705-0.516,1.058c-0.154,0.327-0.308,0.635-0.465,0.931
		c-0.077,0.146-0.328,0.723-0.576,1.289c-0.24,0.549-0.477,1.089-0.562,1.258c-0.169,0.34-0.336,0.681-0.497,1.021
		c-0.528,1.077-1.031,2.117-1.511,3.13c-0.469,0.992-0.924,2.024-1.353,3.068l-0.022,0.478l0.042,0.478
		c0.079,0.154,0.135,0.349,0.169,0.587c0.028,0.081,0.062,0.225,0.082,0.364c0.006,0.039,0.026,0.114,0.083,0.227l0.026,0.032
		c0.181,0.1,0.343,0.211,0.483,0.333c0.111,0.097,0.249,0.225,0.413,0.386l0.152,0.012c0.048-0.001,0.131-0.008,0.201-0.02
		c0.093-0.018,0.251-0.052,0.476-0.104l0.199-0.027c0.2-0.303,0.398-0.495,0.59-0.572c0.1-0.043,0.218-0.099,0.337-0.164
		c0.029-0.016,0.064-0.039,0.104-0.087l0.061-0.196c0.008-0.299,0.057-0.598,0.145-0.889c0.081-0.272,0.168-0.557,0.26-0.849
		c0.084-0.214,0.149-0.386,0.21-0.561c0.054-0.156,0.096-0.322,0.129-0.493l0.03-0.158l0.11-0.116
		c0.053-0.056,0.452-0.171,0.523-0.221c0,0,0.555-0.149,1.758-0.092l0.858,0.142c0.729,0.098,1.383,0.055,1.939-0.059
		c0.387-0.08,0.785-0.173,1.192-0.28c0.305-0.074,0.598-0.144,0.894-0.208c0.361-0.079,0.811-0.066,1.34,0.038l0.415,0.082
		l0.026,0.423c0.046,0.73-0.065,1.251-0.338,1.59c-0.256,0.322-0.707,0.566-1.375,0.744l-0.046,0.013
		c0.052,0.053,0.11,0.115,0.161,0.175c0.028,0.035,0.062,0.065,0.102,0.096c0.293,0.263,0.447,0.438,0.54,0.598
		c0.08,0.141,0.152,0.348,0.114,0.609l0.096,0.222c0.08,0.048,0.165,0.106,0.257,0.176c0.086,0.068,0.173,0.128,0.271,0.188
		c0.019,0.012,0.101,0.055,0.315,0.105c0.356-0.023,0.703-0.11,1.03-0.26c0.37-0.171,0.703-0.389,0.99-0.646
		c0.298-0.264,0.559-0.566,0.779-0.899c0.21-0.319,0.398-0.688,0.562-1.1c0.04-0.345,0.042-0.685,0.004-1.011
		c-0.043-0.372-0.1-0.733-0.17-1.081c-0.039-0.154-0.064-0.31-0.076-0.443c-0.007-0.08-0.024-0.162-0.05-0.251l-0.128-0.451
		l0.425-0.197C246.336,35.964,246.755,35.69,247.121,35.366z M240.587,34.385c-0.65,0.131-1.264,0.226-1.823,0.28
		c-0.551,0.055-1.147,0.102-1.791,0.138c-0.174,0.029-0.436,0.017-0.69,0.051l-1.128,0.155l0.579-0.98
		c0.244-0.411,0.495-0.803,0.757-1.178l0.036-0.049c0.276-0.506,0.625-1.043,1.036-1.597c0.406-0.549,0.839-1.075,1.288-1.565
		l0.737-1.469l0.386,1.363c0.202,0.714,0.389,1.424,0.563,2.126c0.173,0.706,0.333,1.395,0.479,2.07l0.117,0.545L240.587,34.385z"/>
</g>
<path fill="#FFFFFF" d="M251.181,41.426c0.139-0.336,0.31-0.868,0.506-1.578l0.237-0.856l1.541,1.38
	c0.225,0.201,0.476,0.389,0.746,0.56c0.273,0.175,0.608,0.354,0.999,0.536c0.4,0.188,0.919,0.405,1.558,0.653
	c1.283,0.499,2.346,0.843,3.159,1.023c0.736,0.166,1.347,0.161,1.803-0.016l0.137-0.034c0.129-0.059,0.181-0.12,0.231-0.196
	c0.044-0.103,0.246-0.782,0.264-0.93c0.013-0.16,0.006-0.335-0.023-0.513c-0.026-0.167-0.086-0.34-0.176-0.514
	c-0.062-0.115-0.128-0.219-0.198-0.309c-0.322-0.029-0.579-0.056-0.77-0.079c-0.239-0.027-0.477-0.067-0.71-0.115
	c-0.224-0.047-0.469-0.103-0.74-0.169l-1.001-0.234c-0.582-0.134-0.964-0.233-1.236-0.318c-0.288-0.089-0.558-0.194-0.809-0.314
	c-0.246-0.119-0.507-0.266-0.78-0.442c-0.252-0.161-0.596-0.378-1.027-0.648l-0.32-0.2l0.022-0.113
	c-0.079-0.109-0.124-0.246-0.124-0.397v-0.364l0.335-0.143c0.623-0.263,1.32-0.508,2.073-0.729c0.71-0.207,1.386-0.466,2.009-0.769
	c0.588-0.285,1.097-0.653,1.513-1.095c0.377-0.397,0.582-0.918,0.628-1.591c0.015-0.117,0.011-0.149,0.011-0.15
	c-0.009-0.032-0.025-0.084-0.046-0.137c-0.05-0.135-0.075-0.268-0.075-0.396c-0.016-0.028-0.197-0.638-0.293-0.898l-0.327-0.901
	c-0.1-0.273-0.213-0.533-0.339-0.776c-0.106-0.206-0.245-0.387-0.413-0.541l-0.115-0.148c-0.003-0.005-0.174-0.339-0.271-0.456
	c-0.028-0.018-0.117-0.073-0.224-0.127l-0.136-0.067l-0.081-0.128c-0.249-0.388-0.554-0.693-0.933-0.933
	c-0.385-0.243-0.74-0.483-1.065-0.72c-0.508,0.08-0.921,0.254-1.256,0.53c-0.431,0.355-0.828,0.766-1.181,1.219
	c-0.376,0.482-0.742,0.979-1.1,1.489c-0.395,0.562-0.854,1.045-1.366,1.439l-0.562,0.432l-0.265-0.615
	c-0.007,0.007-0.052-0.016-0.133-0.044c-0.044-0.015-0.087-0.027-0.127-0.036c-0.104,0.275-0.193,0.569-0.265,0.877
	c-0.108,0.467-0.211,0.941-0.31,1.427c-0.101,0.496-0.211,0.995-0.33,1.5l-0.146,0.591c-0.093,0.372-0.249,0.996-0.265,1.118
	c0.002,0.119-0.008,0.279-0.028,0.438c-0.026,0.191-0.066,0.346-0.122,0.475c0.019-0.033,0.016,0.045,0.011,0.138
	c-0.011,0.2-0.026,0.432-0.06,0.588c-0.058,0.272-0.131,0.546-0.219,0.817c-0.075,0.232-0.138,0.481-0.188,0.749
	c-0.042,0.229-0.086,0.473-0.13,0.729c0.043,0.084,0.083,0.169,0.12,0.252c0.067,0.157,0.202,0.506,0.225,0.601
	c0.016,0.076,0.032,0.136,0.053,0.194c0.026,0.083,0.051,0.171,0.07,0.264c0.021,0.029,0.049,0.062,0.075,0.095
	c0.105,0.134,0.205,0.261,0.258,0.404h0.001c0.02,0,0.196,0.154,0.259,0.196c0.093,0.05,0.188,0.116,0.266,0.18l0.007,0.003
	c0.035-0.028,0.069-0.06,0.102-0.091c0.016-0.017,0.069-0.065,0.146-0.133C250.973,41.729,251.143,41.504,251.181,41.426z
	 M253.198,33.939c0.083-0.463,0.235-0.879,0.453-1.236c0.196-0.325,0.424-0.63,0.677-0.903c0.234-0.252,0.479-0.5,0.729-0.743
	c0.217-0.209,0.418-0.447,0.596-0.706l0.231-0.335l0.389,0.123c0.438,0.14,0.852,0.42,1.231,0.833
	c0.393,0.426,0.637,0.984,0.725,1.66l0.055,0.419l-2.348,0.965c-0.736,0.3-1.454,0.49-2.135,0.568l-0.735,0.083L253.198,33.939z"/>
<path fill="#FFFFFF" d="M270.683,33.943c0.106-0.347,0.217-0.674,0.329-0.981c0.126-0.334,0.262-0.66,0.415-0.983
	c0.143-0.287,0.273-0.576,0.396-0.872s0.245-0.636,0.367-1.018l0.113-0.357l0.375-0.024c0.264-0.017,0.559-0.045,0.885-0.081
	c0.331-0.035,0.673-0.079,1.026-0.133c0.516-0.073,1.036-0.141,1.566-0.206c0.691-0.083,1.342-0.127,1.894-0.084
	c0.082,0.008,0.178,0.011,0.293,0.012c0.038-0.009,0.074-0.02,0.106-0.032c0.059-0.021,0.114-0.046,0.17-0.073
	c0.145-0.06,0.249-0.098,0.357-0.13c0.096-0.028,0.193-0.047,0.297-0.056l0.393-0.228c-0.001-0.002,0.024-0.031,0.074-0.1
	c0.012-0.234-0.01-0.503-0.138-0.662c-0.195-0.246-0.396-0.463-0.597-0.648c-0.093-0.076-0.203-0.172-0.309-0.268
	c-0.111-0.101-0.203-0.21-0.277-0.327l-0.07-0.049c-0.15-0.023-0.311-0.041-0.482-0.054c-0.731-0.056-1.569-0.02-2.438,0.079
	c-0.619,0.072-1.236,0.153-1.848,0.243c-0.412,0.073-0.836,0.133-1.255,0.179c-0.412,0.046-0.82,0.087-1.224,0.124l-0.254,0.022
	l-0.182-0.179c-0.074-0.073-0.167-0.15-0.277-0.232c0.002,0-0.041-0.021-0.228-0.021h-0.002c-0.042,0.088-0.084,0.179-0.125,0.273
	l-0.13,0.298l-2.58,0.246c-0.643,0.056-1.261,0.105-1.86,0.151c-0.613,0.046-1.223,0.07-1.812,0.07h-0.555l-0.228,0.199
	c-0.033,0.048-0.07,0.1-0.112,0.155c0.003,0.227,0.027,0.425,0.075,0.582c0.06,0.191,0.122,0.374,0.188,0.543
	c0.049,0.163,0.082,0.265,0.114,0.354c0.032,0.086,0.059,0.177,0.08,0.27l0.102,0.136c0.122,0.087,0.252,0.228,0.426,0.451
	c0.074,0.034,0.142,0.058,0.201,0.068c0.11,0.021,0.212,0.032,0.307,0.032c0.14-0.021,0.212-0.027,0.272-0.027h0.79
	c0.208-0.074,0.426-0.126,0.769-0.059l0.318,0.004c0.117,0,0.326-0.035,0.505-0.062c0.388-0.059,0.496-0.045,0.64-0.06
	c0.077-0.007,0.165-0.02,0.258-0.035c0.098-0.019,0.204-0.035,0.313-0.046c0.108-0.01,0.224-0.016,0.353-0.016h0.811l-0.422,1.063
	c-0.044,0.118-0.097,0.248-0.154,0.382c-0.096,0.209-0.181,0.4-0.26,0.586c-0.074,0.176-0.171,0.398-0.288,0.664
	c-0.03,0.07-0.502,1.104-0.644,1.468l-0.437,1.107c-0.248,0.653-0.489,1.344-0.722,2.06c-0.205,0.629-0.298,1.415-0.277,2.338
	c0.06,0.11,0.11,0.233,0.154,0.372c0.051,0.165,0.096,0.331,0.136,0.51c0.036,0.202,0.081,0.377,0.137,0.554
	c0.043,0.135,0.107,0.258,0.198,0.376l0.112,0.205c0.028,0.053,0.063,0.117,0.095,0.174c0.114,0.056,0.249,0.118,0.404,0.19
	l0.139,0.064l0.086,0.128l0.599,0.28c0.042,0.017,0.085,0.032,0.122,0.046c0.425-0.013,0.717-0.115,0.867-0.306
	c0.056-0.067,0.196-0.239,0.155-0.669l-0.063-0.07c-0.101-0.053-0.184-0.103-0.251-0.147c-0.081-0.036-0.172-0.09-0.288-0.168
	l-0.186-0.125l-0.045-0.219l-0.23-0.302l-0.02-0.139c-0.029-0.199-0.008-0.438,0.065-0.729l0.045-0.252
	c0.008-0.039,0.024-0.107,0.047-0.189c0.023-0.085,0.078-0.284,0.081-0.353c0-0.078,0.013-0.168,0.042-0.298
	c0.02-0.097,0.056-0.213,0.104-0.337c0.11-0.21,0.284-0.647,0.313-0.733c0.032-0.12,0.104-0.242,0.231-0.386l0.069-0.211
	c0.048-0.196,0.136-0.474,0.254-0.794c0.119-0.33,0.683-1.503,0.795-1.735C270.36,34.494,270.508,34.229,270.683,33.943z"/>
</svg>
